<svg width="23" height="23" viewBox="0 0 23 23" fill="none" xmlns="http://www.w3.org/2000/svg">
<g clip-path="url(#clip0_228_783)">
<path d="M11.5 9.58333C10.7375 9.58333 10.0062 9.28043 9.46707 8.74127C8.9279 8.2021 8.625 7.47083 8.625 6.70833C8.625 5.94584 8.9279 5.21457 9.46707 4.6754C10.0062 4.13623 10.7375 3.83333 11.5 3.83333C12.2625 3.83333 12.9938 4.13623 13.5329 4.6754C14.0721 5.21457 14.375 5.94584 14.375 6.70833C14.375 7.47083 14.0721 8.2021 13.5329 8.74127C12.9938 9.28043 12.2625 9.58333 11.5 9.58333ZM8.59433 14.6136C8.7914 13.9979 9.17898 13.4608 9.70115 13.0796C10.2233 12.6985 10.8531 12.4931 11.4995 12.4931C12.146 12.4931 12.7757 12.6985 13.2979 13.0796C13.8201 13.4608 14.2076 13.9979 14.4047 14.6136C14.4682 14.8599 14.627 15.0709 14.8461 15.2001C15.0652 15.3293 15.3266 15.3662 15.5729 15.3027C15.8192 15.2391 16.0302 15.0803 16.1594 14.8613C16.2886 14.6422 16.3255 14.3807 16.262 14.1345C15.0056 9.39358 7.99154 9.3955 6.739 14.1345C6.7044 14.2573 6.69468 14.3858 6.71042 14.5124C6.72615 14.6391 6.76701 14.7613 6.83061 14.8719C6.89421 14.9825 6.97927 15.0794 7.08078 15.1567C7.1823 15.234 7.29824 15.2903 7.4218 15.3222C7.54535 15.3541 7.67404 15.361 7.8003 15.3425C7.92656 15.324 8.04786 15.2805 8.15708 15.2145C8.2663 15.1485 8.36123 15.0613 8.43632 14.9582C8.5114 14.855 8.56513 14.7378 8.59433 14.6136ZM11.5086 22.679C11.0358 22.6792 10.5794 22.5056 10.2264 22.1912L6.63454 19.1667H3.83333C2.81667 19.1667 1.84165 18.7628 1.12276 18.0439C0.403868 17.325 0 16.35 0 15.3333V3.83333C0 2.81667 0.403868 1.84165 1.12276 1.12276C1.84165 0.403868 2.81667 0 3.83333 0L19.1667 0C20.1833 0 21.1584 0.403868 21.8772 1.12276C22.5961 1.84165 23 2.81667 23 3.83333V15.3333C23 16.35 22.5961 17.325 21.8772 18.0439C21.1584 18.7628 20.1833 19.1667 19.1667 19.1667H16.4325L12.7458 22.2142C12.4043 22.5154 11.964 22.6808 11.5086 22.679ZM3.83333 1.91667C3.325 1.91667 2.83749 2.1186 2.47805 2.47805C2.1186 2.83749 1.91667 3.325 1.91667 3.83333V15.3333C1.91667 15.8417 2.1186 16.3292 2.47805 16.6886C2.83749 17.0481 3.325 17.25 3.83333 17.25H6.98529C7.21112 17.25 7.4297 17.3298 7.60246 17.4752L11.4799 20.7431L15.478 17.4695C15.6498 17.3276 15.8657 17.25 16.0885 17.25H19.1667C19.675 17.25 20.1625 17.0481 20.522 16.6886C20.8814 16.3292 21.0833 15.8417 21.0833 15.3333V3.83333C21.0833 3.325 20.8814 2.83749 20.522 2.47805C20.1625 2.1186 19.675 1.91667 19.1667 1.91667H3.83333Z" fill="#1B8392"/>
</g>
<defs>
<clipPath id="clip0_228_783">
<rect width="23" height="23" fill="white"/>
</clipPath>
</defs>
</svg>
