<svg width="23" height="25" viewBox="0 0 23 25" fill="none" xmlns="http://www.w3.org/2000/svg">
<path d="M11.25 5.48633C11.8325 5.48633 12.3047 4.99052 12.3047 4.37891C12.3047 3.76729 11.8325 3.27148 11.25 3.27148C10.6675 3.27148 10.1953 3.76729 10.1953 4.37891C10.1953 4.99052 10.6675 5.48633 11.25 5.48633Z" fill="#D9D9D9" stroke="#99C6D3" stroke-width="1.86513" stroke-linecap="round" stroke-linejoin="round"/>
<path d="M11.25 13.6074C11.8325 13.6074 12.3047 13.1116 12.3047 12.5C12.3047 11.8884 11.8325 11.3926 11.25 11.3926C10.6675 11.3926 10.1953 11.8884 10.1953 12.5C10.1953 13.1116 10.6675 13.6074 11.25 13.6074Z" fill="#D9D9D9" stroke="#99C6D3" stroke-width="1.86513" stroke-linecap="round" stroke-linejoin="round"/>
<path d="M11.25 21.7285C11.8325 21.7285 12.3047 21.2327 12.3047 20.6211C12.3047 20.0095 11.8325 19.5137 11.25 19.5137C10.6675 19.5137 10.1953 20.0095 10.1953 20.6211C10.1953 21.2327 10.6675 21.7285 11.25 21.7285Z" fill="#D9D9D9" stroke="#99C6D3" stroke-width="1.86513" stroke-linecap="round" stroke-linejoin="round"/>
</svg>
