<svg width="41" height="61" viewBox="0 0 41 61" fill="none" xmlns="http://www.w3.org/2000/svg">
<path fill-rule="evenodd" clip-rule="evenodd" d="M80.1424 18.2212C80.1424 38.8883 63.3884 55.6423 42.7213 55.6423C22.0542 55.6423 5.30017 38.8883 5.30017 18.2212C5.30017 -2.44595 22.0542 -19.2 42.7213 -19.2C63.3884 -19.2 80.1424 -2.44595 80.1424 18.2212ZM85.1424 18.2212C85.1424 41.6497 66.1498 60.6423 42.7213 60.6423C19.2927 60.6423 0.300171 41.6497 0.300171 18.2212C0.300171 -5.20737 19.2927 -24.2 42.7213 -24.2C66.1498 -24.2 85.1424 -5.20737 85.1424 18.2212ZM47.1481 9.08881C47.1481 15.6012 41.8688 20.8805 35.3564 20.8805C28.844 20.8805 23.5647 15.6012 23.5647 9.08881C23.5647 2.57644 28.844 -2.70288 35.3564 -2.70288C41.8688 -2.70288 47.1481 2.57644 47.1481 9.08881ZM52.1481 9.08881C52.1481 18.3626 44.6302 25.8805 35.3564 25.8805C26.0826 25.8805 18.5647 18.3626 18.5647 9.08881C18.5647 -0.184986 26.0826 -7.70288 35.3564 -7.70288C44.6302 -7.70288 52.1481 -0.184986 52.1481 9.08881Z" fill="#1B8392" fill-opacity="0.18"/>
</svg>
