


<svg width="41" height="61" viewBox="0 0 41 61" fill="none" xmlns="http://www.w3.org/2000/svg">
<path fill-rule="evenodd" clip-rule="evenodd" d="M79.8498 18.2212C79.8498 38.8883 63.0958 55.6423 42.4287 55.6423C21.7616 55.6423 5.00757 38.8883 5.00757 18.2212C5.00757 -2.44595 21.7616 -19.2 42.4287 -19.2C63.0958 -19.2 79.8498 -2.44595 79.8498 18.2212ZM84.8498 18.2212C84.8498 41.6497 65.8572 60.6423 42.4287 60.6423C19.0001 60.6423 0.00756836 41.6497 0.00756836 18.2212C0.00756836 -5.20737 19.0001 -24.2 42.4287 -24.2C65.8572 -24.2 84.8498 -5.20737 84.8498 18.2212ZM46.8555 9.08881C46.8555 15.6012 41.5762 20.8805 35.0639 20.8805C28.5515 20.8805 23.2722 15.6012 23.2722 9.08881C23.2722 2.57644 28.5515 -2.70288 35.0639 -2.70288C41.5762 -2.70288 46.8555 2.57644 46.8555 9.08881ZM51.8555 9.08881C51.8555 18.3626 44.3376 25.8805 35.0639 25.8805C25.7901 25.8805 18.2722 18.3626 18.2722 9.08881C18.2722 -0.184986 25.7901 -7.70288 35.0639 -7.70288C44.3376 -7.70288 51.8555 -0.184986 51.8555 9.08881Z" fill="#1B8392" fill-opacity="0.18"/>
</svg>
