<svg width="58" height="68" viewBox="0 0 58 68" fill="none" xmlns="http://www.w3.org/2000/svg">
<path fill-rule="evenodd" clip-rule="evenodd" d="M37.972 16.5912C36.1204 24.1535 29.4721 29.6284 21.742 29.6284C20.458 29.6284 19.2038 29.4773 17.9965 29.1907C21.8046 21.7724 29.4329 16.8292 37.972 16.5912ZM38.4695 11.582C27.6827 11.6364 18.0036 17.8755 13.3515 27.2952C8.38796 24.3182 5 18.7736 5 12.3142C5 2.6286 12.6173 -5 21.742 -5C30.6356 -5 38.0971 2.2469 38.4695 11.582ZM43.482 12.0019C43.3192 -0.177947 33.6482 -10 21.742 -10C9.73424 -10 0 -0.00959587 0 12.3142C0 20.8495 4.66927 28.2655 11.5293 32.0184C11.1535 33.3355 10.8692 34.6964 10.6844 36.0947C8.64308 51.5381 19.5076 65.7123 34.951 67.7536C50.3945 69.7949 64.5686 58.9304 66.6099 43.4869C68.6007 28.4259 58.3168 14.5721 43.482 12.0019ZM43.0045 16.9969C40.9081 27.0724 32.1848 34.6284 21.742 34.6284C19.8266 34.6284 17.969 34.3742 16.1996 33.8968C15.9575 34.8237 15.77 35.7757 15.6413 36.7499C13.9618 49.4557 22.9004 61.1173 35.6063 62.7967C48.312 64.4762 59.9736 55.5375 61.653 42.8317C63.2739 30.5695 55.0049 19.2798 43.0045 16.9969Z" fill="#F69D16" fill-opacity="0.2"/>
</svg>
