<svg width="18" height="18" viewBox="0 0 18 18" fill="none" xmlns="http://www.w3.org/2000/svg">
<path d="M1.09228 7.53563C0.972387 7.41571 0.905037 7.25308 0.905037 7.0835C0.905037 6.91393 0.972387 6.7513 1.09228 6.63137L7.03456 0.687807L7.12409 0.612345C7.24731 0.527726 7.39627 0.488941 7.54511 0.502727C7.69394 0.516512 7.83325 0.581997 7.93882 0.687807L8.01301 0.777337C8.09788 0.900607 8.13693 1.0497 8.12338 1.19875C8.10983 1.3478 8.04454 1.4874 7.93882 1.59335L3.08881 6.44336H17.2667C17.4363 6.44336 17.5989 6.51073 17.7189 6.63067C17.8388 6.7506 17.9062 6.91326 17.9062 7.08286C17.9062 7.25247 17.8388 7.41513 17.7189 7.53506C17.5989 7.65499 17.4363 7.72237 17.2667 7.72237H1.54377C1.37449 7.72233 1.21213 7.65518 1.09228 7.53563ZM0 10.9199C0 10.7503 0.0673763 10.5876 0.187307 10.4677C0.307237 10.3478 0.469898 10.2804 0.639506 10.2804H16.3624C16.4888 10.2804 16.6123 10.3179 16.7174 10.3881C16.8225 10.4583 16.9045 10.558 16.9529 10.6748C17.0014 10.7915 17.0141 10.92 16.9896 11.044C16.9651 11.1679 16.9044 11.2819 16.8152 11.3714L10.8716 17.315L10.7821 17.3904C10.6505 17.4792 10.4906 17.516 10.3334 17.4936C10.1762 17.4712 10.0329 17.3913 9.93133 17.2693C9.82972 17.1473 9.77702 16.9919 9.78344 16.8333C9.78986 16.6747 9.85493 16.5241 9.96606 16.4107L14.8212 11.5594H0.639506C0.469898 11.5594 0.307237 11.492 0.187307 11.3721C0.0673763 11.2522 0 11.0895 0 10.9199Z" fill="white"/>
</svg>
