<svg xmlns="http://www.w3.org/2000/svg" width="22" height="23" viewBox="0 0 22 23" fill="none">
  <g clip-path="url(#clip0_8035_645)">
    <path d="M17.4167 9.24893V4.64176C17.4167 3.6693 17.0304 2.73667 16.3427 2.04904C15.6551 1.36141 14.7225 0.975098 13.75 0.975098L8.25 0.975098C7.27754 0.975098 6.34491 1.36141 5.65728 2.04904C4.96964 2.73667 4.58333 3.6693 4.58333 4.64176V9.24893C4.01611 9.6723 3.55517 10.2218 3.23698 10.8541C2.91878 11.4863 2.75206 12.184 2.75 12.8918V14.7251C2.75 16.9131 3.61919 19.0116 5.16637 20.5587C6.71354 22.1059 8.81196 22.9751 11 22.9751C13.188 22.9751 15.2865 22.1059 16.8336 20.5587C18.3808 19.0116 19.25 16.9131 19.25 14.7251V12.8918C19.2479 12.184 19.0812 11.4863 18.763 10.8541C18.4448 10.2218 17.9839 9.6723 17.4167 9.24893ZM6.41667 8.30843V4.64176C6.41667 4.15553 6.60982 3.68922 6.95364 3.3454C7.29745 3.00159 7.76377 2.80843 8.25 2.80843H13.75C14.2362 2.80843 14.7025 3.00159 15.0464 3.3454C15.3902 3.68922 15.5833 4.15553 15.5833 4.64176V8.30843H6.41667ZM17.4167 14.7251C17.4167 16.4269 16.7406 18.059 15.5373 19.2624C14.3339 20.4657 12.7018 21.1418 11 21.1418C9.29819 21.1418 7.66609 20.4657 6.46273 19.2624C5.25937 18.059 4.58333 16.4269 4.58333 14.7251V12.8918C4.58333 12.1624 4.87306 11.4629 5.38879 10.9472C5.90452 10.4315 6.60399 10.1418 7.33333 10.1418H14.6667C15.396 10.1418 16.0955 10.4315 16.6112 10.9472C17.1269 11.4629 17.4167 12.1624 17.4167 12.8918V14.7251Z" fill="#1B8392"/>
    <path d="M9.16666 6.47444C9.67292 6.47444 10.0833 6.06404 10.0833 5.55778C10.0833 5.05152 9.67292 4.64111 9.16666 4.64111C8.6604 4.64111 8.25 5.05152 8.25 5.55778C8.25 6.06404 8.6604 6.47444 9.16666 6.47444Z" fill="#1B8392"/>
    <path d="M12.8332 6.47444C13.3394 6.47444 13.7498 6.06404 13.7498 5.55778C13.7498 5.05152 13.3394 4.64111 12.8332 4.64111C12.3269 4.64111 11.9165 5.05152 11.9165 5.55778C11.9165 6.06404 12.3269 6.47444 12.8332 6.47444Z" fill="#1B8392"/>
  </g>
  <defs>
    <clipPath id="clip0_8035_645">
      <rect width="22" height="22" fill="white" transform="translate(0 0.975098)"/>
    </clipPath>
  </defs>
</svg>