<svg width="16" height="15" viewBox="0 0 16 15" fill="none" xmlns="http://www.w3.org/2000/svg">
<path d="M12.4732 5.25414C12.4113 5.1986 12.3375 5.15452 12.2563 5.12443C12.175 5.09435 12.0879 5.07886 11.9999 5.07886C11.9119 5.07886 11.8248 5.09435 11.7435 5.12443C11.6623 5.15452 11.5885 5.1986 11.5266 5.25414L8.47323 7.96821C8.41125 8.02376 8.33752 8.06784 8.25628 8.09793C8.17504 8.12801 8.0879 8.1435 7.9999 8.1435C7.91189 8.1435 7.82475 8.12801 7.74351 8.09793C7.66227 8.06784 7.58854 8.02376 7.52656 7.96821L4.47323 5.25414C4.41126 5.1986 4.33752 5.15452 4.25628 5.12443C4.17504 5.09435 4.08791 5.07886 3.9999 5.07886C3.91189 5.07886 3.82475 5.09435 3.74351 5.12443C3.66227 5.15452 3.58854 5.1986 3.52656 5.25414C3.4024 5.36517 3.3327 5.51537 3.3327 5.67192C3.3327 5.82848 3.4024 5.97867 3.52656 6.0897L6.58656 8.80969C6.96156 9.14261 7.46989 9.32961 7.9999 9.32961C8.5299 9.32961 9.03823 9.14261 9.41323 8.80969L12.4732 6.0897C12.5974 5.97867 12.6671 5.82848 12.6671 5.67192C12.6671 5.51537 12.5974 5.36517 12.4732 5.25414Z" fill="#1B8392"/>
</svg>
