<svg width="16" height="17" viewBox="0 0 16 17" fill="none" xmlns="http://www.w3.org/2000/svg">
<path d="M7.4853 1.34096C7.8319 0.985516 8.24562 0.702432 8.70247 0.508128C9.15933 0.313824 9.65021 0.212169 10.1467 0.209058C10.6431 0.205947 11.1352 0.301444 11.5945 0.490008C12.0537 0.678572 12.471 0.956449 12.822 1.30752C13.173 1.65859 13.4508 2.07587 13.6393 2.53515C13.8278 2.99443 13.9233 3.48656 13.9201 3.98301C13.9169 4.47946 13.8152 4.97033 13.6208 5.42715C13.4264 5.88398 13.1433 6.29766 12.7878 6.64421L6.95505 12.4777C6.74677 12.6895 6.49863 12.8579 6.22493 12.9732C5.95124 13.0886 5.65741 13.1487 5.3604 13.1499C5.06338 13.1511 4.76906 13.0936 4.49441 12.9805C4.21976 12.8674 3.97021 12.7011 3.76017 12.4911C3.55012 12.2811 3.38373 12.0316 3.27059 11.757C3.15746 11.4823 3.09981 11.188 3.10099 10.891C3.10216 10.594 3.16213 10.3002 3.27744 10.0264C3.39274 9.75272 3.5611 9.50454 3.7728 9.29621L9.6063 3.46271L10.6668 4.52321L4.8333 10.3567C4.76167 10.4259 4.70453 10.5087 4.66522 10.6002C4.62592 10.6917 4.60523 10.7901 4.60436 10.8897C4.6035 10.9892 4.62247 11.088 4.66018 11.1802C4.69789 11.2723 4.75358 11.3561 4.824 11.4265C4.89442 11.4969 4.97816 11.5526 5.07033 11.5903C5.16251 11.628 5.26127 11.647 5.36085 11.6461C5.46043 11.6453 5.55885 11.6246 5.65035 11.5853C5.74186 11.546 5.82461 11.4888 5.8938 11.4172L11.7281 5.58371C11.937 5.37476 12.1027 5.1267 12.2158 4.85369C12.3289 4.58069 12.3871 4.28808 12.3871 3.99258C12.3871 3.69708 12.3289 3.40448 12.2158 3.13147C12.1027 2.85847 11.937 2.61041 11.7281 2.40146C11.5191 2.19251 11.271 2.02676 10.998 1.91368C10.725 1.8006 10.4324 1.74239 10.1369 1.74239C9.84142 1.74239 9.54882 1.8006 9.27581 1.91368C9.00281 2.02676 8.75475 2.19251 8.5458 2.40146L2.7123 8.23571C2.02921 8.94297 1.65123 9.89023 1.65977 10.8735C1.66832 11.8567 2.0627 12.7972 2.75798 13.4925C3.45326 14.1878 4.39381 14.5822 5.37704 14.5907C6.36028 14.5993 7.30754 14.2213 8.0148 13.5382L14.3793 7.17446L15.4398 8.23571L9.07605 14.5995C8.09143 15.5841 6.75601 16.1372 5.36355 16.1372C3.97109 16.1372 2.63567 15.5841 1.65105 14.5995C0.666433 13.6148 0.113281 12.2794 0.113281 10.887C0.113281 9.4945 0.666433 8.15908 1.65105 7.17446L7.4853 1.34096Z" fill="#177C9A"/>
</svg>
