<svg xmlns="http://www.w3.org/2000/svg" width="22" height="23" viewBox="0 0 22 23" fill="none">
  <g clip-path="url(#clip0_8088_647)">
    <path d="M22 21.6582C22 21.9013 21.9034 22.1345 21.7315 22.3064C21.5596 22.4783 21.3265 22.5749 21.0833 22.5749H0.916679C0.673564 22.5749 0.440406 22.4783 0.268498 22.3064C0.0965895 22.1345 1.23993e-05 21.9013 1.23993e-05 21.6582C1.23993e-05 21.4151 0.0965895 21.1819 0.268498 21.01C0.440406 20.8381 0.673564 20.7416 0.916679 20.7416H21.0833C21.3265 20.7416 21.5596 20.8381 21.7315 21.01C21.9034 21.1819 22 21.4151 22 21.6582ZM0.266762 8.41421C0.0692412 8.04784 -0.0222675 7.63368 0.00250612 7.21819C0.0272798 6.80271 0.167355 6.40235 0.407012 6.06205C0.798666 5.4874 1.32317 5.01573 1.93601 4.68705L8.81193 1.10838C9.48775 0.756958 10.2383 0.573486 11 0.573486C11.7617 0.573486 12.5123 0.756958 13.1881 1.10838L20.0631 4.6898C20.6759 5.01848 21.2004 5.49015 21.5921 6.0648C21.8318 6.4051 21.9718 6.80546 21.9966 7.22094C22.0214 7.63643 21.9299 8.0506 21.7323 8.41696C21.5197 8.81922 21.2008 9.15543 20.8103 9.38899C20.4198 9.62254 19.9727 9.74449 19.5177 9.74155H19.25V17.0749H20.1667C20.4098 17.0749 20.643 17.1715 20.8149 17.3434C20.9868 17.5153 21.0833 17.7484 21.0833 17.9915C21.0833 18.2347 20.9868 18.4678 20.8149 18.6397C20.643 18.8116 20.4098 18.9082 20.1667 18.9082H1.83335C1.59023 18.9082 1.35707 18.8116 1.18516 18.6397C1.01326 18.4678 0.916679 18.2347 0.916679 17.9915C0.916679 17.7484 1.01326 17.5153 1.18516 17.3434C1.35707 17.1715 1.59023 17.0749 1.83335 17.0749H2.75001V9.74155H2.48235C2.02691 9.74439 1.57943 9.62211 1.18874 9.38805C0.798036 9.15399 0.479116 8.81713 0.266762 8.41421ZM4.58335 17.0749H7.33335V9.74155H4.58335V17.0749ZM9.16668 9.74155V17.0749H12.8333V9.74155H9.16668ZM17.4167 9.74155H14.6667V17.0749H17.4167V9.74155ZM1.8911 7.56446C1.94861 7.6705 2.0342 7.75867 2.13849 7.8193C2.24278 7.87993 2.36174 7.91069 2.48235 7.90821H19.5177C19.6383 7.91069 19.7572 7.87993 19.8615 7.8193C19.9658 7.75867 20.0514 7.6705 20.1089 7.56446C20.1508 7.4944 20.1711 7.41352 20.1672 7.33197C20.1633 7.25043 20.1353 7.17186 20.0869 7.10613C19.8648 6.77605 19.5664 6.50438 19.217 6.31413L12.342 2.73271C11.9277 2.51769 11.4677 2.40544 11.0009 2.40544C10.5341 2.40544 10.0742 2.51769 9.65985 2.73271L2.78485 6.31413C2.43558 6.50499 2.13725 6.77692 1.91493 7.10705C1.86643 7.1725 1.8383 7.25081 1.83406 7.33216C1.82982 7.41352 1.84966 7.49432 1.8911 7.56446Z" fill="#99C6D3"/>
  </g>
  <defs>
    <clipPath id="clip0_8088_647">
      <rect width="22" height="22" fill="white" transform="translate(0 0.574951)"/>
    </clipPath>
  </defs>
</svg>