<svg xmlns="http://www.w3.org/2000/svg" width="22" height="23" viewBox="0 0 22 23" fill="none">
  <g clip-path="url(#clip0_8035_634)">
    <path d="M18.2874 5.15001L15.0919 1.95451C14.4975 1.35691 13.7905 0.883128 13.0118 0.560571C12.2331 0.238014 11.3982 0.0730894 10.5553 0.0753401H6.41659C5.20146 0.0767956 4.03651 0.560149 3.17729 1.41938C2.31806 2.2786 1.83471 3.44354 1.83325 4.65867V17.492C1.83471 18.7071 2.31806 19.8721 3.17729 20.7313C4.03651 21.5905 5.20146 22.0739 6.41659 22.0753H15.5833C16.7984 22.0739 17.9633 21.5905 18.8226 20.7313C19.6818 19.8721 20.1651 18.7071 20.1666 17.492V9.68659C20.1688 8.84373 20.0039 8.00879 19.6814 7.23009C19.3588 6.4514 18.885 5.74439 18.2874 5.15001ZM16.9913 6.44617C17.2709 6.73438 17.5116 7.05797 17.7072 7.40867H13.7499C13.5068 7.40867 13.2736 7.3121 13.1017 7.14019C12.9298 6.96828 12.8333 6.73512 12.8333 6.49201V2.53476C13.184 2.73036 13.5075 2.97104 13.7958 3.25067L16.9913 6.44617ZM18.3333 17.492C18.3333 18.2214 18.0435 18.9208 17.5278 19.4366C17.0121 19.9523 16.3126 20.242 15.5833 20.242H6.41659C5.68724 20.242 4.98777 19.9523 4.47204 19.4366C3.95632 18.9208 3.66659 18.2214 3.66659 17.492V4.65867C3.66659 3.92933 3.95632 3.22986 4.47204 2.71413C4.98777 2.19841 5.68724 1.90867 6.41659 1.90867H10.5553C10.7066 1.90867 10.8514 1.93801 10.9999 1.95176V6.49201C10.9999 7.22135 11.2896 7.92083 11.8054 8.43655C12.3211 8.95228 13.0206 9.24201 13.7499 9.24201H18.2902C18.3039 9.39051 18.3333 9.53534 18.3333 9.68659V17.492ZM15.3303 12.2771C15.4976 12.4532 15.5883 12.6885 15.5823 12.9314C15.5762 13.1742 15.4741 13.4048 15.2982 13.5723L12.0083 16.7018C11.4911 17.2108 10.7937 17.4948 10.0681 17.4919C9.34251 17.489 8.64745 17.1994 8.13442 16.6863L6.72275 15.4268C6.54115 15.2648 6.4313 15.0374 6.41737 14.7945C6.41048 14.6742 6.42734 14.5538 6.467 14.44C6.50665 14.3263 6.56833 14.2214 6.6485 14.1315C6.72867 14.0416 6.82577 13.9683 6.93425 13.9159C7.04274 13.8635 7.16047 13.833 7.28075 13.8261C7.52366 13.8122 7.76215 13.8953 7.94375 14.0573L9.39667 15.3534C9.47984 15.4468 9.58125 15.5222 9.69466 15.575C9.80806 15.6277 9.93106 15.6567 10.0561 15.6601C10.1811 15.6636 10.3055 15.6414 10.4216 15.5949C10.5378 15.5485 10.6432 15.4788 10.7313 15.3901L14.0313 12.245C14.1186 12.1616 14.2215 12.0962 14.3341 12.0526C14.4467 12.0091 14.5668 11.9882 14.6875 11.9912C14.8082 11.9941 14.9271 12.0209 15.0374 12.07C15.1477 12.1191 15.2472 12.1895 15.3303 12.2771Z" fill="#1B8392"/>
  </g>
  <defs>
    <clipPath id="clip0_8035_634">
      <rect width="22" height="22" fill="white" transform="translate(0 0.0749512)"/>
    </clipPath>
  </defs>
</svg>