<svg width="27" height="27" viewBox="0 0 27 27" fill="none" xmlns="http://www.w3.org/2000/svg">
<path fill-rule="evenodd" clip-rule="evenodd" d="M0.508057 13.5C0.508057 9.98697 1.90361 6.6178 4.38772 4.13369C6.87183 1.64959 10.241 0.254028 13.7541 0.254028C17.2671 0.254028 20.6363 1.64959 23.1204 4.13369C25.6045 6.6178 27.0001 9.98697 27.0001 13.5C27.0001 17.0131 25.6045 20.3823 23.1204 22.8664C20.6363 25.3505 17.2671 26.746 13.7541 26.746C10.241 26.746 6.87183 25.3505 4.38772 22.8664C1.90361 20.3823 0.508057 17.0131 0.508057 13.5ZM13.7541 2.15403C10.7449 2.15403 7.85901 3.34941 5.73122 5.47719C3.60344 7.60498 2.40806 10.4909 2.40806 13.5C2.40806 16.5092 3.60344 19.3951 5.73122 21.5229C7.85901 23.6507 10.7449 24.846 13.7541 24.846C16.7632 24.846 19.6491 23.6507 21.7769 21.5229C23.9047 19.3951 25.1001 16.5092 25.1001 13.5C25.1001 10.4909 23.9047 7.60498 21.7769 5.47719C19.6491 3.34941 16.7632 2.15403 13.7541 2.15403ZM18.4621 8.79403C18.6495 8.98156 18.7548 9.23586 18.7548 9.50103C18.7548 9.76619 18.6495 10.0205 18.4621 10.208L15.1681 13.5L18.4621 16.792C18.6498 16.9798 18.7553 17.2345 18.7553 17.5C18.7553 17.7656 18.6498 18.0203 18.4621 18.208C18.2743 18.3958 18.0196 18.5013 17.7541 18.5013C17.4885 18.5013 17.2338 18.3958 17.0461 18.208L13.7541 14.914L10.4621 18.208C10.3691 18.301 10.2587 18.3748 10.1372 18.4251C10.0157 18.4754 9.88554 18.5013 9.75406 18.5013C9.62257 18.5013 9.49237 18.4754 9.37089 18.4251C9.24941 18.3748 9.13903 18.301 9.04606 18.208C8.95308 18.1151 8.87933 18.0047 8.82901 17.8832C8.77869 17.7617 8.75279 17.6315 8.75279 17.5C8.75279 17.3685 8.77869 17.2383 8.82901 17.1169C8.87933 16.9954 8.95308 16.885 9.04606 16.792L12.3401 13.5L9.04606 10.208C8.85828 10.0203 8.75279 9.76558 8.75279 9.50003C8.75279 9.23448 8.85828 8.9798 9.04606 8.79203C9.23383 8.60425 9.48851 8.49876 9.75406 8.49876C10.0196 8.49876 10.2743 8.60425 10.4621 8.79203L13.7541 12.086L17.0461 8.79203C17.1389 8.6989 17.2493 8.62502 17.3708 8.5746C17.4923 8.52419 17.6225 8.49824 17.7541 8.49824C17.8856 8.49824 18.0158 8.52419 18.1373 8.5746C18.2588 8.62502 18.3692 8.7009 18.4621 8.79403Z" fill="#D9D9D9"/>
</svg>
