<svg width="17" height="18" viewBox="0 0 17 18" fill="none" xmlns="http://www.w3.org/2000/svg">
<g clip-path="url(#clip0_249_2228)">
<path d="M13.2148 1.15891L4.57876 9.79491C4.24892 10.123 3.98743 10.5132 3.80943 10.943C3.63143 11.3728 3.54045 11.8337 3.54176 12.2989V13.2502C3.54176 13.438 3.61639 13.6182 3.74923 13.751C3.88207 13.8839 4.06223 13.9585 4.2501 13.9585H5.20139C5.66659 13.9598 6.12744 13.8688 6.55725 13.6908C6.98706 13.5128 7.37729 13.2513 7.70535 12.9215L16.3413 4.28549C16.7553 3.87053 16.9878 3.30833 16.9878 2.7222C16.9878 2.13607 16.7553 1.57387 16.3413 1.15891C15.9204 0.756502 15.3604 0.531929 14.7781 0.531929C14.1957 0.531929 13.6357 0.756502 13.2148 1.15891ZM15.3398 3.28391L6.70376 11.9199C6.30435 12.3169 5.76452 12.5404 5.20139 12.5418H4.95843V12.2989C4.9599 11.7357 5.18337 11.1959 5.58035 10.7965L14.2163 2.16049C14.3676 2.01596 14.5688 1.93531 14.7781 1.93531C14.9873 1.93531 15.1885 2.01596 15.3398 2.16049C15.4885 2.30961 15.572 2.51161 15.572 2.7222C15.572 2.9328 15.4885 3.1348 15.3398 3.28391Z" fill="#727272"/>
<path d="M16.2917 6.86013C16.1038 6.86013 15.9236 6.93475 15.7908 7.06759C15.658 7.20043 15.5833 7.3806 15.5833 7.56846V11.125H12.75C12.1864 11.125 11.6459 11.3489 11.2474 11.7474C10.8489 12.1459 10.625 12.6864 10.625 13.25V16.0833H3.54167C2.97808 16.0833 2.43758 15.8595 2.03906 15.4609C1.64055 15.0624 1.41667 14.5219 1.41667 13.9583V4.04167C1.41667 3.47808 1.64055 2.93758 2.03906 2.53906C2.43758 2.14055 2.97808 1.91667 3.54167 1.91667H9.94642C10.1343 1.91667 10.3144 1.84204 10.4473 1.7092C10.5801 1.57636 10.6548 1.3962 10.6548 1.20833C10.6548 1.02047 10.5801 0.840304 10.4473 0.707466C10.3144 0.574628 10.1343 0.5 9.94642 0.5H3.54167C2.6027 0.501125 1.70252 0.874625 1.03857 1.53857C0.374625 2.20252 0.00112473 3.1027 0 4.04167L0 13.9583C0.00112473 14.8973 0.374625 15.7975 1.03857 16.4614C1.70252 17.1254 2.6027 17.4989 3.54167 17.5H11.5763C12.0416 17.5013 12.5026 17.4104 12.9325 17.2324C13.3624 17.0544 13.7528 16.7929 14.081 16.463L15.9623 14.5803C16.2922 14.2522 16.5538 13.862 16.7319 13.4322C16.91 13.0024 17.0011 12.5415 17 12.0763V7.56846C17 7.3806 16.9254 7.20043 16.7925 7.06759C16.6597 6.93475 16.4795 6.86013 16.2917 6.86013ZM13.0794 15.4614C12.7946 15.7455 12.4346 15.9421 12.0417 16.0281V13.25C12.0417 13.0621 12.1163 12.882 12.2491 12.7491C12.382 12.6163 12.5621 12.5417 12.75 12.5417H15.5302C15.4426 12.9337 15.2462 13.2932 14.9635 13.5787L13.0794 15.4614Z" fill="#727272"/>
</g>
<defs>
<clipPath id="clip0_249_2228">
<rect width="17" height="17" fill="white" transform="translate(0 0.5)"/>
</clipPath>
</defs>
</svg>
