<svg width="80" height="80" viewBox="0 0 80 80" fill="none" xmlns="http://www.w3.org/2000/svg">
<path d="M61.836 31.966H60.48V25.424C60.4789 25.3825 60.4749 25.341 60.468 25.3C60.4699 25.0372 60.376 24.7827 60.204 24.584L49.32 12.15L49.312 12.142C49.2468 12.0716 49.1728 12.0098 49.092 11.958L49.02 11.914C48.9509 11.8756 48.8778 11.8447 48.802 11.822L48.742 11.802C48.6589 11.7813 48.5736 11.7706 48.488 11.77H21.734C20.512 11.77 19.52 12.764 19.52 13.984V31.964H18.164C16.416 31.964 15 33.38 15 35.128V51.584C15 53.33 16.418 54.748 18.164 54.748H19.52V66.012C19.52 67.232 20.512 68.226 21.734 68.226H58.266C59.486 68.226 60.48 67.232 60.48 66.012V54.748H61.836C63.582 54.748 65 53.332 65 51.584V35.128C65 33.382 63.584 31.966 61.836 31.966ZM21.734 13.984H47.38V25.312C47.38 25.924 47.876 26.418 48.488 26.418H58.268V31.964H21.734V13.984ZM38.298 44.32C35.61 43.36 33.836 41.872 33.836 39.522C33.836 36.764 36.164 34.678 39.954 34.678C41.802 34.678 43.12 35.038 44.08 35.492L43.264 38.418C42.2182 37.9087 41.0693 37.6466 39.906 37.652C38.322 37.652 37.554 38.394 37.554 39.21C37.554 40.242 38.44 40.696 40.552 41.488C43.408 42.544 44.726 44.03 44.726 46.31C44.726 49.022 42.664 51.324 38.226 51.324C36.378 51.324 34.556 50.82 33.644 50.316L34.388 47.318C35.6439 47.9593 37.03 48.3041 38.44 48.326C40.12 48.326 41.008 47.628 41.008 46.574C41.008 45.566 40.242 44.992 38.298 44.32ZM19.246 43.216C19.246 37.722 23.18 34.676 28.072 34.676C29.968 34.676 31.406 35.058 32.054 35.372L31.286 38.274C30.3145 37.8661 29.2696 37.6619 28.216 37.674C25.338 37.674 23.084 39.424 23.084 43.022C23.084 46.236 25.002 48.276 28.24 48.276C29.368 48.276 30.568 48.062 31.31 47.748L31.84 50.626C31.192 50.936 29.656 51.322 27.714 51.322C22.124 51.324 19.246 47.822 19.246 43.216ZM58.266 65.416H21.734V54.75H58.266V65.416ZM55.31 51.084H51.04L45.86 34.916H49.866L51.832 41.754C52.382 43.696 52.886 45.52 53.27 47.534H53.342C53.751 45.6121 54.2387 43.7079 54.804 41.826L56.868 34.918H60.752L55.31 51.084Z" fill="#99C6D3"/>
</svg>
