<svg width="22" height="23" viewBox="0 0 22 23" fill="none" xmlns="http://www.w3.org/2000/svg">
<g clip-path="url(#clip0_8035_622)">
<path d="M21.1945 9.03817L14.2416 2.08433C13.3811 1.22632 12.2154 0.744507 11.0003 0.744507C9.78507 0.744507 8.61945 1.22632 7.75892 2.08433L0.806005 9.03817C0.549729 9.2928 0.346544 9.59577 0.208231 9.92952C0.0699174 10.2633 -0.000773727 10.6211 0.000255213 10.9824V19.9813C0.000255213 20.7107 0.289987 21.4102 0.805712 21.9259C1.32144 22.4416 2.02091 22.7313 2.75026 22.7313H19.2503C19.9796 22.7313 20.6791 22.4416 21.1948 21.9259C21.7105 21.4102 22.0003 20.7107 22.0003 19.9813V10.9824C22.0013 10.6211 21.9306 10.2633 21.7923 9.92952C21.654 9.59577 21.4508 9.2928 21.1945 9.03817ZM13.7503 20.898H8.25026V17.2918C8.25026 16.5625 8.53999 15.863 9.05571 15.3473C9.57144 14.8316 10.2709 14.5418 11.0003 14.5418C11.7296 14.5418 12.4291 14.8316 12.9448 15.3473C13.4605 15.863 13.7503 16.5625 13.7503 17.2918V20.898ZM20.1669 19.9813C20.1669 20.2244 20.0703 20.4576 19.8984 20.6295C19.7265 20.8014 19.4934 20.898 19.2503 20.898H15.5836V17.2918C15.5836 16.0763 15.1007 14.9105 14.2412 14.0509C13.3816 13.1914 12.2158 12.7085 11.0003 12.7085C9.78468 12.7085 8.61889 13.1914 7.75935 14.0509C6.89981 14.9105 6.41692 16.0763 6.41692 17.2918V20.898H2.75026C2.50714 20.898 2.27398 20.8014 2.10207 20.6295C1.93017 20.4576 1.83359 20.2244 1.83359 19.9813V10.9824C1.83444 10.7395 1.93093 10.5067 2.10217 10.3343L9.05509 3.38325C9.57182 2.86893 10.2712 2.58019 11.0003 2.58019C11.7293 2.58019 12.4287 2.86893 12.9454 3.38325L19.8983 10.3371C20.0689 10.5087 20.1654 10.7404 20.1669 10.9824V19.9813Z" fill="#1B8392"/>
</g>
<defs>
<clipPath id="clip0_8035_622">
<rect width="22" height="22" fill="white" transform="translate(0 0.724976)"/>
</clipPath>
</defs>
</svg>
