<svg xmlns="http://www.w3.org/2000/svg" width="22" height="23" viewBox="0 0 22 23" fill="none">
  <g clip-path="url(#clip0_8035_626)">
    <path d="M11 9.34159C10.2707 9.34159 9.57118 9.05186 9.05546 8.53614C8.53973 8.02041 8.25 7.32094 8.25 6.59159C8.25 5.86225 8.53973 5.16277 9.05546 4.64705C9.57118 4.13132 10.2707 3.84159 11 3.84159C11.7293 3.84159 12.4288 4.13132 12.9445 4.64705C13.4603 5.16277 13.75 5.86225 13.75 6.59159C13.75 7.32094 13.4603 8.02041 12.9445 8.53614C12.4288 9.05186 11.7293 9.34159 11 9.34159ZM8.22067 14.1532C8.40917 13.5643 8.77989 13.0504 9.27936 12.6859C9.77882 12.3213 10.3812 12.1249 10.9995 12.1249C11.6179 12.1249 12.2203 12.3213 12.7197 12.6859C13.2192 13.0504 13.5899 13.5643 13.7784 14.1532C13.8392 14.3888 13.9911 14.5905 14.2006 14.7141C14.4102 14.8377 14.6603 14.873 14.8958 14.8123C15.1314 14.7515 15.3332 14.5996 15.4568 14.3901C15.5804 14.1805 15.6157 13.9304 15.5549 13.6948C14.3532 9.16009 7.64408 9.16193 6.446 13.6948C6.41291 13.8123 6.40361 13.9352 6.41866 14.0564C6.43371 14.1775 6.47279 14.2944 6.53363 14.4002C6.59446 14.5061 6.67582 14.5987 6.77292 14.6726C6.87003 14.7466 6.98093 14.8004 7.09911 14.8309C7.2173 14.8614 7.34038 14.8681 7.46116 14.8504C7.58193 14.8327 7.69796 14.791 7.80242 14.7279C7.90689 14.6648 7.9977 14.5814 8.06952 14.4827C8.14134 14.384 8.19273 14.272 8.22067 14.1532ZM11.0083 21.8678C10.556 21.8681 10.1195 21.702 9.78175 21.4013L6.34608 18.5083H3.66667C2.69421 18.5083 1.76158 18.122 1.07394 17.4343C0.386308 16.7467 0 15.8141 0 14.8416V3.84159C0 2.86913 0.386308 1.9365 1.07394 1.24887C1.76158 0.561235 2.69421 0.174927 3.66667 0.174927L18.3333 0.174927C19.3058 0.174927 20.2384 0.561235 20.9261 1.24887C21.6137 1.9365 22 2.86913 22 3.84159V14.8416C22 15.8141 21.6137 16.7467 20.9261 17.4343C20.2384 18.122 19.3058 18.5083 18.3333 18.5083H15.7181L12.1917 21.4233C11.865 21.7114 11.4439 21.8696 11.0083 21.8678ZM3.66667 2.00826C3.18044 2.00826 2.71412 2.20141 2.3703 2.54523C2.02649 2.88905 1.83333 3.35536 1.83333 3.84159V14.8416C1.83333 15.3278 2.02649 15.7941 2.3703 16.138C2.71412 16.4818 3.18044 16.6749 3.66667 16.6749H6.68158C6.8976 16.6749 7.10667 16.7512 7.27192 16.8903L10.9808 20.0162L14.8051 16.8848C14.9694 16.7491 15.1759 16.6749 15.389 16.6749H18.3333C18.8196 16.6749 19.2859 16.4818 19.6297 16.138C19.9735 15.7941 20.1667 15.3278 20.1667 14.8416V3.84159C20.1667 3.35536 19.9735 2.88905 19.6297 2.54523C19.2859 2.20141 18.8196 2.00826 18.3333 2.00826H3.66667Z" fill="#F3F6F7"/>
  </g>
  <defs>
    <clipPath id="clip0_8035_626">
      <rect width="22" height="22" fill="white" transform="translate(0 0.174927)"/>
    </clipPath>
  </defs>
</svg>