<svg xmlns="http://www.w3.org/2000/svg" width="22" height="23" viewBox="0 0 22 23" fill="none">
  <g clip-path="url(#clip0_8035_638)">
    <path d="M17.4167 2.35848H16.5V1.44181C16.5 1.1987 16.4034 0.96554 16.2315 0.793632C16.0596 0.621724 15.8264 0.525146 15.5833 0.525146C15.3402 0.525146 15.1071 0.621724 14.9352 0.793632C14.7632 0.96554 14.6667 1.1987 14.6667 1.44181V2.35848H7.33333V1.44181C7.33333 1.1987 7.23676 0.96554 7.06485 0.793632C6.89294 0.621724 6.65978 0.525146 6.41667 0.525146C6.17355 0.525146 5.94039 0.621724 5.76849 0.793632C5.59658 0.96554 5.5 1.1987 5.5 1.44181V2.35848H4.58333C3.3682 2.35994 2.20326 2.84329 1.34403 3.70251C0.484808 4.56174 0.00145554 5.72668 0 6.94181L0 17.9418C0.00145554 19.1569 0.484808 20.3219 1.34403 21.1811C2.20326 22.0403 3.3682 22.5237 4.58333 22.5251H17.4167C18.6318 22.5237 19.7967 22.0403 20.656 21.1811C21.5152 20.3219 21.9985 19.1569 22 17.9418V6.94181C21.9985 5.72668 21.5152 4.56174 20.656 3.70251C19.7967 2.84329 18.6318 2.35994 17.4167 2.35848ZM1.83333 6.94181C1.83333 6.21247 2.12306 5.51299 2.63879 4.99727C3.15451 4.48154 3.85399 4.19181 4.58333 4.19181H17.4167C18.146 4.19181 18.8455 4.48154 19.3612 4.99727C19.8769 5.51299 20.1667 6.21247 20.1667 6.94181V7.85848H1.83333V6.94181ZM17.4167 20.6918H4.58333C3.85399 20.6918 3.15451 20.4021 2.63879 19.8864C2.12306 19.3706 1.83333 18.6712 1.83333 17.9418V9.69181H20.1667V17.9418C20.1667 18.6712 19.8769 19.3706 19.3612 19.8864C18.8455 20.4021 18.146 20.6918 17.4167 20.6918Z" fill="#F3F6F7"/>
    <path d="M11 15.6501C11.7594 15.6501 12.375 15.0345 12.375 14.2751C12.375 13.5158 11.7594 12.9001 11 12.9001C10.2406 12.9001 9.625 13.5158 9.625 14.2751C9.625 15.0345 10.2406 15.6501 11 15.6501Z" fill="#F3F6F7"/>
    <path d="M6.4165 15.6501C7.1759 15.6501 7.7915 15.0345 7.7915 14.2751C7.7915 13.5158 7.1759 12.9001 6.4165 12.9001C5.65711 12.9001 5.0415 13.5158 5.0415 14.2751C5.0415 15.0345 5.65711 15.6501 6.4165 15.6501Z" fill="#F3F6F7"/>
    <path d="M15.5835 15.6501C16.3429 15.6501 16.9585 15.0345 16.9585 14.2751C16.9585 13.5158 16.3429 12.9001 15.5835 12.9001C14.8241 12.9001 14.2085 13.5158 14.2085 14.2751C14.2085 15.0345 14.8241 15.6501 15.5835 15.6501Z" fill="#F3F6F7"/>
  </g>
  <defs>
    <clipPath id="clip0_8035_638">
      <rect width="22" height="22" fill="white" transform="translate(0 0.525146)"/>
    </clipPath>
  </defs>
</svg>