<svg width="20" height="20" viewBox="0 0 20 20" fill="none" xmlns="http://www.w3.org/2000/svg">
<g id="Document Download 1">
<g id="Vector">
<path d="M9.75 7C9.75 6.58579 9.41421 6.25 9 6.25C8.58579 6.25 8.25 6.58579 8.25 7V13.9362C8.23578 13.9251 8.22128 13.9137 8.20649 13.9018C7.88386 13.6427 7.50033 13.2573 6.93054 12.6824L5.53269 11.272C5.24111 10.9778 4.76624 10.9757 4.47204 11.2673C4.17784 11.5589 4.17573 12.0338 4.46731 12.328L5.89566 13.7691C6.42703 14.3053 6.87023 14.7525 7.26724 15.0713C7.68366 15.4057 8.12131 15.6601 8.6545 15.7281C8.88392 15.7573 9.11608 15.7573 9.34549 15.7281C9.87869 15.6601 10.3163 15.4057 10.7328 15.0713C11.1298 14.7525 11.573 14.3053 12.1044 13.7691L13.5327 12.328C13.8243 12.0338 13.8222 11.5589 13.528 11.2673C13.2338 10.9757 12.7589 10.9778 12.4673 11.272L11.0695 12.6824C10.4997 13.2573 10.1161 13.6427 9.79351 13.9018C9.77872 13.9137 9.76422 13.9251 9.75 13.9362V7Z" fill="white"/>
<path fill-rule="evenodd" clip-rule="evenodd" d="M13.0257 0.279369C12.1685 0.25 11.1711 0.25 10.0111 0.25H9.95475C8.11821 0.249992 6.67861 0.249985 5.53648 0.373728C4.37094 0.500006 3.42656 0.762324 2.62024 1.34815C2.13209 1.70281 1.70281 2.13209 1.34815 2.62024C0.762324 3.42656 0.500006 4.37094 0.373728 5.53648C0.249985 6.67861 0.249992 8.11821 0.25 9.95475V10.0452C0.249992 11.8818 0.249985 13.3214 0.373728 14.4635C0.500006 15.6291 0.762324 16.5734 1.34815 17.3798C1.70281 17.8679 2.13209 18.2972 2.62024 18.6518C3.42656 19.2377 4.37094 19.5 5.53648 19.6263C6.67859 19.75 8.11817 19.75 9.95465 19.75H10.0453C11.8818 19.75 13.3214 19.75 14.4635 19.6263C15.6291 19.5 16.5734 19.2377 17.3798 18.6518C17.8679 18.2972 18.2972 17.8679 18.6518 17.3798C19.2377 16.5734 19.5 15.6291 19.6263 14.4635C19.75 13.3214 19.75 11.8818 19.75 10.0453V9.98899C19.75 8.82891 19.75 7.83153 19.7206 6.97432C19.6564 5.10087 19.4537 3.7239 18.6518 2.62024C18.2972 2.13209 17.8679 1.70281 17.3798 1.34815C16.2761 0.546296 14.8991 0.343555 13.0257 0.279369ZM3.50191 2.56168C4.00992 2.19259 4.66013 1.97745 5.69804 1.865C6.74999 1.75103 8.10843 1.75 10 1.75C10.8483 1.75 11.5918 1.75005 12.2518 1.76082C12.2562 2.23547 12.271 2.58489 12.3208 2.8995C12.7105 5.35988 14.6401 7.28952 17.1005 7.67921C17.4151 7.72904 17.7645 7.74381 18.2392 7.74818C18.25 8.40822 18.25 9.15165 18.25 10C18.25 11.8916 18.249 13.25 18.135 14.302C18.0225 15.3399 17.8074 15.9901 17.4383 16.4981C17.1762 16.8589 16.8589 17.1762 16.4981 17.4383C15.9901 17.8074 15.3399 18.0225 14.302 18.135C13.25 18.249 11.8916 18.25 10 18.25C8.10843 18.25 6.74999 18.249 5.69804 18.135C4.66013 18.0225 4.00992 17.8074 3.50191 17.4383C3.14111 17.1762 2.82382 16.8589 2.56168 16.4981C2.19259 15.9901 1.97745 15.3399 1.865 14.302C1.75103 13.25 1.75 11.8916 1.75 10C1.75 8.10843 1.75103 6.74999 1.865 5.69804C1.97745 4.66013 2.19259 4.00992 2.56168 3.50191C2.82382 3.14111 3.14111 2.82382 3.50191 2.56168ZM13.8023 2.66485C13.7699 2.45981 13.7575 2.22238 13.7528 1.81744C15.1131 1.91121 15.8986 2.12615 16.4981 2.56168C16.8589 2.82382 17.1762 3.14111 17.4383 3.50191C17.8738 4.10137 18.0888 4.88688 18.1826 6.24722C17.7776 6.24254 17.5402 6.23015 17.3352 6.19768C15.5166 5.90965 14.0904 4.48339 13.8023 2.66485Z" fill="white"/>
</g>
</g>
</svg>
