<svg width="25" height="26" viewBox="0 0 25 26" fill="none" xmlns="http://www.w3.org/2000/svg">
<path d="M20.187 0.84375C19.6461 0.84506 19.1109 0.953452 18.6121 1.16267C18.1133 1.37189 17.6609 1.6778 17.281 2.06275L1.468 17.8747L1.406 18.1877L0.312 23.6877L0 25.1557L1.469 24.8437L6.969 23.7497L7.281 23.6867L23.094 7.87475C23.48 7.49547 23.7865 7.04312 23.9958 6.5441C24.205 6.04508 24.3128 5.50937 24.3128 4.96825C24.3128 4.42713 24.205 3.89142 23.9958 3.3924C23.7865 2.89338 23.48 2.44103 23.094 2.06175C22.7139 1.67686 22.2613 1.37107 21.7623 1.16202C21.2634 0.952967 20.728 0.844797 20.187 0.84375ZM20.187 2.74975C20.691 2.74975 21.199 2.97975 21.687 3.46875C22.66 4.44075 22.66 5.49575 21.687 6.46875L20.969 7.15575L17.999 4.18675L18.687 3.46875C19.176 2.97975 19.683 2.74975 20.187 2.74975ZM16.594 5.59375L19.562 8.56275L7.469 20.6547C6.81615 19.3774 5.77678 18.3387 4.499 17.6867L16.594 5.59375ZM3.219 19.3127C3.81084 19.5508 4.34845 19.9061 4.79954 20.3572C5.25063 20.8083 5.6059 21.3459 5.844 21.9377L2.562 22.5937L3.219 19.3127Z" fill="#1B8392"/>
</svg>
