<svg xmlns="http://www.w3.org/2000/svg" width="24" height="24" viewBox="0 0 24 24" fill="#fff">
<g clip-path="url(#clip0_6966_14948)">
<path d="M23.9999 9.72357V18.9996C23.9983 20.3252 23.471 21.596 22.5337 22.5334C21.5964 23.4707 20.3255 23.998 18.9999 23.9996H17.9999C17.7347 23.9996 17.4803 23.8942 17.2928 23.7067C17.1053 23.5191 16.9999 23.2648 16.9999 22.9996C16.9999 22.7344 17.1053 22.48 17.2928 22.2925C17.4803 22.1049 17.7347 21.9996 17.9999 21.9996H18.9999C19.7956 21.9996 20.5586 21.6835 21.1212 21.1209C21.6838 20.5583 21.9999 19.7952 21.9999 18.9996V9.72357C21.9999 9.23249 21.8794 8.74891 21.6489 8.31528C21.4184 7.88166 21.085 7.51125 20.6779 7.23657L13.6779 2.51357C13.1833 2.17638 12.5985 1.99602 11.9999 1.99602C11.4013 1.99602 10.8165 2.17638 10.3219 2.51357L3.32191 7.23657C2.91483 7.51125 2.58141 7.88166 2.35091 8.31528C2.12041 8.74891 1.99988 9.23249 1.99991 9.72357V18.9996C1.99991 19.7952 2.31598 20.5583 2.87859 21.1209C3.4412 21.6835 4.20426 21.9996 4.99991 21.9996H5.99991C6.26513 21.9996 6.51948 22.1049 6.70702 22.2925C6.89456 22.48 6.99991 22.7344 6.99991 22.9996C6.99991 23.2648 6.89456 23.5191 6.70702 23.7067C6.51948 23.8942 6.26513 23.9996 5.99991 23.9996H4.99991C3.67432 23.998 2.40347 23.4707 1.46613 22.5334C0.528794 21.596 0.00150022 20.3252 -8.76357e-05 18.9996V9.72357C-0.00111251 8.90529 0.198991 8.0993 0.582617 7.37651C0.966242 6.65373 1.52163 6.0363 2.19991 5.57857L9.19991 0.85457C10.0252 0.294523 10.9996 -0.00488281 11.9969 -0.00488281C12.9943 -0.00488281 13.9687 0.294523 14.7939 0.85457L21.7939 5.57857C22.4729 6.03607 23.0291 6.65328 23.4137 7.37601C23.7984 8.09874 23.9997 8.90486 23.9999 9.72357ZM18.9999 15.0066C19.0025 15.9261 18.8226 16.8369 18.4707 17.6865C18.1188 18.536 17.6019 19.3072 16.9499 19.9556L13.4349 23.3936C13.0501 23.7661 12.5355 23.9744 11.9999 23.9744C11.4643 23.9744 10.9497 23.7661 10.5649 23.3936L7.05791 19.9636C6.24231 19.1505 5.6399 18.1488 5.3041 17.0472C4.9683 15.9456 4.90947 14.7782 5.13284 13.6484C5.35621 12.5186 5.85487 11.4614 6.58462 10.5705C7.31436 9.67956 8.25265 8.98244 9.3163 8.54094C10.3799 8.09943 11.5361 7.92717 12.6822 8.03942C13.8284 8.15168 14.9292 8.54499 15.8869 9.18448C16.8447 9.82397 17.6299 10.6899 18.1729 11.7055C18.7159 12.7211 19 13.8549 18.9999 15.0066ZM16.9999 15.0066C16.9999 14.1843 16.7972 13.3748 16.4096 12.6496C16.022 11.9245 15.4616 11.3061 14.7779 10.8493C14.0943 10.3924 13.3086 10.1112 12.4903 10.0306C11.672 9.94997 10.8465 10.0724 10.0868 10.387C9.32717 10.7016 8.65681 11.1987 8.13514 11.8342C7.61347 12.4697 7.25658 13.2241 7.09609 14.0306C6.9356 14.837 6.97645 15.6705 7.21504 16.4574C7.45363 17.2442 7.88259 17.9601 8.46391 18.5416L11.9639 21.9636L15.5439 18.5336C16.0075 18.071 16.3749 17.5211 16.6248 16.9158C16.8747 16.3104 17.0022 15.6615 16.9999 15.0066ZM14.9999 14.9996C14.9999 15.5929 14.824 16.1729 14.4943 16.6663C14.1647 17.1596 13.6961 17.5441 13.148 17.7712C12.5998 17.9983 11.9966 18.0577 11.4146 17.9419C10.8327 17.8262 10.2982 17.5405 9.87859 17.1209C9.45903 16.7013 9.17331 16.1668 9.05756 15.5848C8.9418 15.0029 9.00121 14.3997 9.22827 13.8515C9.45534 13.3033 9.83986 12.8348 10.3332 12.5052C10.8266 12.1755 11.4066 11.9996 11.9999 11.9996C12.7956 11.9996 13.5586 12.3156 14.1212 12.8783C14.6838 13.4409 14.9999 14.2039 14.9999 14.9996Z" fill="#374957"/>
</g>
<defs>
<clipPath id="clip0_6966_14948">
<rect width="24" height="24" fill="white"/>
</clipPath>
</defs>
</svg>