<svg width="119" height="118" viewBox="0 0 119 118" fill="none" xmlns="http://www.w3.org/2000/svg">
<g clip-path="url(#clip0_248_730)">
<path d="M92.1313 10.5251L61.0674 0.254131C60.0503 -0.0817807 58.9508 -0.0817807 57.9337 0.254131L26.8697 10.5251C21.9308 12.1519 17.6344 15.2807 14.5911 19.467C11.5478 23.6534 9.91241 28.6842 9.91719 33.8448V59.0034C9.91719 96.1881 55.5339 116.725 57.4874 117.581C58.1212 117.86 58.807 118.004 59.5005 118.004C60.194 118.004 60.8798 117.86 61.5136 117.581C63.4672 116.725 109.084 96.1881 109.084 59.0034V33.8448C109.089 28.6842 107.453 23.6534 104.41 19.467C101.367 15.2807 97.0703 12.1519 92.1313 10.5251ZM99.1672 59.0034C99.1672 85.8238 67.8355 103.416 59.5005 107.624C51.1556 103.43 19.8339 85.8926 19.8339 59.0034V33.8448C19.8341 30.7487 20.817 27.7311 22.6431 25.2197C24.4692 22.7083 27.046 20.8303 30.0084 19.852L59.5005 10.1022L88.9927 19.852C91.9551 20.8303 94.5319 22.7083 96.358 25.2197C98.1841 27.7311 99.1669 30.7487 99.1672 33.8448V59.0034Z" fill="#12B76A"/>
<path d="M75.8622 40.8099L55.0967 61.46L43.9702 49.9549C43.5237 49.4708 42.984 49.0802 42.3829 48.8061C41.7818 48.5321 41.1314 48.38 40.4701 48.359C39.8088 48.338 39.15 48.4485 38.5324 48.6839C37.9149 48.9193 37.3511 49.2748 36.8742 49.7296C36.3974 50.1844 36.0171 50.7292 35.7559 51.332C35.4947 51.9348 35.3578 52.5833 35.3532 53.2393C35.3486 53.8954 35.4765 54.5457 35.7294 55.1519C35.9822 55.7582 36.3548 56.3082 36.8253 56.7695L48.2592 68.5695C49.1119 69.4828 50.1425 70.2151 51.2888 70.7221C52.4351 71.2292 53.6731 71.5004 54.9281 71.5195H55.0918C56.3217 71.5235 57.5402 71.2852 58.6765 70.8185C59.8128 70.3518 60.8443 69.6658 61.7111 68.8006L82.8931 47.7965C83.3558 47.3387 83.7229 46.7951 83.9737 46.1966C84.2244 45.5981 84.3539 44.9565 84.3545 44.3084C84.3552 43.6604 84.2272 43.0185 83.9777 42.4195C83.7283 41.8205 83.3622 41.276 82.9006 40.8173C82.4389 40.3586 81.8907 39.9945 81.2871 39.7458C80.6836 39.4972 80.0365 39.3689 79.3829 39.3682C78.7294 39.3675 78.0821 39.4945 77.478 39.7418C76.8739 39.9892 76.3249 40.3521 75.8622 40.8099Z" fill="#12B76A"/>
</g>
<defs>
<clipPath id="clip0_248_730">
<rect width="119" height="118" fill="white"/>
</clipPath>
</defs>
</svg>
