<svg xmlns="http://www.w3.org/2000/svg" width="22" height="23" viewBox="0 0 22 23" fill="none">
  <g clip-path="url(#clip0_8035_630)">
    <path d="M15.5835 13.4584C15.5835 13.7015 15.4869 13.9346 15.315 14.1065C15.1431 14.2784 14.9099 14.375 14.6668 14.375H7.3335C7.09038 14.375 6.85722 14.2784 6.68531 14.1065C6.51341 13.9346 6.41683 13.7015 6.41683 13.4584C6.41683 13.2152 6.51341 12.9821 6.68531 12.8102C6.85722 12.6383 7.09038 12.5417 7.3335 12.5417H14.6668C14.9099 12.5417 15.1431 12.6383 15.315 12.8102C15.4869 12.9821 15.5835 13.2152 15.5835 13.4584ZM11.9168 16.2084H7.3335C7.09038 16.2084 6.85722 16.3049 6.68531 16.4768C6.51341 16.6487 6.41683 16.8819 6.41683 17.125C6.41683 17.3681 6.51341 17.6013 6.68531 17.7732C6.85722 17.9451 7.09038 18.0417 7.3335 18.0417H11.9168C12.1599 18.0417 12.3931 17.9451 12.565 17.7732C12.7369 17.6013 12.8335 17.3681 12.8335 17.125C12.8335 16.8819 12.7369 16.6487 12.565 16.4768C12.3931 16.3049 12.1599 16.2084 11.9168 16.2084ZM20.1668 10.2363V18.0417C20.1654 19.2568 19.682 20.4218 18.8228 21.281C17.9636 22.1402 16.7986 22.6236 15.5835 22.625H6.41683C5.2017 22.6236 4.03676 22.1402 3.17753 21.281C2.3183 20.4218 1.83495 19.2568 1.8335 18.0417V5.20835C1.83495 3.99322 2.3183 2.82828 3.17753 1.96906C4.03676 1.10983 5.2017 0.626477 6.41683 0.625021H10.5556C11.3986 0.622851 12.2336 0.78781 13.0125 1.11036C13.7913 1.43291 14.4985 1.90665 15.0931 2.50419L18.2867 5.69969C18.8846 6.29391 19.3587 7.00086 19.6814 7.77958C20.0041 8.5583 20.1691 9.39332 20.1668 10.2363ZM13.7969 3.80035C13.5084 3.52092 13.1845 3.28053 12.8335 3.08535V7.04169C12.8335 7.2848 12.9301 7.51796 13.102 7.68987C13.2739 7.86178 13.507 7.95835 13.7502 7.95835H17.7065C17.5112 7.60744 17.2705 7.28382 16.9906 6.99585L13.7969 3.80035ZM18.3335 10.2363C18.3335 10.085 18.3042 9.94019 18.2904 9.79169H13.7502C13.0208 9.79169 12.3213 9.50196 11.8056 8.98623C11.2899 8.47051 11.0002 7.77103 11.0002 7.04169V2.50144C10.8517 2.48769 10.7059 2.45835 10.5556 2.45835H6.41683C5.68748 2.45835 4.98801 2.74809 4.47229 3.26381C3.95656 3.77954 3.66683 4.47901 3.66683 5.20835V18.0417C3.66683 18.771 3.95656 19.4705 4.47229 19.9862C4.98801 20.502 5.68748 20.7917 6.41683 20.7917H15.5835C16.3128 20.7917 17.0123 20.502 17.528 19.9862C18.0438 19.4705 18.3335 18.771 18.3335 18.0417V10.2363Z" fill="#1B8392"/>
  </g>
  <defs>
    <clipPath id="clip0_8035_630">
      <rect width="22" height="22" fill="white" transform="translate(0 0.625)"/>
    </clipPath>
  </defs>
</svg>