<svg width="18" height="18" viewBox="0 0 18 18" fill="none" xmlns="http://www.w3.org/2000/svg">
<path d="M3.95113 2.54511C3.34093 2.54511 2.75573 2.78751 2.32425 3.21899C1.89278 3.65046 1.65038 4.23567 1.65038 4.84586V14.0489C1.65038 14.6591 1.89278 15.2443 2.32425 15.6757C2.75573 16.1072 3.34093 16.3496 3.95113 16.3496H13.1541C13.7643 16.3496 14.3495 16.1072 14.781 15.6757C15.2125 15.2443 15.4549 14.6591 15.4549 14.0489V11.1729C15.4549 11.0204 15.5155 10.8741 15.6234 10.7662C15.7312 10.6583 15.8775 10.5977 16.0301 10.5977C16.1826 10.5977 16.3289 10.6583 16.4368 10.7662C16.5447 10.8741 16.6053 11.0204 16.6053 11.1729V14.0489C16.6053 14.9642 16.2417 15.842 15.5945 16.4892C14.9472 17.1364 14.0694 17.5 13.1541 17.5H3.95113C3.03583 17.5 2.15802 17.1364 1.51081 16.4892C0.8636 15.842 0.5 14.9642 0.5 14.0489V4.84586C0.5 3.93057 0.8636 3.05276 1.51081 2.40555C2.15802 1.75834 3.03583 1.39474 3.95113 1.39474H6.82707C6.97962 1.39474 7.12592 1.45534 7.23379 1.56321C7.34166 1.67107 7.40226 1.81738 7.40226 1.96992C7.40226 2.12247 7.34166 2.26878 7.23379 2.37664C7.12592 2.48451 6.97962 2.54511 6.82707 2.54511H3.95113ZM10.5977 1.07519C10.5977 0.922639 10.6583 0.776337 10.7662 0.668469C10.8741 0.5606 11.0204 0.5 11.1729 0.5H16.9248C17.0774 0.5 17.2237 0.5606 17.3315 0.668469C17.4394 0.776337 17.5 0.922639 17.5 1.07519V6.82707C17.5 6.97962 17.4394 7.12592 17.3315 7.23379C17.2237 7.34166 17.0774 7.40226 16.9248 7.40226C16.7723 7.40226 16.626 7.34166 16.5181 7.23379C16.4102 7.12592 16.3496 6.97962 16.3496 6.82707V2.46369L11.5802 7.2343C11.4722 7.34231 11.3257 7.40298 11.1729 7.40298C11.0202 7.40298 10.8737 7.34231 10.7657 7.2343C10.6577 7.1263 10.597 6.97981 10.597 6.82707C10.597 6.67433 10.6577 6.52784 10.7657 6.41983L15.5363 1.65038H11.1729C11.0204 1.65038 10.8741 1.58978 10.7662 1.48191C10.6583 1.37404 10.5977 1.22774 10.5977 1.07519Z" fill="#1B8392"/>
</svg>
