<svg width="30" height="30" viewBox="0 0 30 30" fill="none" xmlns="http://www.w3.org/2000/svg">
<path d="M23.1885 11.9872H22.68V9.53395C22.6796 9.51836 22.6781 9.50282 22.6755 9.48744C22.6762 9.38889 22.641 9.29345 22.5765 9.21895L18.495 4.5562L18.492 4.5532C18.4675 4.52679 18.4398 4.50361 18.4095 4.4842L18.3825 4.4677C18.3566 4.45328 18.3292 4.44171 18.3007 4.4332L18.2782 4.4257C18.2471 4.41793 18.2151 4.4139 18.183 4.4137H8.15025C7.692 4.4137 7.32 4.78645 7.32 5.24395V11.9864H6.8115C6.156 11.9864 5.625 12.5174 5.625 13.1729V19.3439C5.625 19.9987 6.15675 20.5304 6.8115 20.5304H7.32V24.7544C7.32 25.2119 7.692 25.5847 8.15025 25.5847H21.8498C22.3072 25.5847 22.68 25.2119 22.68 24.7544V20.5304H23.1885C23.8433 20.5304 24.375 19.9994 24.375 19.3439V13.1729C24.375 12.5182 23.844 11.9872 23.1885 11.9872ZM8.15025 5.24395H17.7675V9.49195C17.7675 9.72145 17.9535 9.90669 18.183 9.90669H21.8505V11.9864H8.15025V5.24395ZM14.3617 16.6199C13.3538 16.2599 12.6885 15.7019 12.6885 14.8207C12.6885 13.7864 13.5615 13.0042 14.9827 13.0042C15.6757 13.0042 16.17 13.1392 16.53 13.3094L16.224 14.4067C15.8318 14.2157 15.401 14.1174 14.9647 14.1194C14.3707 14.1194 14.0828 14.3977 14.0828 14.7037C14.0828 15.0907 14.415 15.2609 15.207 15.5579C16.278 15.9539 16.7723 16.5112 16.7723 17.3662C16.7723 18.3832 15.999 19.2464 14.3348 19.2464C13.6418 19.2464 12.9585 19.0574 12.6165 18.8684L12.8955 17.7442C13.3665 17.9847 13.8863 18.114 14.415 18.1222C15.045 18.1222 15.378 17.8604 15.378 17.4652C15.378 17.0872 15.0907 16.8719 14.3617 16.6199ZM7.21725 16.2059C7.21725 14.1457 8.6925 13.0034 10.527 13.0034C11.238 13.0034 11.7773 13.1467 12.0203 13.2644L11.7322 14.3527C11.3679 14.1997 10.9761 14.1231 10.581 14.1277C9.50175 14.1277 8.6565 14.7839 8.6565 16.1332C8.6565 17.3384 9.37575 18.1034 10.59 18.1034C11.013 18.1034 11.463 18.0232 11.7413 17.9054L11.94 18.9847C11.697 19.1009 11.121 19.2457 10.3928 19.2457C8.2965 19.2464 7.21725 17.9332 7.21725 16.2059ZM21.8498 24.5309H8.15025V20.5312H21.8498V24.5309ZM20.7413 19.1564H19.14L17.1975 13.0934H18.6998L19.437 15.6577C19.6433 16.3859 19.8323 17.0699 19.9762 17.8252H20.0033C20.1566 17.1045 20.3395 16.3904 20.5515 15.6847L21.3255 13.0942H22.782L20.7413 19.1564Z" fill="#1B8392"/>
</svg>
