<svg width="24" height="24" viewBox="0 0 24 24" fill="none" xmlns="http://www.w3.org/2000/svg">
<path d="M13.5008 21C13.3385 21 13.1806 20.9474 13.0508 20.85L10.0508 18.6C9.95763 18.5301 9.88203 18.4396 9.82996 18.3354C9.77789 18.2313 9.75078 18.1164 9.75078 18V13.785L4.48878 7.86525C4.11507 7.44366 3.87106 6.92311 3.78609 6.36618C3.70111 5.80924 3.77879 5.23961 4.00977 4.72576C4.24076 4.21191 4.61522 3.77569 5.08816 3.46955C5.56111 3.1634 6.1124 3.00036 6.67578 3H17.3258C17.8891 3.00066 18.4403 3.16398 18.913 3.47033C19.3858 3.77668 19.76 4.21303 19.9907 4.72694C20.2215 5.24085 20.2989 5.81046 20.2137 6.36731C20.1285 6.92416 19.8844 7.44457 19.5105 7.866L14.2508 13.785V20.25C14.2508 20.4489 14.1718 20.6397 14.0311 20.7803C13.8905 20.921 13.6997 21 13.5008 21ZM11.2508 17.625L12.7508 18.75V13.5C12.7509 13.3164 12.8184 13.1392 12.9405 13.002L18.3915 6.86925C18.5733 6.66381 18.6919 6.41028 18.7331 6.13909C18.7743 5.8679 18.7364 5.59058 18.6239 5.34042C18.5113 5.09026 18.329 4.87789 18.0987 4.72882C17.8685 4.57974 17.6001 4.50029 17.3258 4.5H6.67578C6.40162 4.50042 6.1334 4.57991 5.90328 4.72895C5.67317 4.87799 5.49093 5.09025 5.37843 5.34026C5.26593 5.59028 5.22795 5.86744 5.26902 6.13851C5.3101 6.40958 5.4285 6.66304 5.61003 6.8685L11.0618 13.002C11.1836 13.1393 11.2508 13.3165 11.2508 13.5V17.625Z" fill="#1B8392"/>
</svg>
