<svg width="18" height="19" viewBox="0 0 18 19" fill="none" xmlns="http://www.w3.org/2000/svg">
<path d="M9 9.5C7.75 9.5 6.6875 9.0625 5.8125 8.1875C4.9375 7.3125 4.5 6.25 4.5 5C4.5 3.75 4.9375 2.6875 5.8125 1.8125C6.6875 0.9375 7.75 0.5 9 0.5C10.25 0.5 11.3125 0.9375 12.1875 1.8125C13.0625 2.6875 13.5 3.75 13.5 5C13.5 6.25 13.0625 7.3125 12.1875 8.1875C11.3125 9.0625 10.25 9.5 9 9.5ZM0 18.5V15.5C0 15.021 0.13 14.568 0.39 14.141C0.651 13.714 1.0105 13.3545 1.4685 13.0625C2.6145 12.3955 3.828 11.885 5.109 11.531C6.391 11.177 7.688 11 9 11C10.312 11 11.609 11.177 12.891 11.531C14.172 11.885 15.3855 12.3955 16.5315 13.0625C16.9895 13.3335 17.349 13.6875 17.61 14.1245C17.87 14.5625 18 15.021 18 15.5V18.5H0Z" fill="#12B76A"/>
</svg>
