<svg width="18" height="18" viewBox="0 0 18 18" fill="none" xmlns="http://www.w3.org/2000/svg">
<g clip-path="url(#clip0_6966_16038)">
<path d="M13.8002 5.53417C13.6645 5.49547 13.5407 5.42346 13.44 5.32469C13.3392 5.22593 13.2648 5.10354 13.2234 4.96867C12.9938 4.1902 12.6085 3.46642 12.0911 2.84114C11.5736 2.21585 10.9346 1.70205 10.2129 1.33084C9.49109 0.959619 8.7015 0.7387 7.89188 0.681449C7.08227 0.624199 6.26945 0.731805 5.50262 0.997758C4.73579 1.26371 4.03089 1.68248 3.43058 2.22873C2.83026 2.77497 2.34702 3.43733 2.01008 4.17573C1.67315 4.91413 1.48953 5.71322 1.47034 6.52463C1.45115 7.33604 1.59678 8.14291 1.89843 8.89642C1.96772 9.05499 1.98264 9.23203 1.94086 9.39996C1.89908 9.56789 1.80295 9.7173 1.66743 9.82492C1.07022 10.2682 0.603961 10.8646 0.317991 11.5512C0.0320198 12.2377 -0.063021 12.9888 0.0429272 13.7249C0.208267 14.7201 0.72492 15.623 1.49911 16.2697C2.27331 16.9165 3.25373 17.2643 4.26243 17.2499H8.25018C8.44909 17.2499 8.63986 17.1709 8.78051 17.0302C8.92116 16.8896 9.00018 16.6988 9.00018 16.4999C9.00018 16.301 8.92116 16.1102 8.78051 15.9696C8.63986 15.8289 8.44909 15.7499 8.25018 15.7499H4.26243C3.61464 15.7656 2.98265 15.5488 2.481 15.1386C1.97935 14.7285 1.64123 14.1522 1.52793 13.5142C1.45608 13.0452 1.51431 12.5655 1.69628 12.1274C1.87825 11.6893 2.17699 11.3095 2.55993 11.0294C2.96217 10.7288 3.25314 10.3031 3.38713 9.81909C3.52112 9.33512 3.49053 8.82036 3.30018 8.35567C2.92379 7.36169 2.90444 6.26783 3.24543 5.26117C3.51783 4.4726 4.00562 3.77607 4.65354 3.2505C5.30147 2.72492 6.08363 2.39129 6.91143 2.28742C7.10344 2.2627 7.29683 2.25017 7.49043 2.24992C8.46022 2.24672 9.40496 2.55774 10.1832 3.13641C10.9614 3.71508 11.5313 4.53027 11.8074 5.45992C11.9152 5.81419 12.1094 6.13609 12.3726 6.39663C12.6358 6.65717 12.9596 6.84817 13.3149 6.95242C14.1846 7.20961 14.9549 7.72632 15.5227 8.43338C16.0906 9.14044 16.4289 10.0041 16.4923 10.9087C16.5558 11.8134 16.3414 12.7158 15.8778 13.4952C15.4142 14.2746 14.7236 14.8938 13.8984 15.2699C13.7763 15.3324 13.6742 15.428 13.6038 15.5458C13.5334 15.6636 13.4975 15.7987 13.5002 15.9359C13.4987 16.06 13.5285 16.1825 13.5867 16.2921C13.6449 16.4017 13.7297 16.495 13.8333 16.5633C13.9369 16.6316 14.056 16.6728 14.1797 16.6831C14.3034 16.6934 14.4277 16.6724 14.5412 16.6222C17.6417 15.1319 19.3262 11.2117 16.7012 7.42417C15.9784 6.48135 14.9546 5.81438 13.8002 5.53417Z" fill="white"/>
<path d="M14.0303 12.5301C14.1709 12.3895 14.2499 12.1987 14.2499 11.9999C14.2499 11.801 14.1709 11.6103 14.0303 11.4696L12.8408 10.2801C12.4189 9.8583 11.8467 9.62134 11.2501 9.62134C10.6534 9.62134 10.0812 9.8583 9.65931 10.2801L8.46981 11.4696C8.33319 11.6111 8.2576 11.8005 8.25931 11.9972C8.26101 12.1938 8.33989 12.3819 8.47895 12.521C8.618 12.66 8.80611 12.7389 9.00276 12.7406C9.19941 12.7423 9.38886 12.6667 9.53031 12.5301L10.5001 11.5604V17.2499C10.5001 17.4488 10.5791 17.6395 10.7197 17.7802C10.8604 17.9208 11.0511 17.9999 11.2501 17.9999C11.449 17.9999 11.6397 17.9208 11.7804 17.7802C11.921 17.6395 12.0001 17.4488 12.0001 17.2499V11.5604L12.9698 12.5301C13.1105 12.6707 13.3012 12.7497 13.5001 12.7497C13.6989 12.7497 13.8897 12.6707 14.0303 12.5301Z" fill="white"/>
</g>
<defs>
<clipPath id="clip0_6966_16038">
<rect width="18" height="18" fill="white"/>
</clipPath>
</defs>
</svg>
