<svg width="110" height="110" viewBox="0 0 110 110" fill="none" xmlns="http://www.w3.org/2000/svg">
<path d="M0 14.8296V82.0383C0 97.2731 12.334 109.624 27.5485 109.624H109.478V97.4652C45.6744 97.4652 16.1325 59.7589 0 14.8296Z" fill="#2F707F"/>
<path d="M45.6744 0H0V14.8301C16.1325 59.7594 37.1115 94.2657 109.475 85.9658V67.1813C79.9945 54.6354 56.7411 30.2604 45.6744 0Z" fill="#0095AD"/>
<path d="M109.475 67.1813V20.5406C109.475 9.19507 100.292 0 88.9614 0H45.6709C56.741 30.2604 79.9909 54.6354 109.475 67.1813Z" fill="#9DD600"/>
<path d="M0 80.5023V82.0354C0 97.2702 12.334 109.621 27.5485 109.621H29.0796L30.5147 79.7889L0 80.5023Z" fill="#004E60"/>
<path d="M42.8553 79.3228L30.4837 81.2606C29.7096 81.3807 28.9424 80.6124 29.0622 79.8373L30.9975 67.4492C31.268 65.724 32.0284 64.1909 33.1998 63.018L71.356 24.8109C71.7465 24.4199 72.4384 24.4782 72.8974 24.9378L85.3101 37.3671C85.7725 37.8301 85.8273 38.5195 85.4369 38.9105L47.2806 77.1175C46.1092 78.2905 44.5782 79.0553 42.8553 79.3228Z" fill="white"/>
<path d="M89.5302 30.6823C95.0292 30.6823 99.4871 26.2185 99.4871 20.7121C99.4871 15.2057 95.0292 10.7419 89.5302 10.7419C84.0311 10.7419 79.5732 15.2057 79.5732 20.7121C79.5732 26.2185 84.0311 30.6823 89.5302 30.6823Z" fill="white"/>
</svg>
