<svg xmlns="http://www.w3.org/2000/svg" width="119" height="33" viewBox="0 0 119 33" fill="none">
  <path d="M0 4.73828V24.5091C0 28.9907 3.62829 32.6239 8.10396 32.6239H32.2053V29.0472C13.4361 29.0472 4.7457 17.9551 0 4.73828Z" fill="#2F707F"/>
  <path d="M13.4361 0.375H0V4.73758C4.7457 17.9544 10.9171 28.1052 32.2043 25.6636V20.1377C23.532 16.4471 16.6916 9.27671 13.4361 0.375Z" fill="#0095AD"/>
  <path d="M32.2042 20.1378V6.41743C32.2042 3.07992 29.5029 0.375 26.1699 0.375H13.4351C16.6916 9.27671 23.531 16.4471 32.2042 20.1378Z" fill="#9DD600"/>
  <path d="M0 24.0556V24.5065C0 28.9882 3.62829 32.6213 8.10396 32.6213H8.55435L8.97652 23.8457L0 24.0556Z" fill="#004E60"/>
  <path d="M12.6066 23.7097L8.96721 24.2798C8.7395 24.3151 8.5138 24.0891 8.54907 23.8611L9.11835 20.2168C9.19795 19.7094 9.42163 19.2584 9.76622 18.9133L20.9907 7.67393C21.1055 7.55891 21.3091 7.57607 21.4441 7.71126L25.0955 11.3676C25.2316 11.5038 25.2477 11.7066 25.1328 11.8216L13.9084 23.061C13.5638 23.406 13.1134 23.631 12.6066 23.7097Z" fill="white"/>
  <path d="M26.3372 9.40102C27.9549 9.40102 29.2663 8.08791 29.2663 6.46809C29.2663 4.84828 27.9549 3.53516 26.3372 3.53516C24.7196 3.53516 23.4082 4.84828 23.4082 6.46809C23.4082 8.08791 24.7196 9.40102 26.3372 9.40102Z" fill="white"/>
  <path d="M41.7855 24.9676L40.262 27.058C40.1673 27.1892 39.9426 27.1892 39.8479 27.058L38.3244 24.9676C38.1128 24.677 38 24.341 38 23.999V12.8494C38 12.7354 38.1088 12.6426 38.2438 12.6426H41.8661C42.0011 12.6426 42.1099 12.7354 42.1099 12.8494V23.999C42.1099 24.341 41.9981 24.677 41.7855 24.9676Z" fill="#004E60"/>
  <path d="M40.0867 11.304C41.2391 11.304 42.1734 10.3685 42.1734 9.21448C42.1734 8.06049 41.2391 7.125 40.0867 7.125C38.9342 7.125 38 8.06049 38 9.21448C38 10.3685 38.9342 11.304 40.0867 11.304Z" fill="#9DD600"/>
  <path d="M56.3599 12.6426L51.325 19.8856L56.4556 27.1277H52.0585L49.0952 22.6612L45.877 27.1277H41.5122C41.746 26.8512 42.0865 26.4255 42.5319 25.8514L43.0417 25.2137C44.7828 23.0022 46.1753 21.2578 47.2151 19.9815C46.6619 19.1098 45.7168 17.6418 44.3798 15.5785C43.4871 14.2175 42.8503 13.2389 42.4674 12.6436H46.8645L49.2222 16.8871C49.6252 16.2918 50.1985 15.4201 50.9421 14.271C51.4308 13.5042 51.7815 12.9624 51.993 12.6436H56.3589L56.3599 12.6426Z" fill="#004E60"/>
  <path d="M67.2864 27.1263H64.0682L63.7488 25.7542C62.3472 26.9245 60.9235 27.5087 59.4796 27.5087C56.2715 27.5087 54.6685 25.9448 54.6685 22.8192C54.6685 21.2665 55.3375 20.0537 56.6766 19.182C58.0358 18.2891 60.0429 17.8422 62.6989 17.8422H63.3679V17.7776C63.3679 16.8635 63.1755 16.236 62.7936 15.895C62.4107 15.555 61.7205 15.3845 60.723 15.3845C59.3204 15.3845 58.0358 15.8304 56.867 16.7243C56.4851 16.0231 56.1234 15.332 55.7838 14.651C56.996 13.7147 58.0519 13.0821 58.9547 12.7522C59.8565 12.4223 60.9346 12.2578 62.189 12.2578C65.5876 12.2578 67.2874 14.3856 67.2874 18.6382V27.1253L67.2864 27.1263ZM63.2389 20.2979H62.7613C61.5492 20.2979 60.5729 20.5108 59.8293 20.9355C59.0857 21.3613 58.7139 21.9253 58.7139 22.6265C58.7139 23.9462 59.2882 24.605 60.4338 24.605C61.1341 24.605 61.7517 24.4032 62.2817 23.9986C62.8127 23.5951 63.1311 23.0845 63.2369 22.4671V20.2979H63.2389Z" fill="#004E60"/>
  <path d="M71.8295 14.0456C73.0195 12.8541 74.5056 12.2588 76.2901 12.2588C77.5223 12.2588 78.6115 12.5201 79.5566 13.0407C80.5018 13.5613 81.1557 14.2585 81.5164 15.1302C81.9829 14.2797 82.7114 13.5886 83.6998 13.0559C84.6862 12.5242 85.7653 12.2578 86.9341 12.2578C90.3327 12.2578 92.0325 14.3211 92.0325 18.4475V27.1253H87.985V19.5321C87.985 18.1075 87.7785 17.1027 87.3644 16.5175C86.9503 15.9333 86.255 15.6407 85.2767 15.6407C83.8751 15.6407 82.7386 16.1936 81.868 17.2994V27.1263H77.8538V19.0862C77.8538 17.8321 77.6301 16.9432 77.1848 16.4216C76.7394 15.901 75.9747 15.6397 74.8905 15.6397C74.2527 15.6397 73.6522 15.7356 73.091 15.9273C72.5278 16.1179 72.162 16.353 71.9917 16.6285V27.1253H67.9775V12.6422H71.3862L71.6723 14.0456H71.8315H71.8295Z" fill="#004E60"/>
  <path d="M105.342 21.1927H95.401C95.4857 22.1713 95.8836 22.9855 96.596 23.6343C97.3074 24.283 98.1517 24.6079 99.1291 24.6079C100.509 24.6079 101.954 24.1821 103.463 23.3316L104.482 25.4695C102.953 26.8305 101.04 27.5116 98.7462 27.5116C96.2826 27.5116 94.3602 26.8094 92.9798 25.4059C91.6619 24.0883 91.0029 22.2692 91.0029 19.9507C91.0029 17.6322 91.7465 15.7929 93.2347 14.3038C94.5718 12.9427 96.2716 12.2617 98.3331 12.2617C100.627 12.2617 102.412 13.0386 103.686 14.5913C104.79 15.911 105.343 17.6221 105.343 19.7277V21.1947L105.342 21.1927ZM95.1773 18.2265H101.328C101.221 16.142 100.212 15.0998 98.2998 15.0998C96.3874 15.0998 95.4111 16.142 95.1773 18.2265Z" fill="#004E60"/>
  <path d="M118.189 21.1927H108.248C108.333 22.1713 108.731 22.9855 109.443 23.6343C110.155 24.283 110.999 24.6079 111.976 24.6079C113.357 24.6079 114.801 24.1821 116.31 23.3316L117.329 25.4695C115.8 26.8305 113.888 27.5116 111.593 27.5116C109.13 27.5116 107.207 26.8094 105.827 25.4059C104.509 24.0883 103.85 22.2692 103.85 19.9507C103.85 17.6322 104.594 15.7929 106.082 14.3038C107.419 12.9427 109.119 12.2617 111.18 12.2617C113.474 12.2617 115.259 13.0386 116.534 14.5913C117.637 15.911 118.19 17.6221 118.19 19.7277V21.1947L118.189 21.1927ZM108.025 18.2265H114.175C114.068 16.142 113.059 15.0998 111.147 15.0998C109.235 15.0998 108.258 16.142 108.025 18.2265Z" fill="#004E60"/>
</svg>