<svg width="33" height="33" viewBox="0 0 33 33" fill="none" xmlns="http://www.w3.org/2000/svg">
<path d="M0 4.73853V24.5093C0 28.991 3.62829 32.6241 8.10396 32.6241H32.2053V29.0475C13.4361 29.0475 4.7457 17.9554 0 4.73853Z" fill="#2F707F"/>
<path d="M13.4361 0.375977H0V4.73855C4.7457 17.9554 10.9171 28.1062 32.2043 25.6646V20.1387C23.532 16.4481 16.6916 9.27769 13.4361 0.375977Z" fill="#0095AD"/>
<path d="M32.2042 20.1387V6.41841C32.2042 3.08089 29.5029 0.375977 26.1699 0.375977H13.4351C16.6916 9.27769 23.531 16.4481 32.2042 20.1387Z" fill="#9DD600"/>
<path d="M0 24.0575V24.5085C0 28.9901 3.62829 32.6233 8.10396 32.6233H8.55435L8.97652 23.8477L0 24.0575Z" fill="#004E60"/>
<path d="M12.6068 23.7105L8.96746 24.2805C8.73975 24.3158 8.51405 24.0898 8.54931 23.8618L9.1186 20.2176C9.19819 19.7101 9.42188 19.2591 9.76647 18.914L20.9909 7.67466C21.1058 7.55965 21.3093 7.5768 21.4443 7.71199L25.0958 11.3683C25.2318 11.5045 25.2479 11.7073 25.1331 11.8223L13.9086 23.0617C13.564 23.4068 13.1136 23.6318 12.6068 23.7105Z" fill="white"/>
<path d="M26.3371 9.40176C27.9548 9.40176 29.2661 8.08864 29.2661 6.46882C29.2661 4.84901 27.9548 3.53589 26.3371 3.53589C24.7195 3.53589 23.4081 4.84901 23.4081 6.46882C23.4081 8.08864 24.7195 9.40176 26.3371 9.40176Z" fill="white"/>
</svg>
