<svg width="42" height="43" viewBox="0 0 42 43" fill="none" xmlns="http://www.w3.org/2000/svg">
<rect y="0.5" width="42" height="42" rx="21" fill="white"/>
<path d="M27 17.5018C27 15.9105 26.3679 14.3844 25.2426 13.2592C24.1174 12.134 22.5913 11.5018 21 11.5018C19.4087 11.5018 17.8826 12.134 16.7574 13.2592C15.6321 14.3844 15 15.9105 15 17.5018C15 24.5018 13 26.5018 13 26.5018H21H29C29 26.5018 27 24.5018 27 17.5018Z" stroke="#1B8392" stroke-width="2" stroke-linecap="round" stroke-linejoin="round"/>
<path d="M22.73 30.5018C22.5542 30.8049 22.3019 31.0565 21.9982 31.2314C21.6946 31.4062 21.3504 31.4983 21 31.4983C20.6496 31.4983 20.3054 31.4062 20.0018 31.2314C19.6982 31.0565 19.4458 30.8049 19.27 30.5018" stroke="#1B8392" stroke-width="2" stroke-linecap="round" stroke-linejoin="round"/>
</svg>
