<svg width="104" height="26" viewBox="0 0 104 26" fill="none" xmlns="http://www.w3.org/2000/svg">
<path d="M0.544067 3.74756V19.3011C0.544067 22.8267 3.60559 25.6849 7.38213 25.6849H27.7186V22.8712C11.8813 22.8712 4.54845 14.1451 0.544067 3.74756Z" fill="#2F707F"/>
<path d="M11.8813 0.31543H0.544067V3.74742C4.54845 14.145 9.75585 22.1305 27.7178 20.2097V15.8626C20.4002 12.9592 14.6283 7.31832 11.8813 0.31543Z" fill="#0095AD"/>
<path d="M27.6945 15.8626V5.06895C27.6945 2.44336 25.4152 0.31543 22.6028 0.31543H11.8572C14.605 7.31832 20.3761 12.9592 27.6945 15.8626Z" fill="#9DD600"/>
<path d="M0.544067 18.9454V19.3002C0.544067 22.8258 3.60559 25.6839 7.38213 25.6839H7.76216L8.11839 18.7803L0.544067 18.9454Z" fill="#004E60"/>
<path d="M11.1895 18.6728L8.11861 19.1212C7.92647 19.149 7.73603 18.9712 7.76578 18.7918L8.24614 15.9249C8.3133 15.5257 8.50204 15.1709 8.79281 14.8995L18.2639 6.05756C18.3608 5.96708 18.5326 5.98057 18.6465 6.08693L21.7276 8.96333C21.8423 9.07048 21.8559 9.23001 21.759 9.3205L12.2879 18.1624C11.9972 18.4339 11.6171 18.6109 11.1895 18.6728Z" fill="white"/>
<path d="M22.7505 7.41589C24.1155 7.41589 25.222 6.38287 25.222 5.10858C25.222 3.83429 24.1155 2.80127 22.7505 2.80127C21.3855 2.80127 20.279 3.83429 20.279 5.10858C20.279 6.38287 21.3855 7.41589 22.7505 7.41589Z" fill="white"/>
<path d="M38.9863 18.9176L37.7008 20.5622C37.6209 20.6654 37.4313 20.6654 37.3514 20.5622L36.0659 18.9176C35.8874 18.689 35.7922 18.4247 35.7922 18.1557V9.38439C35.7922 9.2947 35.884 9.22168 35.9979 9.22168H39.0543C39.1683 9.22168 39.2601 9.2947 39.2601 9.38439V18.1557C39.2601 18.4247 39.1657 18.689 38.9863 18.9176Z" fill="#004E60"/>
<path d="M37.5529 8.1684C38.5253 8.1684 39.3137 7.43246 39.3137 6.52463C39.3137 5.6168 38.5253 4.88086 37.5529 4.88086C36.5805 4.88086 35.7922 5.6168 35.7922 6.52463C35.7922 7.43246 36.5805 8.1684 37.5529 8.1684Z" fill="#9DD600"/>
<path d="M51.2435 9.22168L46.9951 14.9197L51.3243 20.6169H47.6141L45.1137 17.1032L42.3982 20.6169H38.7151C38.9124 20.3995 39.1998 20.0645 39.5755 19.6129L40.0057 19.1113C41.4749 17.3715 42.6498 15.9992 43.5272 14.9951C43.0605 14.3094 42.263 13.1545 41.1348 11.5314C40.3815 10.4607 39.8442 9.69076 39.5211 9.22247H43.2313L45.2208 12.5608C45.5609 12.0925 46.0446 11.4068 46.6721 10.5027C47.0844 9.89951 47.3803 9.47329 47.5588 9.22247H51.2427L51.2435 9.22168Z" fill="#004E60"/>
<path d="M60.5016 20.6163H57.7861L57.5166 19.5369C56.334 20.4576 55.1327 20.9171 53.9144 20.9171C51.2074 20.9171 49.8547 19.6869 49.8547 17.228C49.8547 16.0065 50.4193 15.0524 51.5492 14.3667C52.6961 13.6642 54.3896 13.3126 56.6307 13.3126H57.1953V13.2618C57.1953 12.5427 57.0329 12.049 56.7107 11.7808C56.3876 11.5133 55.8052 11.3791 54.9635 11.3791C53.7801 11.3791 52.6961 11.73 51.7098 12.4332C51.3876 11.8816 51.0824 11.3379 50.7959 10.8021C51.8187 10.0655 52.7097 9.56789 53.4714 9.30835C54.2324 9.04881 55.1421 8.91943 56.2005 8.91943C59.0682 8.91943 60.5025 10.5934 60.5025 13.9388V20.6155L60.5016 20.6163ZM57.0864 15.2445H56.6834C55.6607 15.2445 54.8368 15.412 54.2094 15.7461C53.582 16.0811 53.2682 16.5247 53.2682 17.0764C53.2682 18.1145 53.7528 18.6328 54.7195 18.6328C55.3104 18.6328 55.8316 18.4741 56.2788 18.1558C56.7268 17.8383 56.9955 17.4367 57.0847 16.951V15.2445H57.0864Z" fill="#004E60"/>
<path d="M64.3432 10.3259C65.3472 9.38852 66.6013 8.92023 68.1069 8.92023C69.1467 8.92023 70.0658 9.1258 70.8633 9.53535C71.6607 9.94491 72.2125 10.4934 72.5169 11.1791C72.9105 10.51 73.5252 9.96634 74.3592 9.54726C75.1916 9.12897 76.1021 8.91943 77.0883 8.91943C79.956 8.91943 81.3903 10.5426 81.3903 13.7888V20.6155H77.9751V14.6421C77.9751 13.5214 77.8008 12.7308 77.4514 12.2705C77.1019 11.8109 76.5153 11.5807 75.6898 11.5807C74.5072 11.5807 73.5482 12.0157 72.8136 12.8856V20.6163H69.4264V14.2913C69.4264 13.3047 69.2377 12.6054 68.8619 12.1951C68.4861 11.7855 67.8408 11.5799 66.926 11.5799C66.3879 11.5799 65.8812 11.6553 65.4076 11.8062C64.9323 11.9562 64.6237 12.1411 64.48 12.3578V20.6155H61.0929V9.22184H63.9691L64.2105 10.3259H64.3449H64.3432Z" fill="#004E60"/>
<path d="M92.6034 15.9473H84.2154C84.2868 16.7172 84.6226 17.3577 85.2237 17.8681C85.824 18.3784 86.5364 18.634 87.3611 18.634C88.5259 18.634 89.745 18.2991 91.0178 17.63L91.8781 19.3118C90.5876 20.3825 88.9739 20.9183 87.038 20.9183C84.9593 20.9183 83.3372 20.3659 82.1724 19.2618C81.0604 18.2252 80.5043 16.7942 80.5043 14.9702C80.5043 13.1463 81.1318 11.6994 82.3875 10.5279C83.5157 9.45714 84.95 8.92139 86.6894 8.92139C88.6253 8.92139 90.131 9.53254 91.2065 10.7541C92.1375 11.7922 92.6042 13.1384 92.6042 14.7948V15.9489L92.6034 15.9473ZM84.0267 13.6138H89.2162C89.1261 11.974 88.275 11.1541 86.6614 11.1541C85.0477 11.1541 84.2239 11.974 84.0267 13.6138Z" fill="#004E60"/>
<path d="M103.455 15.9473H95.0671C95.1385 16.7172 95.4743 17.3577 96.0754 17.8681C96.6756 18.3784 97.3881 18.634 98.2128 18.634C99.3775 18.634 100.597 18.2991 101.869 17.63L102.73 19.3118C101.439 20.3825 99.8256 20.9183 97.8897 20.9183C95.811 20.9183 94.1889 20.3659 93.0241 19.2618C91.9121 18.2252 91.356 16.7942 91.356 14.9702C91.356 13.1463 91.9835 11.6994 93.2392 10.5279C94.3674 9.45714 95.8017 8.92139 97.5411 8.92139C99.477 8.92139 100.983 9.53254 102.058 10.7541C102.989 11.7922 103.456 13.1384 103.456 14.7948V15.9489L103.455 15.9473ZM94.8784 13.6138H100.068C99.9778 11.974 99.1267 11.1541 97.5131 11.1541C95.8994 11.1541 95.0756 11.974 94.8784 13.6138Z" fill="#004E60"/>
</svg>
