<svg width="21" height="22" viewBox="0 0 21 22" fill="none" xmlns="http://www.w3.org/2000/svg">
<path fill-rule="evenodd" clip-rule="evenodd" d="M0.509766 10.9999C0.509766 8.28274 1.58915 5.67688 3.51046 3.75557C5.43177 1.83426 8.03762 0.754883 10.7548 0.754883C13.4719 0.754883 16.0778 1.83426 17.9991 3.75557C19.9204 5.67688 20.9998 8.28274 20.9998 10.9999C20.9998 13.717 19.9204 16.3229 17.9991 18.2442C16.0778 20.1655 13.4719 21.2449 10.7548 21.2449C8.03762 21.2449 5.43177 20.1655 3.51046 18.2442C1.58915 16.3229 0.509766 13.717 0.509766 10.9999ZM10.7548 2.22442C8.42737 2.22442 6.1953 3.14898 4.54958 4.79469C2.90386 6.44041 1.9793 8.67249 1.9793 10.9999C1.9793 13.3273 2.90386 15.5594 4.54958 17.2051C6.1953 18.8508 8.42737 19.7753 10.7548 19.7753C13.0822 19.7753 15.3142 18.8508 16.96 17.2051C18.6057 15.5594 19.5302 13.3273 19.5302 10.9999C19.5302 8.67249 18.6057 6.44041 16.96 4.79469C15.3142 3.14898 13.0822 2.22442 10.7548 2.22442ZM14.3961 7.36007C14.5411 7.50511 14.6226 7.7018 14.6226 7.90689C14.6226 8.11198 14.5411 8.30867 14.3961 8.45371L11.8484 10.9999L14.3961 13.5461C14.5414 13.6913 14.6229 13.8883 14.6229 14.0936C14.6229 14.299 14.5414 14.496 14.3961 14.6412C14.2509 14.7865 14.0539 14.8681 13.8485 14.8681C13.6431 14.8681 13.4462 14.7865 13.3009 14.6412L10.7548 12.0935L8.2086 14.6412C8.13669 14.7132 8.05132 14.7702 7.95736 14.8091C7.8634 14.848 7.7627 14.8681 7.661 14.8681C7.5593 14.8681 7.4586 14.848 7.36464 14.8091C7.27069 14.7702 7.18532 14.7132 7.11341 14.6412C7.04149 14.5693 6.98445 14.484 6.94553 14.39C6.90661 14.296 6.88658 14.1953 6.88658 14.0936C6.88658 13.9919 6.90661 13.8912 6.94553 13.7973C6.98445 13.7033 7.04149 13.618 7.11341 13.5461L9.66112 10.9999L7.11341 8.45371C6.96817 8.30848 6.88658 8.11151 6.88658 7.90612C6.88658 7.70073 6.96817 7.50375 7.11341 7.35852C7.25864 7.21329 7.45561 7.1317 7.661 7.1317C7.86639 7.1317 8.06337 7.21329 8.2086 7.35852L10.7548 9.90624L13.3009 7.35852C13.3728 7.28649 13.4581 7.22935 13.5521 7.19036C13.6461 7.15137 13.7468 7.1313 13.8485 7.1313C13.9503 7.1313 14.051 7.15137 14.145 7.19036C14.2389 7.22935 14.3243 7.28804 14.3961 7.36007Z" fill="#F04438"/>
</svg>
