<svg width="17" height="18" viewBox="0 0 17 18" fill="none" xmlns="http://www.w3.org/2000/svg">
<g clip-path="url(#clip0_9717_3344)">
<path d="M16.376 1.12479C16.1221 0.867754 15.8061 0.680562 15.4587 0.581297C15.1113 0.482032 14.7441 0.47405 14.3927 0.558122L3.05935 2.94521C2.40667 3.03472 1.79195 3.30467 1.28441 3.72466C0.776867 4.14466 0.396663 4.69802 0.186615 5.32242C-0.0234325 5.94682 -0.0549813 6.61746 0.0955217 7.25883C0.246025 7.90019 0.572601 8.48679 1.03847 8.95258L2.25539 10.1688C2.32126 10.2346 2.37349 10.3128 2.4091 10.3989C2.44471 10.4849 2.46301 10.5772 2.46293 10.6703V12.9143C2.4645 13.2298 2.53713 13.5409 2.67543 13.8245L2.66977 13.8295L2.68818 13.8479C2.89573 14.2652 3.23472 14.6027 3.65293 14.8084L3.67135 14.8268L3.67631 14.8211C3.9599 14.9594 4.271 15.0321 4.58652 15.0336H6.83052C7.01826 15.0335 7.19839 15.1079 7.33131 15.2405L8.54752 16.4567C8.87372 16.7865 9.26198 17.0485 9.6899 17.2275C10.1178 17.4066 10.577 17.4992 11.0408 17.5C11.4274 17.4996 11.8114 17.4364 12.1777 17.313C12.7964 17.1099 13.346 16.7379 13.7646 16.239C14.1831 15.7401 14.4539 15.1342 14.5464 14.4896L16.937 3.1315C17.0255 2.77708 17.0202 2.40575 16.9219 2.05395C16.8235 1.70216 16.6354 1.38196 16.376 1.12479ZM3.25839 9.16862L2.04077 7.95241C1.75723 7.67571 1.55851 7.32387 1.46793 6.93819C1.37734 6.55251 1.39865 6.14899 1.52935 5.775C1.65607 5.39131 1.89032 5.05209 2.20425 4.79768C2.51817 4.54328 2.89857 4.38439 3.30018 4.33991L14.5209 1.97762L3.87818 12.6217V10.6703C3.87926 10.3914 3.82503 10.1152 3.71865 9.8574C3.61226 9.59964 3.45583 9.36554 3.25839 9.16862ZM13.1545 14.2474C13.1001 14.6386 12.9378 15.0069 12.6857 15.311C12.4336 15.6151 12.1017 15.8429 11.7273 15.9689C11.3529 16.0948 10.9509 16.1139 10.5662 16.024C10.1816 15.9342 9.82961 15.7389 9.54981 15.46L8.33148 14.2417C8.13482 14.044 7.90091 13.8872 7.64327 13.7804C7.38564 13.6737 7.10939 13.6191 6.83052 13.6198H4.87906L15.5232 2.97921L13.1545 14.2474Z" fill="white"/>
</g>
<defs>
<clipPath id="clip0_9717_3344">
<rect width="17" height="17" fill="white" transform="translate(0 0.5)"/>
</clipPath>
</defs>
</svg>
