<svg xmlns="http://www.w3.org/2000/svg" width="22" height="23" viewBox="0 0 22 23" fill="none">
<g clip-path="url(#clip0_6379_13692)">
<path d="M11.0001 15.0919C10.0276 15.0919 9.09499 14.7055 8.40736 14.0179C7.71972 13.3303 7.33341 12.3977 7.33341 11.4252C7.33341 10.4527 7.71972 9.5201 8.40736 8.83246C9.09499 8.14483 10.0276 7.75852 11.0001 7.75852C11.9725 7.75852 12.9052 8.14483 13.5928 8.83246C14.2804 9.5201 14.6667 10.4527 14.6667 11.4252C14.6667 12.3977 14.2804 13.3303 13.5928 14.0179C12.9052 14.7055 11.9725 15.0919 11.0001 15.0919ZM11.0001 9.59186C10.5139 9.59186 10.0475 9.78501 9.70372 10.1288C9.3599 10.4726 9.16675 10.939 9.16675 11.4252C9.16675 11.9114 9.3599 12.3777 9.70372 12.7216C10.0475 13.0654 10.5139 13.2585 11.0001 13.2585C11.4863 13.2585 11.9526 13.0654 12.2964 12.7216C12.6403 12.3777 12.8334 11.9114 12.8334 11.4252C12.8334 10.939 12.6403 10.4726 12.2964 10.1288C11.9526 9.78501 11.4863 9.59186 11.0001 9.59186ZM11.0001 22.4252C10.0001 22.4242 9.0279 22.0966 8.2312 21.4923C7.4345 20.8881 6.85693 20.0401 6.58633 19.0775C5.61895 19.2911 4.60863 19.1903 3.70255 18.7897C2.79648 18.3891 2.04199 17.7096 1.54901 16.8503C1.05603 15.991 0.8503 14.9967 0.961803 14.0123C1.07331 13.0279 1.49621 12.1048 2.16891 11.3775C-0.947753 8.15911 2.17716 2.57752 6.60008 3.72427C6.88538 2.77933 7.4673 1.95134 8.25973 1.36283C9.05217 0.774312 10.013 0.456543 11.0001 0.456543C11.9871 0.456543 12.948 0.774312 13.7404 1.36283C14.5329 1.95134 15.1148 2.77933 15.4001 3.72427C19.8917 2.60961 22.9167 8.13619 19.8267 11.4169C22.9507 14.6601 19.8367 20.0721 15.4138 19.0775C15.1432 20.0401 14.5657 20.8881 13.769 21.4923C12.9723 22.0966 12 22.4242 11.0001 22.4252ZM7.33341 16.9252C7.57653 16.9252 7.80969 17.0218 7.9816 17.1937C8.1535 17.3656 8.25008 17.5987 8.25008 17.8419C8.25008 18.5712 8.53981 19.2707 9.05554 19.7864C9.57126 20.3021 10.2707 20.5919 11.0001 20.5919C11.7294 20.5919 12.4289 20.3021 12.9446 19.7864C13.4604 19.2707 13.7501 18.5712 13.7501 17.8419C13.75 17.6804 13.7926 17.5217 13.8735 17.382C13.9545 17.2423 14.0709 17.1264 14.211 17.0461C14.3511 16.9658 14.5099 16.924 14.6714 16.9248C14.8329 16.9256 14.9913 16.9691 15.1306 17.0508C18.3077 18.5862 20.9972 14.1339 17.8952 12.23C17.7521 12.15 17.6329 12.0332 17.5499 11.8917C17.467 11.7502 17.4232 11.5892 17.4232 11.4252C17.4232 11.2612 17.467 11.1001 17.5499 10.9587C17.6329 10.8172 17.7521 10.7004 17.8952 10.6204C20.9322 8.77877 18.3737 4.00294 15.1278 5.80419C14.9883 5.88541 14.8297 5.92832 14.6683 5.9286C14.5068 5.92887 14.3481 5.88648 14.2083 5.80573C14.0685 5.72498 13.9525 5.60873 13.872 5.46874C13.7915 5.32875 13.7495 5.16999 13.7501 5.00852C13.7501 4.27918 13.4604 3.5797 12.9446 3.06398C12.4289 2.54825 11.7294 2.25852 11.0001 2.25852C10.2707 2.25852 9.57126 2.54825 9.05554 3.06398C8.53981 3.5797 8.25008 4.27918 8.25008 5.00852C8.2504 5.16958 8.20828 5.32789 8.12795 5.46749C8.04763 5.60709 7.93194 5.72307 7.79253 5.80374C7.65313 5.88441 7.49493 5.92692 7.33387 5.927C7.1728 5.92708 7.01456 5.88472 6.87508 5.80419C3.66675 4.00752 1.04325 8.74852 4.10491 10.5727C4.24803 10.6529 4.36719 10.7698 4.45013 10.9113C4.53307 11.0528 4.57679 11.2139 4.57679 11.378C4.57679 11.542 4.53307 11.7031 4.45013 11.8447C4.36719 11.9862 4.24803 12.1031 4.10491 12.1833C1.03591 14.1202 3.63375 18.5752 6.86958 17.0508C7.01027 16.9684 7.17039 16.9251 7.33341 16.9252Z" fill="#fff"/>
</g>
<defs>
<clipPath id="clip0_6379_13692">
<rect width="22" height="22" fill="white" transform="translate(0 0.425049)"/>
</clipPath>
</defs>
</svg>