<svg width="18" height="18" viewBox="0 0 18 18" fill="none" xmlns="http://www.w3.org/2000/svg">
<path d="M14.0581 15.1303C14.1237 15.207 14.1742 15.2965 14.2067 15.3937C14.2392 15.4908 14.253 15.5937 14.2474 15.6964C14.2417 15.7992 14.2168 15.8997 14.1739 15.9924C14.131 16.085 14.071 16.1679 13.9974 16.2363L12.8082 17.3432C12.6045 17.5538 12.3629 17.7202 12.0973 17.8329C11.8317 17.9456 11.5474 18.0024 11.2607 17.9999C10.9633 18.0005 10.6688 17.9399 10.394 17.8214C10.1192 17.7029 9.86945 17.529 9.65916 17.3095L8.5015 16.234C8.42795 16.1656 8.36802 16.0828 8.32512 15.9903C8.28223 15.8977 8.25721 15.7973 8.2515 15.6946C8.23997 15.4873 8.30778 15.2838 8.44002 15.1287C8.57226 14.9736 8.75809 14.8797 8.95663 14.8677C9.05494 14.8617 9.15341 14.876 9.24642 14.9098C9.33942 14.9436 9.42515 14.9961 9.4987 15.0645L10.4997 15.9991V10.1721C10.4997 9.96453 10.5786 9.76543 10.7193 9.61863C10.8599 9.47183 11.0506 9.38936 11.2494 9.38936C11.4483 9.38936 11.639 9.47183 11.7796 9.61863C11.9202 9.76543 11.9992 9.96453 11.9992 10.1721V15.9999L13.0002 15.0669C13.1486 14.9289 13.3433 14.8581 13.5417 14.87C13.7401 14.8819 13.9258 14.9755 14.0581 15.1303ZM13.7657 4.97527C13.6369 4.93353 13.5201 4.85914 13.4256 4.75874C13.3312 4.65834 13.262 4.53506 13.2243 4.39993C12.8273 3.06927 12.0165 1.91491 10.9202 1.11962C9.82396 0.324339 8.5049 -0.0664155 7.17192 0.00923644C5.83894 0.0848884 4.56822 0.622623 3.56099 1.53729C2.55375 2.45196 1.86755 3.69128 1.61106 5.05903C1.34788 6.44221 1.56027 7.87798 2.21088 9.11382C1.45244 9.52262 0.835722 10.1692 0.447346 10.9627C0.0589691 11.7563 -0.0815494 12.6569 0.0455284 13.5381C0.240958 14.5618 0.765924 15.4849 1.53325 16.1542C2.30057 16.8234 3.26408 17.1985 4.26377 17.2171H6.001C6.19985 17.2171 6.39056 17.1347 6.53117 16.9879C6.67178 16.8411 6.75077 16.642 6.75077 16.4344C6.75077 16.2268 6.67178 16.0277 6.53117 15.8809C6.39056 15.7341 6.19985 15.6516 6.001 15.6516H4.26377C3.62343 15.6388 3.00579 15.4016 2.51003 14.9783C2.01427 14.555 1.66915 13.97 1.53008 13.3173C1.44867 12.7565 1.5375 12.1832 1.78413 11.6778C2.03075 11.1724 2.42277 10.7603 2.90517 10.4993C3.24902 10.3009 3.50419 9.96916 3.61547 9.57581C3.72674 9.18245 3.68517 8.75917 3.49975 8.39758C3.20862 7.81789 3.03675 7.18107 2.99519 6.52798C2.95362 5.87488 3.04327 5.21992 3.25838 4.60512C3.47349 3.99032 3.80931 3.42924 4.24431 2.95788C4.6793 2.48653 5.20386 2.1153 5.78433 1.86801C6.36481 1.62073 6.98838 1.50284 7.61506 1.52192C8.24173 1.54099 8.85767 1.69661 9.42336 1.97879C9.98905 2.26097 10.492 2.66347 10.8999 3.16049C11.3079 3.6575 11.6118 4.23805 11.7923 4.8649C11.9032 5.24275 12.1009 5.58659 12.3681 5.86652C12.6354 6.14646 12.964 6.35402 13.3256 6.47116C14.305 6.78231 15.1527 7.43452 15.7274 8.31908C16.302 9.20364 16.5689 10.2671 16.4836 11.3322C16.4272 12.1604 16.1373 12.9527 15.6506 13.6093C15.5294 13.7739 15.4758 13.9821 15.5016 14.188C15.5274 14.3939 15.6305 14.5806 15.7882 14.7072C15.9459 14.8337 16.1453 14.8897 16.3425 14.8627C16.5397 14.8358 16.7186 14.7282 16.8398 14.5635C17.5003 13.6644 17.8963 12.5842 17.9794 11.4543C18.0927 10.0341 17.7362 8.61631 16.9694 7.43729C16.2026 6.25827 15.0718 5.3893 13.7657 4.97527Z" fill="white"/>
</svg>
