<svg width="55" height="56" viewBox="0 0 55 56" fill="none" xmlns="http://www.w3.org/2000/svg">
<circle cx="27.5" cy="28.1667" r="27" stroke="#727272" stroke-dasharray="5 5"/>
<path d="M32.9813 21.1057H21.2752C20.6099 21.1057 19.9719 21.37 19.5015 21.8404C19.0311 22.3108 18.7668 22.9489 18.7668 23.6142V31.9756C18.7668 32.6409 19.0311 33.279 19.5015 33.7494C19.9719 34.2198 20.6099 34.4841 21.2752 34.4841H32.9813C33.6466 34.4841 34.2846 34.2198 34.7551 33.7494C35.2255 33.279 35.4898 32.6409 35.4898 31.9756V23.6142C35.4898 22.9489 35.2255 22.3108 34.7551 21.8404C34.2846 21.37 33.6466 21.1057 32.9813 21.1057ZM21.2752 32.8118C21.0535 32.8118 20.8408 32.7237 20.684 32.5669C20.5272 32.4101 20.4391 32.1974 20.4391 31.9756V29.9522L23.1984 27.2012C23.3547 27.048 23.5648 26.9622 23.7837 26.9622C24.0025 26.9622 24.2127 27.048 24.369 27.2012L29.9795 32.8118H21.2752ZM33.8175 31.9756C33.8175 32.1974 33.7294 32.4101 33.5726 32.5669C33.4158 32.7237 33.2031 32.8118 32.9813 32.8118H32.3375L29.1518 29.6093L29.8876 28.8735C30.0439 28.7203 30.254 28.6345 30.4729 28.6345C30.6917 28.6345 30.9019 28.7203 31.0582 28.8735L33.8175 31.6245V31.9756ZM33.8175 29.2665L32.2455 27.7029C31.7689 27.2451 31.1337 26.9894 30.4729 26.9894C29.812 26.9894 29.1768 27.2451 28.7002 27.7029L27.9644 28.4387L25.5563 26.0306C25.0798 25.5728 24.4445 25.3171 23.7837 25.3171C23.1228 25.3171 22.4876 25.5728 22.011 26.0306L20.4391 27.5942V23.6142C20.4391 23.3924 20.5272 23.1797 20.684 23.0229C20.8408 22.8661 21.0535 22.778 21.2752 22.778H32.9813C33.2031 22.778 33.4158 22.8661 33.5726 23.0229C33.7294 23.1797 33.8175 23.3924 33.8175 23.6142V29.2665Z" fill="#727272"/>
<g clip-path="url(#clip0_206_740)">
<path d="M47.4189 51.4301C50.4975 51.4301 52.9933 48.9344 52.9933 45.8558C52.9933 42.7772 50.4975 40.2815 47.4189 40.2815C44.3403 40.2815 41.8446 42.7772 41.8446 45.8558C41.8446 48.9344 44.3403 51.4301 47.4189 51.4301Z" fill="#727272" stroke="white" stroke-width="2" stroke-linecap="round" stroke-linejoin="round"/>
<path d="M47.4189 43.6262V48.0857" stroke="white" stroke-width="2" stroke-linecap="round" stroke-linejoin="round"/>
<path d="M45.1892 45.856H49.6487" stroke="white" stroke-width="2" stroke-linecap="round" stroke-linejoin="round"/>
</g>
<defs>
<clipPath id="clip0_206_740">
<rect width="13.3784" height="13.3784" fill="white" transform="translate(40.7297 39.1667)"/>
</clipPath>
</defs>
</svg>
