<svg width="89" height="89" viewBox="0 0 89 89" fill="none" xmlns="http://www.w3.org/2000/svg">
<circle cx="44.5" cy="44.5" r="44" stroke="#1B8392" stroke-linecap="square" stroke-dasharray="5 5"/>
<path d="M53.3668 33.0737H34.4242C33.3477 33.0737 32.3152 33.5014 31.554 34.2626C30.7928 35.0239 30.3651 36.0563 30.3651 37.1329V50.6633C30.3651 51.7398 30.7928 52.7723 31.554 53.5335C32.3152 54.2947 33.3477 54.7224 34.4242 54.7224H53.3668C54.4434 54.7224 55.4758 54.2947 56.237 53.5335C56.9983 52.7723 57.4259 51.7398 57.4259 50.6633V37.1329C57.4259 36.0563 56.9983 35.0239 56.237 34.2626C55.4758 33.5014 54.4434 33.0737 53.3668 33.0737ZM34.4242 52.0163C34.0654 52.0163 33.7212 51.8737 33.4675 51.62C33.2138 51.3663 33.0712 51.0221 33.0712 50.6633V47.3889L37.5362 42.9374C37.7892 42.6895 38.1292 42.5506 38.4834 42.5506C38.8375 42.5506 39.1776 42.6895 39.4305 42.9374L48.5094 52.0163H34.4242ZM54.7199 50.6633C54.7199 51.0221 54.5773 51.3663 54.3236 51.62C54.0698 51.8737 53.7257 52.0163 53.3668 52.0163H52.325L47.1699 46.8342L48.3606 45.6435C48.6135 45.3956 48.9535 45.2567 49.3077 45.2567C49.6619 45.2567 50.0019 45.3956 50.2548 45.6435L54.7199 50.095V50.6633ZM54.7199 46.2794L52.1761 43.7492C51.405 43.0083 50.3771 42.5946 49.3077 42.5946C48.2383 42.5946 47.2104 43.0083 46.4392 43.7492L45.2486 44.9399L41.3518 41.0431C40.5807 40.3023 39.5528 39.8885 38.4834 39.8885C37.414 39.8885 36.3861 40.3023 35.6149 41.0431L33.0712 43.5733V37.1329C33.0712 36.774 33.2138 36.4299 33.4675 36.1761C33.7212 35.9224 34.0654 35.7798 34.4242 35.7798H53.3668C53.7257 35.7798 54.0698 35.9224 54.3236 36.1761C54.5773 36.4299 54.7199 36.774 54.7199 37.1329V46.2794Z" fill="#1B8392"/>
<g clip-path="url(#clip0_159_1876)">
<path d="M76.7296 82.1444C81.7114 82.1444 85.7499 78.1059 85.7499 73.1242C85.7499 68.1424 81.7114 64.1039 76.7296 64.1039C71.7479 64.1039 67.7094 68.1424 67.7094 73.1242C67.7094 78.1059 71.7479 82.1444 76.7296 82.1444Z" fill="#1B8392" stroke="white" stroke-width="2" stroke-linecap="square" stroke-linejoin="round"/>
<path d="M76.7296 69.516V76.7322" stroke="white" stroke-width="2" stroke-linecap="round" stroke-linejoin="round"/>
<path d="M73.1215 73.1241H80.3377" stroke="white" stroke-width="2" stroke-linecap="round" stroke-linejoin="round"/>
</g>
<defs>
<clipPath id="clip0_159_1876">
<rect width="21.6486" height="21.6486" fill="white" transform="translate(65.9053 62.2998)"/>
</clipPath>
</defs>
</svg>
