<svg width="18" height="18" viewBox="0 0 18 18" fill="none" xmlns="http://www.w3.org/2000/svg">
<g clip-path="url(#clip0_6966_16067)">
<path d="M17.2499 8.25045H15.7499V6.75046C15.7499 6.55154 15.6709 6.36078 15.5302 6.22013C15.3896 6.07948 15.1988 6.00046 14.9999 6.00046C14.801 6.00046 14.6102 6.07948 14.4695 6.22013C14.3289 6.36078 14.2499 6.55154 14.2499 6.75046V8.25045H12.7499C12.551 8.25045 12.3602 8.32947 12.2195 8.47012C12.0789 8.61078 11.9999 8.80154 11.9999 9.00045C11.9999 9.19936 12.0789 9.39013 12.2195 9.53078C12.3602 9.67143 12.551 9.75045 12.7499 9.75045H14.2499V11.2504C14.2499 11.4494 14.3289 11.6401 14.4695 11.7808C14.6102 11.9214 14.801 12.0004 14.9999 12.0004C15.1988 12.0004 15.3896 11.9214 15.5302 11.7808C15.6709 11.6401 15.7499 11.4494 15.7499 11.2504V9.75045H17.2499C17.4488 9.75045 17.6395 9.67143 17.7802 9.53078C17.9209 9.39013 17.9999 9.19936 17.9999 9.00045C17.9999 8.80154 17.9209 8.61078 17.7802 8.47012C17.6395 8.32947 17.4488 8.25045 17.2499 8.25045Z" fill="#12B76A"/>
<path d="M6.75 8.99996C7.64002 8.99996 8.51005 8.73604 9.25007 8.24157C9.99009 7.7471 10.5669 7.0443 10.9075 6.22203C11.2481 5.39977 11.3372 4.49497 11.1635 3.62205C10.9899 2.74914 10.5613 1.94731 9.93198 1.31798C9.30265 0.688639 8.50082 0.260056 7.62791 0.0864225C6.75499 -0.087211 5.85019 0.00190401 5.02793 0.342498C4.20566 0.683093 3.50285 1.25987 3.00839 1.99989C2.51392 2.73991 2.25 3.60994 2.25 4.49996C2.25119 5.69307 2.72568 6.83697 3.56934 7.68062C4.41299 8.52428 5.55689 8.99877 6.75 8.99996ZM6.75 1.49996C7.34334 1.49996 7.92336 1.6759 8.41671 2.00555C8.91006 2.33519 9.29458 2.80373 9.52164 3.35191C9.7487 3.90008 9.80811 4.50328 9.69236 5.08523C9.5766 5.66717 9.29088 6.20172 8.87132 6.62128C8.45176 7.04083 7.91721 7.32656 7.33527 7.44231C6.75333 7.55807 6.15013 7.49866 5.60195 7.2716C5.05377 7.04453 4.58524 6.66001 4.25559 6.16667C3.92595 5.67332 3.75 5.0933 3.75 4.49996C3.75 3.70431 4.06607 2.94125 4.62868 2.37864C5.19129 1.81603 5.95435 1.49996 6.75 1.49996Z" fill="#12B76A"/>
<path d="M6.75 10.5005C4.9604 10.5024 3.24466 11.2142 1.97922 12.4797C0.713781 13.7451 0.00198514 15.4609 0 17.2505C0 17.4494 0.0790176 17.6401 0.21967 17.7808C0.360322 17.9214 0.551088 18.0005 0.75 18.0005C0.948912 18.0005 1.13968 17.9214 1.28033 17.7808C1.42098 17.6401 1.5 17.4494 1.5 17.2505C1.5 15.8581 2.05312 14.5227 3.03769 13.5381C4.02226 12.5536 5.35761 12.0005 6.75 12.0005C8.14239 12.0005 9.47774 12.5536 10.4623 13.5381C11.4469 14.5227 12 15.8581 12 17.2505C12 17.4494 12.079 17.6401 12.2197 17.7808C12.3603 17.9214 12.5511 18.0005 12.75 18.0005C12.9489 18.0005 13.1397 17.9214 13.2803 17.7808C13.421 17.6401 13.5 17.4494 13.5 17.2505C13.498 15.4609 12.7862 13.7451 11.5208 12.4797C10.2553 11.2142 8.5396 10.5024 6.75 10.5005Z" fill="#12B76A"/>
</g>
<defs>
<clipPath id="clip0_6966_16067">
<rect width="18" height="18" fill="white"/>
</clipPath>
</defs>
</svg>
