<svg width="18" height="19" viewBox="0 0 18 19" fill="none" xmlns="http://www.w3.org/2000/svg">
<g clip-path="url(#clip0_8079_560)">
<path d="M17.25 8.74976H0.75C0.335786 8.74976 0 9.08554 0 9.49976C0 9.91398 0.335786 10.2498 0.75 10.2498H17.25C17.6642 10.2498 18 9.91398 18 9.49976C18 9.08554 17.6642 8.74976 17.25 8.74976Z" fill="#F3F6F6"/>
<path d="M17.25 3.50024H0.75C0.335786 3.50024 0 3.83603 0 4.25024C0 4.66446 0.335786 5.00024 0.75 5.00024H17.25C17.6642 5.00024 18 4.66446 18 4.25024C18 3.83603 17.6642 3.50024 17.25 3.50024Z" fill="#F3F6F6"/>
<path d="M17.25 14H0.75C0.335786 14 0 14.3358 0 14.75C0 15.1642 0.335786 15.5 0.75 15.5H17.25C17.6642 15.5 18 15.1642 18 14.75C18 14.3358 17.6642 14 17.25 14Z" fill="#F3F6F6"/>
</g>
<defs>
<clipPath id="clip0_8079_560">
<rect width="18" height="18" fill="white" transform="translate(0 0.5)"/>
</clipPath>
</defs>
</svg>
