<svg width="40" height="40" viewBox="0 0 40 40" fill="none" xmlns="http://www.w3.org/2000/svg">
<g id="atom" clip-path="url(#clip0_6644_5191)">
<path id="Vector" d="M20 40C31.0457 40 40 31.0457 40 20C40 8.9543 31.0457 0 20 0C8.9543 0 0 8.9543 0 20C0 31.0457 8.9543 40 20 40Z" fill="#7FC8F1"/>
<path id="Vector_2" d="M40 20C40 19.5146 39.9817 19.0335 39.9477 18.5567L33.4055 11.9855C32.5841 11.1361 31.3006 10.6125 29.6391 10.4461L25.3462 6.15716C24.9516 5.69013 24.3619 5.39333 23.7026 5.39333C23.4181 5.39333 23.1469 5.44903 22.8984 5.54927C22.008 4.70224 21.0272 4.25708 20 4.25708C17.9756 4.25708 16.1309 5.9827 14.8055 9.11614C14.6049 9.59028 14.4192 10.0898 14.2484 10.6108C13.7067 10.5262 13.1774 10.4647 12.6639 10.4279C9.27125 10.1856 6.89492 11.0447 5.97539 12.8482C5.77585 13.2394 5.65281 13.6602 5.60437 14.1057C4.87593 14.4504 4.37195 15.1919 4.37195 16.0514C4.37195 16.639 4.60765 17.1711 4.98953 17.5593L7.8764 20.3991C5.7414 22.9721 5.06546 25.3675 5.97539 27.1518C6.14468 27.4838 6.36359 27.7834 6.6289 28.0503L18.551 39.9474C19.0296 39.9817 19.5127 40 20 40C31.0457 40 40 31.0458 40 20Z" fill="#00ACEA"/>
<path id="Vector_3" d="M31.7821 20C31.8752 19.8946 31.9669 19.789 32.0558 19.6833C34.245 17.079 34.9443 14.6517 34.0246 12.8483C33.105 11.0449 30.7299 10.1853 27.3361 10.428C26.8226 10.4647 26.2932 10.5263 25.7516 10.6108C25.5808 10.0899 25.3952 9.59036 25.1945 9.11622C23.8692 5.98278 22.0244 4.25708 20 4.25708C17.9756 4.25708 16.1309 5.9827 14.8055 9.11614C14.6049 9.59028 14.4192 10.0898 14.2485 10.6108C13.7067 10.5262 13.1774 10.4647 12.6639 10.4279C9.27127 10.1856 6.89494 11.0447 5.97541 12.8482C5.0558 14.6516 5.75502 17.079 7.94423 19.6832C8.03314 19.789 8.12486 19.8945 8.21791 20C8.12486 20.1054 8.03314 20.211 7.94423 20.3168C5.75502 22.921 5.05572 25.3483 5.97541 27.1518C6.79298 28.755 8.76087 29.6123 11.5722 29.6122C11.9231 29.6122 12.2874 29.5989 12.664 29.5719C13.1775 29.5352 13.7069 29.4736 14.2485 29.3891C14.4193 29.91 14.6049 30.4096 14.8056 30.8837C16.131 34.0172 17.9757 35.7428 20.0001 35.7428C22.0245 35.7428 23.8692 34.0172 25.1946 30.8837C25.3952 30.4096 25.5809 29.91 25.7517 29.3891C26.2934 29.4736 26.8227 29.5351 27.3362 29.5719C27.7129 29.5989 28.0768 29.6122 28.428 29.6122C31.2389 29.6122 33.2073 28.7549 34.0248 27.1518C34.9445 25.3483 34.2452 22.921 32.056 20.3168C31.967 20.2111 31.8752 20.1055 31.7821 20ZM27.4476 11.9865C27.7897 11.9621 28.1184 11.95 28.4336 11.95C30.5953 11.95 32.1027 12.5186 32.6328 13.558C33.24 14.749 32.5938 16.615 30.8598 18.6778C30.8069 18.7407 30.7529 18.8036 30.6985 18.8664C29.5987 17.7993 28.3031 16.7629 26.863 15.796C26.7082 14.5093 26.4825 13.2765 26.19 12.1246C26.619 12.0624 27.039 12.0158 27.4476 11.9865ZM22.5202 24.942C21.6812 25.3698 20.8381 25.7576 20 26.1033C19.162 25.7576 18.3188 25.3698 17.4799 24.942C16.4762 24.4302 15.5154 23.88 14.6099 23.3019C14.5062 22.2326 14.4526 21.1267 14.4526 20C14.4526 18.8734 14.5062 17.7675 14.6099 16.6982C15.5153 16.12 16.4762 15.5699 17.4799 15.0581C18.3188 14.6303 19.162 14.2425 20 13.8968C20.8381 14.2425 21.6812 14.6303 22.5202 15.0581C23.5238 15.5699 24.4846 16.12 25.3902 16.6982C25.4938 17.7675 25.5474 18.8734 25.5474 20C25.5474 21.1267 25.4938 22.2325 25.3902 23.3019C24.4846 23.88 23.5238 24.4302 22.5202 24.942ZM25.1324 25.2912C25.0013 26.0899 24.8402 26.8592 24.6505 27.5917C23.8224 27.4081 22.9694 27.1715 22.102 26.8847C22.4785 26.7086 22.8549 26.5253 23.23 26.334C23.8818 26.0016 24.5167 25.653 25.1324 25.2912ZM17.8981 26.8847C17.0306 27.1715 16.1777 27.4081 15.3495 27.5917C15.1599 26.8592 14.9986 26.0899 14.8677 25.2912C15.4832 25.653 16.1182 26.0015 16.77 26.334C17.1453 26.5253 17.5215 26.7086 17.8981 26.8847ZM12.9549 22.1685C12.0043 21.4694 11.1382 20.7417 10.376 20C11.1383 19.2584 12.0044 18.5306 12.9549 17.8316C12.9122 18.5443 12.8902 19.2684 12.8902 20C12.8901 20.7318 12.9122 21.4558 12.9549 22.1685ZM14.8677 14.7089C14.9986 13.9102 15.1599 13.1409 15.3495 12.4084C16.1776 12.592 17.0306 12.8286 17.8981 13.1154C17.5215 13.2915 17.1452 13.4748 16.77 13.6661C16.1182 13.9985 15.4833 14.3471 14.8677 14.7089ZM22.102 13.1154C22.9694 12.8286 23.8224 12.592 24.6505 12.4084C24.8402 13.1409 25.0014 13.9102 25.1324 14.7089C24.5168 14.3471 23.8818 13.9986 23.23 13.6661C22.8548 13.4748 22.4785 13.2915 22.102 13.1154ZM27.0452 17.8316C27.9957 18.5307 28.8618 19.2584 29.6241 20C28.8617 20.7417 27.9956 21.4695 27.0452 22.1685C27.0878 21.4558 27.1099 20.7317 27.1099 20C27.1099 19.2684 27.0878 18.5443 27.0452 17.8316ZM16.2445 9.72489C17.2943 7.24302 18.6631 5.81958 20 5.81958C21.3369 5.81958 22.7057 7.24302 23.7555 9.72489C23.915 10.1022 24.0644 10.4975 24.2038 10.9079C22.846 11.2158 21.4308 11.6557 20 12.2141C18.5692 11.6557 17.154 11.2158 15.7962 10.9079C15.9356 10.4975 16.0849 10.1022 16.2445 9.72489ZM7.36728 13.558C7.97463 12.367 9.86439 11.7943 12.5524 11.9865C12.961 12.0158 13.381 12.0624 13.81 12.1246C13.5176 13.2765 13.2919 14.5093 13.1371 15.796C11.697 16.7629 10.4014 17.7993 9.30166 18.8664C9.2472 18.8036 9.19314 18.7407 9.14033 18.6778C7.40619 16.615 6.75994 14.749 7.36728 13.558ZM12.5524 28.0136C9.86455 28.2057 7.97463 27.633 7.36728 26.4421C6.76002 25.2511 7.40619 23.385 9.14025 21.3223C9.19314 21.2594 9.24713 21.1965 9.30158 21.1337C10.4013 22.2008 11.6969 23.2372 13.137 24.2041C13.2918 25.4908 13.5175 26.7236 13.8099 27.8755C13.381 27.9377 12.961 27.9843 12.5524 28.0136ZM23.7555 30.2752C22.7057 32.7571 21.3369 34.1805 20 34.1805C18.6631 34.1805 17.2943 32.7571 16.2445 30.2752C16.0849 29.8979 15.9356 29.5026 15.7962 29.0922C17.154 28.7843 18.5692 28.3444 20 27.786C21.4309 28.3443 22.846 28.7843 24.2038 29.0922C24.0644 29.5026 23.9151 29.8979 23.7555 30.2752ZM32.6328 26.442C32.0255 27.6329 30.1359 28.2057 27.4476 28.0135C27.039 27.9843 26.619 27.9376 26.19 27.8754C26.4824 26.7236 26.7081 25.4908 26.863 24.204C28.3031 23.2371 29.5987 22.2007 30.6985 21.1336C30.7529 21.1965 30.807 21.2593 30.8598 21.3222C32.5938 23.385 33.2401 25.2511 32.6328 26.442Z" fill="white"/>
<path id="Vector_4" d="M31.782 20C31.875 19.8946 31.9672 19.7891 32.0555 19.6829C34.2453 17.079 34.9445 14.6516 34.025 12.8485C33.1047 11.0446 30.7297 10.1852 27.3359 10.4282C26.8227 10.4649 26.293 10.5266 25.7516 10.611C25.5805 10.0899 25.3953 9.59067 25.1945 9.11646C23.8695 5.98286 22.0242 4.25708 20 4.25708V5.81958C21.3367 5.81958 22.7055 7.24302 23.7555 9.72505C23.9148 10.1024 24.0641 10.4977 24.2039 10.9079C22.8461 11.2157 21.4305 11.6555 20 12.2141V13.8969C20.8383 14.2422 21.6813 14.6305 22.5203 15.0579C23.5234 15.5696 24.4844 16.1204 25.3898 16.6985C25.4937 17.7672 25.5477 18.8735 25.5477 20C25.5477 21.1266 25.4937 22.2329 25.3898 23.3016C24.4844 23.8797 23.5234 24.4305 22.5203 24.9422C21.6813 25.3696 20.8383 25.7579 20 26.1032V27.786C21.4305 28.3446 22.8461 28.7844 24.2039 29.0922C24.0641 29.5024 23.9148 29.8977 23.7555 30.2751C22.7055 32.7571 21.3367 34.1805 20 34.1805V35.743C22.0242 35.743 23.8695 34.0172 25.1945 30.8836C25.3953 30.4094 25.5805 29.9102 25.7516 29.3891C26.293 29.4735 26.8227 29.5352 27.3359 29.5719C27.7125 29.5993 28.0766 29.6126 28.4281 29.6126C31.2391 29.6126 33.207 28.7547 34.025 27.1516C34.9445 25.3485 34.2453 22.9211 32.0555 20.3172C31.9672 20.211 31.875 20.1055 31.782 20ZM23.2297 13.6665C22.8547 13.475 22.4781 13.2915 22.1016 13.1157C22.9695 12.829 23.8227 12.5922 24.6508 12.4086C24.8398 13.1407 25.0016 13.9102 25.132 14.7086C24.5164 14.3469 23.882 13.9985 23.2297 13.6665ZM24.6508 27.5915C23.8227 27.4079 22.9695 27.1711 22.1016 26.8844C22.4781 26.7086 22.8547 26.5251 23.2297 26.3336C23.882 26.0016 24.5164 25.6532 25.132 25.2915C25.0016 26.0899 24.8398 26.8594 24.6508 27.5915ZM27.4477 11.9868C27.7898 11.9618 28.1188 11.95 28.4336 11.95C30.5953 11.95 32.1023 12.5188 32.6328 13.5579C33.2398 14.7493 32.5938 16.6149 30.8594 18.6782C30.807 18.7407 30.7531 18.8032 30.6984 18.8665C29.5984 17.7993 28.3031 16.7625 26.8633 15.7961C26.7078 14.5094 26.4828 13.2766 26.1898 12.1243C26.6188 12.0625 27.0391 12.0157 27.4477 11.9868ZM27.0453 17.8313C27.9961 18.5305 28.8617 19.2586 29.6242 20C28.8617 20.7415 27.9961 21.4696 27.0453 22.1688C27.0875 21.4555 27.1102 20.7321 27.1102 20C27.1102 19.268 27.0875 18.5446 27.0453 17.8313ZM32.6328 26.4422C32.0258 27.6329 30.1359 28.2055 27.4477 28.0133C27.0391 27.9844 26.6188 27.9376 26.1898 27.8758C26.4828 26.7235 26.7078 25.4907 26.8633 24.204C28.3031 23.2376 29.5984 22.2008 30.6984 21.1336C30.7531 21.1969 30.807 21.2594 30.8594 21.3219C32.5938 23.3852 33.2398 25.2508 32.6328 26.4422Z" fill="#FFF5CB"/>
<path id="Vector_5" d="M6.52338 18.2034C7.71178 18.2034 8.67518 17.24 8.67518 16.0516C8.67518 14.8632 7.71178 13.8998 6.52338 13.8998C5.33497 13.8998 4.37158 14.8632 4.37158 16.0516C4.37158 17.24 5.33497 18.2034 6.52338 18.2034Z" fill="#FFAA20"/>
<path id="Vector_6" d="M26.0891 26.1034C27.2775 26.1034 28.2408 25.14 28.2408 23.9516C28.2408 22.7632 27.2775 21.7998 26.0891 21.7998C24.9006 21.7998 23.9373 22.7632 23.9373 23.9516C23.9373 25.14 24.9006 26.1034 26.0891 26.1034Z" fill="#1C2EDE"/>
<path id="Vector_7" d="M23.7023 9.69715C24.8907 9.69715 25.8541 8.73376 25.8541 7.54535C25.8541 6.35695 24.8907 5.39355 23.7023 5.39355C22.5139 5.39355 21.5505 6.35695 21.5505 7.54535C21.5505 8.73376 22.5139 9.69715 23.7023 9.69715Z" fill="#FF127F"/>
<path id="Vector_8" d="M20 23.2812C21.8122 23.2812 23.2812 21.8122 23.2812 20C23.2812 18.1878 21.8122 16.7188 20 16.7188C18.1878 16.7188 16.7188 18.1878 16.7188 20C16.7188 21.8122 18.1878 23.2812 20 23.2812Z" fill="#9CFDFF"/>
<path id="Vector_9" d="M23.2812 20C23.2812 21.8125 21.8125 23.2812 20 23.2812V16.7188C21.8125 16.7188 23.2812 18.1875 23.2812 20Z" fill="#00E8F2"/>
</g>
<defs>
<clipPath id="clip0_6644_5191">
<rect width="40" height="40" fill="white"/>
</clipPath>
</defs>
</svg>
