<svg width="40" height="40" viewBox="0 0 40 40" fill="none" xmlns="http://www.w3.org/2000/svg">
<g id="Group">
<g id="Group_2">
<g id="Group_3">
<g id="Group_4">
<g id="Group_5">
<g id="Group_6">
<g id="Group_7">
<g id="Group_8">
<g id="Group_9">
<path id="Vector" d="M20 40C31.0457 40 40 31.0457 40 20C40 8.9543 31.0457 0 20 0C8.9543 0 0 8.9543 0 20C0 31.0457 8.9543 40 20 40Z" fill="#7584F2"/>
</g>
</g>
</g>
</g>
</g>
</g>
</g>
</g>
<path id="Vector_2" d="M40 20C40 18.1468 39.748 16.3525 39.2762 14.6494L32.7858 8.15889L24.7427 12.1145L28.878 16.2498L28.2219 17.608L18.5912 7.97717L11.032 11.6948L19.424 20.0867L8.58179 29.9658L18.6021 39.9519C19.0639 39.9837 19.5301 40 20 40C31.0457 40 40 31.0457 40 20Z" fill="#4855B7"/>
<g id="Group_10">
<path id="Vector_3" d="M17.8475 15.4984V9.14575H11.7755V15.4984C8.63746 16.6525 6.33996 19.5443 6.04785 23.0072H23.5753C23.2831 19.5443 20.9856 16.6524 17.8475 15.4984Z" fill="white"/>
</g>
<g id="Group_11">
<path id="Vector_4" d="M17.8476 15.4984V9.14575H14.8013V23.0072H23.5753C23.2831 19.5443 20.9856 16.6524 17.8476 15.4984Z" fill="#E9EDF5"/>
</g>
<g id="Group_12">
<path id="Vector_5" d="M6.07078 22.7755C6.03508 23.0976 6.01562 23.4247 6.01562 23.7564C6.01562 28.6143 9.95367 32.5523 14.8116 32.5523C19.6695 32.5523 23.6075 28.6143 23.6075 23.7564C23.6075 23.4247 23.588 23.0976 23.5523 22.7755H6.07078Z" fill="#FE6A16"/>
</g>
<g id="Group_13">
<path id="Vector_6" d="M23.5523 22.7755H14.8013V32.5522C14.8047 32.5522 14.8081 32.5523 14.8115 32.5523C19.6694 32.5523 23.6074 28.6143 23.6074 23.7564C23.6075 23.4247 23.5881 23.0976 23.5523 22.7755Z" fill="#F24500"/>
</g>
<g id="Group_14">
<path id="Vector_7" d="M11.032 7.97729H18.5911V11.6949H11.032V7.97729Z" fill="#E9EDF5"/>
</g>
<g id="Group_15">
<path id="Vector_8" d="M14.8013 7.97717H18.5911V11.6948H14.8013V7.97717Z" fill="#CDD2E1"/>
</g>
<g id="Group_16">
<path id="Vector_9" d="M25.7169 10.1367H31.8115V20.0546H25.7169V10.1367Z" fill="white"/>
</g>
<g id="Group_17">
<path id="Vector_10" d="M28.7866 10.1367H31.8115V20.0546H28.7866V10.1367Z" fill="#E9EDF5"/>
</g>
<g id="Group_18">
<path id="Vector_11" d="M25.7169 19.6798V28.9772C25.7169 30.6601 27.0812 32.0244 28.7642 32.0244C30.4472 32.0244 31.8115 30.6601 31.8115 28.9772V19.6798H25.7169Z" fill="#FFCE00"/>
</g>
<g id="Group_19">
<path id="Vector_12" d="M28.7866 19.6798V32.024C30.4592 32.0118 31.8115 30.6527 31.8115 28.9772V19.6798H28.7866Z" fill="#FDBA12"/>
</g>
<g id="Group_20">
<path id="Vector_13" d="M24.7427 8.15894H32.7857V12.1146H24.7427V8.15894Z" fill="#E9EDF5"/>
</g>
<g id="Group_21">
<path id="Vector_14" d="M28.7866 8.15894H32.7858V12.1146H28.7866V8.15894Z" fill="#CDD2E1"/>
</g>
<g id="Group_22">
<path id="Vector_15" d="M14.1505 30.3307C15.1134 30.3307 15.894 29.5501 15.894 28.5871C15.894 27.6242 15.1134 26.8436 14.1505 26.8436C13.1876 26.8436 12.407 27.6242 12.407 28.5871C12.407 29.5501 13.1876 30.3307 14.1505 30.3307Z" fill="white"/>
</g>
<g id="Group_23">
<path id="Vector_16" d="M15.894 28.5872C15.894 27.8545 15.4417 27.2277 14.8013 26.9697V30.2046C15.4417 29.9468 15.894 29.32 15.894 28.5872Z" fill="#E9EDF5"/>
</g>
<g id="Group_24">
<path id="Vector_17" d="M10.1257 26.0802C10.7775 26.0802 11.3059 25.5518 11.3059 24.9C11.3059 24.2482 10.7775 23.7198 10.1257 23.7198C9.47393 23.7198 8.94556 24.2482 8.94556 24.9C8.94556 25.5518 9.47393 26.0802 10.1257 26.0802Z" fill="white"/>
</g>
<g id="Group_25">
<path id="Vector_18" d="M29.9444 23.4409C30.5962 23.4409 31.1246 22.9125 31.1246 22.2607C31.1246 21.6089 30.5962 21.0806 29.9444 21.0806C29.2927 21.0806 28.7643 21.6089 28.7643 22.2607C28.7643 22.9125 29.2927 23.4409 29.9444 23.4409Z" fill="#E9EDF5"/>
</g>
<g id="Group_26">
<path id="Vector_19" d="M20 27.2603C20.6518 27.2603 21.1801 26.732 21.1801 26.0802C21.1801 25.4284 20.6518 24.9 20 24.9C19.3482 24.9 18.8198 25.4284 18.8198 26.0802C18.8198 26.732 19.3482 27.2603 20 27.2603Z" fill="#E9EDF5"/>
</g>
<g id="Group_27">
<path id="Vector_20" d="M27.5841 27.0323C28.2359 27.0323 28.7642 26.5039 28.7642 25.8522C28.7642 25.2004 28.2359 24.672 27.5841 24.672C26.9323 24.672 26.4039 25.2004 26.4039 25.8522C26.4039 26.5039 26.9323 27.0323 27.5841 27.0323Z" fill="white"/>
</g>
</g>
</svg>
