<svg width="40" height="40" viewBox="0 0 40 40" fill="none" xmlns="http://www.w3.org/2000/svg">
<g clip-path="url(#clip0_6644_5212)">
<path d="M20 40C31.0457 40 40 31.0457 40 20C40 8.9543 31.0457 0 20 0C8.9543 0 0 8.9543 0 20C0 31.0457 8.9543 40 20 40Z" fill="#F7E3B3"/>
<path d="M30.5 8.47571H23.3761L19.0793 8.47579H14.7823L14.8029 8.49665L12.4537 8.64907L12.4942 12.9014L12.5 23L7.5 27.5L20 40C31.0457 40 40 31.0457 40 20C40 18.676 40.0794 18.5444 39.834 17.2924L30.5 8.47571Z" fill="#F0CA99"/>
<g clip-path="url(#clip1_6644_5212)">
<path d="M29.0527 8.32227H11.9473C8.66786 8.32227 6 10.9901 6 14.2695V23.8387C6 27.1181 8.66786 29.786 11.9473 29.786H12.8298L14.8983 32.4102C15.0596 32.6147 15.3054 32.7339 15.5656 32.7339C15.8258 32.7339 16.0719 32.6147 16.2329 32.4102L18.3014 29.786H29.0527C32.3321 29.786 35 27.1181 35 23.8387V14.2695C35 10.9901 32.3321 8.32227 29.0527 8.32227Z" fill="#FF337A"/>
<path d="M29.0527 8.32227H21.6478V29.786H29.0527C32.3321 29.786 35 27.1181 35 23.8387V14.2695C35 10.9901 32.3321 8.32227 29.0527 8.32227Z" fill="#D1005B"/>
<path d="M16.6951 15.1425H14.6483C14.6443 15.1425 14.6406 15.1398 14.6395 15.136L14.0069 13.1895C13.9438 12.9952 13.7711 12.8698 13.5671 12.8698H13.5668C13.3628 12.8698 13.19 12.9952 13.127 13.1895L12.4944 15.136C12.4933 15.1398 12.4896 15.1425 12.4856 15.1425H10.4388C10.2346 15.1425 10.062 15.2679 9.99892 15.4622C9.93564 15.6562 10.0016 15.8593 10.1669 15.9792L11.8227 17.1824C11.826 17.1848 11.8273 17.189 11.8262 17.1928L11.1937 19.1396C11.1306 19.3336 11.1966 19.5368 11.3618 19.6567C11.4444 19.7169 11.5391 19.7467 11.6338 19.7467C11.7282 19.7467 11.8229 19.7169 11.9057 19.6567L13.5613 18.4537C13.5648 18.4511 13.5693 18.4513 13.5724 18.4537L15.2284 19.6567C15.3935 19.7768 15.607 19.7768 15.7721 19.6567C15.9373 19.5368 16.0033 19.3336 15.9402 19.1396L15.3076 17.193C15.3065 17.189 15.3079 17.1848 15.3112 17.1824L16.967 15.9792C17.1321 15.8593 17.198 15.6562 17.1352 15.4622C17.0719 15.2679 16.8993 15.1425 16.6951 15.1425Z" fill="#FFE95C"/>
<path d="M18.8163 13.1051H19.4236C19.8929 13.1051 20.2732 12.7248 20.2732 12.2555C20.2732 11.7862 19.8929 11.4059 19.4236 11.4059H18.8163C18.347 11.4059 17.9667 11.7862 17.9667 12.2555C17.9667 12.7248 18.347 13.1051 18.8163 13.1051Z" fill="#FFE95C"/>
<path d="M19.4236 19.5026H18.8163C18.347 19.5026 17.9667 19.8829 17.9667 20.3522C17.9667 20.8214 18.347 21.2018 18.8163 21.2018H19.4236C19.8929 21.2018 20.2732 20.8214 20.2732 20.3522C20.2732 19.8829 19.8929 19.5026 19.4236 19.5026Z" fill="#FFE95C"/>
<path d="M20.7617 15.4543H20.1542C19.6849 15.4543 19.3046 15.8347 19.3046 16.304C19.3046 16.773 19.6849 17.1536 20.1542 17.1536H20.7617C21.231 17.1536 21.6113 16.773 21.6113 16.304C21.6113 15.8347 21.231 15.4543 20.7617 15.4543Z" fill="#FFE95C"/>
</g>
</g>
<defs>
<clipPath id="clip0_6644_5212">
<rect width="40" height="40" fill="white"/>
</clipPath>
<clipPath id="clip1_6644_5212">
<rect width="29" height="29" fill="white" transform="translate(6 6)"/>
</clipPath>
</defs>
</svg>
