<svg width="40" height="40" viewBox="0 0 40 40" fill="none" xmlns="http://www.w3.org/2000/svg">
<g id="Group">
<path id="Vector" d="M20 40C31.0457 40 40 31.0457 40 20C40 8.9543 31.0457 0 20 0C8.9543 0 0 8.9543 0 20C0 31.0457 8.9543 40 20 40Z" fill="#C3E54D"/>
<path id="Vector_2" d="M40 20.0001L39.9999 19.9915L30.6349 10.6265L7.85156 29.3737L18.4155 39.9376C18.9384 39.9787 19.4666 40.0001 20 40.0001C31.0457 40.0001 40 31.0458 40 20.0001Z" fill="#9BC933"/>
<path id="Vector_3" d="M30.6349 10.6265H20L19.0502 27.2965L30.6349 26.3466V10.6265Z" fill="#9ABADB"/>
<path id="Vector_4" d="M9.36511 10.6265V26.3466L20 27.2965V10.6265H9.36511Z" fill="#D1E8FF"/>
<path id="Vector_5" d="M32.1485 26.3466H20L19.0502 27.8601L20 29.3736H32.1485V26.3466Z" fill="#D1E8FF"/>
<path id="Vector_6" d="M7.85156 26.3469H20V29.374H7.85156V26.3469Z" fill="#F5F5FF"/>
<path id="Vector_7" d="M29.2113 12.05H20L19.0502 18.4865L20 24.9229H29.2113V12.05Z" fill="#294B6E"/>
<path id="Vector_8" d="M10.7891 12.05H20V24.9227H10.7891V12.05Z" fill="#6283A3"/>
<path id="Vector_9" d="M16.3378 22.2579L12.5664 18.4865L16.3378 14.7151L17.3445 15.7217L14.5797 18.4865L17.3445 21.2513L16.3378 22.2579Z" fill="#F5F5FF"/>
<path id="Vector_10" d="M23.6622 22.2579L22.6555 21.2513L25.4203 18.4865L22.6555 15.7217L23.6622 14.7151L27.4336 18.4865L23.6622 22.2579Z" fill="#D1E8FF"/>
<path id="Vector_11" d="M19.8204 23.0389L18.4241 22.7613L20.179 13.9355L21.5754 14.2131L19.8204 23.0389Z" fill="#D1E8FF"/>
</g>
</svg>
