<svg width="40" height="40" viewBox="0 0 40 40" fill="none" xmlns="http://www.w3.org/2000/svg">
<g id="computer 1" clip-path="url(#clip0_6644_5200)">
<path id="Vector" d="M20.0003 39.9994C8.95479 39.9994 0.000629425 31.0452 0.000629425 19.9997C0.000629425 8.95416 8.95479 0 20.0003 0C31.0458 0 40 8.95416 40 19.9997C40 31.0452 31.0458 39.9994 20.0003 39.9994Z" fill="#00D9E0"/>
<path id="Vector_2" d="M39.8481 19.6332C39.8481 16.6536 39.1955 13.8269 38.0271 11.2865L34.7698 8.02903C34.5694 7.6831 34.1958 7.44849 33.7693 7.44849H5.9268C5.29086 7.44849 4.77063 7.96872 4.77063 8.60466V27.0851C4.77063 27.5115 5.00524 27.8851 5.35118 28.0855L16.6419 39.3762C17.6859 39.5445 18.7565 39.6332 19.848 39.6332C30.8938 39.6331 39.8481 30.6788 39.8481 19.6332Z" fill="#00B7BE"/>
<path id="Vector_3" d="M16.6004 28.162H23.3994V32.9138H16.6004V28.162Z" fill="#6D76E7"/>
<g id="Group">
<path id="Vector_4" d="M16.6005 28.1621H20.0002V32.9139H16.6005V28.1621Z" fill="#394CE2"/>
<path id="Vector_5" d="M6.07872 28.608H33.9212C34.5572 28.608 35.0774 28.0878 35.0774 27.4518V8.97136C35.0774 8.33542 34.5572 7.81519 33.9212 7.81519H6.07872C5.44279 7.81519 4.92255 8.33542 4.92255 8.97136V27.4518C4.92263 28.0877 5.44286 28.608 6.07872 28.608Z" fill="#394CE2"/>
</g>
<path id="Vector_6" d="M6.0788 7.81519H20.0004V28.6078H6.07888C5.44294 28.6078 4.92271 28.0876 4.92271 27.4517V8.97136C4.92271 8.3355 5.44295 7.81519 6.0788 7.81519Z" fill="#1B2DDD"/>
<path id="Vector_7" d="M6.49018 9.47339H33.5094V26.2038H6.49018V9.47339Z" fill="#F5F5F5"/>
<path id="Vector_8" d="M6.49036 9.47339H20.0004V26.2038H6.49036V9.47339Z" fill="#E1E1E3"/>
<path id="Vector_9" d="M13.5839 33.6703C13.5839 32.6466 14.4215 31.8091 15.4452 31.8091H24.5549C25.5786 31.8091 26.4161 32.6466 26.4161 33.6703V35.3499H13.5838V33.6703H13.5839Z" fill="#394CE2"/>
<path id="Vector_10" d="M13.584 35.3499V33.6703C13.584 32.6466 14.4215 31.8091 15.4452 31.8091H20.0004V35.3501H13.584V35.3499Z" fill="#1B2DDD"/>
<path id="Vector_11" d="M7.98318 20.108H15.9093L17.7566 18.3546H20.0004V17.7015H17.4961L15.6488 19.455H7.98318V20.108Z" fill="#394CE2"/>
<path id="Vector_12" d="M20.0004 19.0624C19.4293 19.0624 18.9663 18.5994 18.9663 18.0283C18.9663 17.4572 19.4293 16.9943 20.0004 16.9943C20.5715 16.9943 21.0344 17.4572 21.0344 18.0283C21.0344 18.5994 20.5715 19.0624 20.0004 19.0624Z" fill="#FF4F19"/>
<path id="Vector_13" d="M20 19.0621C19.4289 19.0621 18.9659 18.5992 18.9659 18.0281C18.9659 17.457 19.4289 16.994 20 16.994H20.0002V19.062C20.0002 19.062 20.0002 19.0621 20 19.0621Z" fill="#ED2400"/>
<path id="Vector_14" d="M7.98309 16.143H16.399L18.8072 13.8573H25.2482V13.2042H18.5466L16.1385 15.4899H7.98309V16.143Z" fill="#6D76E7"/>
<path id="Vector_15" d="M18.8072 13.8573L16.3991 16.143H7.98318V15.4899H16.1386L18.5467 13.2042H20.0004V13.8573H18.8072Z" fill="#394CE2"/>
<path id="Vector_16" d="M25.4116 14.5645C24.8405 14.5645 24.3776 14.1015 24.3776 13.5304C24.3776 12.9593 24.8405 12.4963 25.4116 12.4963C25.9827 12.4963 26.4457 12.9593 26.4457 13.5304C26.4457 14.1015 25.9827 14.5645 25.4116 14.5645Z" fill="#FF4F19"/>
<path id="Vector_17" d="M15.9082 23.8512H23.4211L25.8293 21.5655H32.0168V20.9125H25.5686L23.1604 23.1982H15.9082V23.8512Z" fill="#6D76E7"/>
<path id="Vector_18" d="M15.9082 23.198H20.0004V23.851H15.9082V23.198Z" fill="#394CE2"/>
<path id="Vector_19" d="M15.9081 24.5586C15.337 24.5586 14.874 24.0956 14.874 23.5245C14.874 22.9534 15.337 22.4905 15.9081 22.4905C16.4792 22.4905 16.9421 22.9534 16.9421 23.5245C16.9421 24.0956 16.4792 24.5586 15.9081 24.5586Z" fill="#ED2400"/>
</g>
<defs>
<clipPath id="clip0_6644_5200">
<rect width="40" height="40" fill="white" transform="matrix(-1 0 0 1 40 0)"/>
</clipPath>
</defs>
</svg>
