<svg width="40" height="40" viewBox="0 0 40 40" fill="none" xmlns="http://www.w3.org/2000/svg">
<g clip-path="url(#clip0_6644_5196)">
<path d="M20 40C31.0457 40 40 31.0457 40 20C40 8.9543 31.0457 0 20 0C8.9543 0 0 8.9543 0 20C0 31.0457 8.9543 40 20 40Z" fill="#1DD882"/>
<path d="M20.8969 39.9802C31.2712 39.5224 39.5919 31.1612 39.9855 20.7704L27.1874 7.97241L15.5302 34.4152L17.113 35.998L17.0155 36.099L20.8969 39.9802Z" fill="#20B76F"/>
<path d="M16.2344 33.1873L17.0156 36.099H20.0011L20.6349 34.7502L20.0916 33.1873H16.2344Z" fill="#E9EDF5"/>
<path d="M23.7656 33.1873H20.0011V36.099H22.9844L23.7656 33.1873Z" fill="#CDD2E1"/>
<path d="M19.9317 4.67281C14.7074 4.7096 10.4231 9.11281 10.5232 14.3362C10.5697 16.7625 11.5278 18.9655 13.0692 20.617C14.2048 21.8337 14.9564 23.3585 15.2692 24.9932L16.2577 30.1601H20.0916L20.7471 19.4003L20.0916 4.67374C20.0384 4.6732 19.9852 4.67249 19.9317 4.67281Z" fill="#FFCE00"/>
<path d="M20.0011 4.67322V30.1601H23.7423L24.7309 24.9928C25.0476 23.3374 25.8313 21.8109 26.9732 20.5713C28.5286 18.8827 29.4785 16.6278 29.4785 14.1511C29.4785 8.91673 25.2354 4.67392 20.0011 4.67322Z" fill="#FDBA12"/>
<path d="M15.5302 27.7507V34.4152H20.0011L20.8527 31.083L20.0916 27.7507H15.5302Z" fill="white"/>
<path d="M20.0011 27.7507H24.4698V34.4151H20.0011V27.7507Z" fill="#E9EDF5"/>
<path d="M19.1458 27.7782H19.8958L16.5624 15.3616C16.6458 15.3616 16.7291 15.3616 16.8124 15.3616C17.2291 15.3616 17.6458 15.1949 17.9791 14.8616C18.1457 14.6949 18.3124 14.6116 18.5624 14.6116C18.8124 14.6116 18.9791 14.6949 19.1458 14.8616C19.7291 15.5282 20.7291 15.5282 21.3124 14.8616C21.4791 14.6949 21.6458 14.6116 21.8958 14.6116C22.0624 14.6116 22.3124 14.6949 22.4791 14.8616C22.8125 15.1949 23.1458 15.3616 23.6458 15.3616C23.7291 15.3616 23.8124 15.3616 23.8958 15.3616L20.6458 27.7782H21.3958L24.8124 14.7782C24.8124 14.6116 24.8124 14.4449 24.6458 14.3616C24.4791 14.2782 24.3124 14.3616 24.2291 14.4449C24.0625 14.6116 23.8958 14.6949 23.7291 14.6949C23.4791 14.6949 23.3125 14.6116 23.0625 14.4449C22.7291 14.1116 22.3958 13.9449 21.9791 13.9449C21.5624 13.9449 21.2291 14.1116 20.8958 14.4449C20.5624 14.7783 20.0624 14.7783 19.7291 14.4449C19.4791 14.1116 19.0625 13.9449 18.6458 13.9449C18.2291 13.9449 17.8124 14.1116 17.5624 14.4449C17.3958 14.6116 17.1458 14.6949 16.8958 14.6949C16.7291 14.6949 16.4791 14.6116 16.3958 14.4449C16.3124 14.3616 16.1458 14.2783 15.9791 14.3616C15.8125 14.4449 15.7291 14.6116 15.8125 14.7782L19.1458 27.7782Z" fill="#E9EDF5"/>
</g>
<defs>
<clipPath id="clip0_6644_5196">
<rect width="40" height="40" fill="white"/>
</clipPath>
</defs>
</svg>
