<svg width="40" height="40" viewBox="0 0 40 40" fill="none" xmlns="http://www.w3.org/2000/svg">
<g id="Group">
<g id="Group_2">
<g id="Group_3">
<g id="Group_4">
<g id="Group_5">
<g id="XMLID_4577_">
<g id="XMLID_4578_">
<g id="XMLID_4579_">
<g id="XMLID_4580_">
<g id="XMLID_4581_">
<g id="XMLID_4582_">
<g id="XMLID_4583_">
<g id="XMLID_4756_">
<g id="XMLID_4757_">
<g id="XMLID_4758_">
<g id="XMLID_4759_">
<g id="XMLID_4760_">
<g id="XMLID_4761_">
<g id="XMLID_4762_">
<g id="XMLID_4763_">
<path id="Vector" d="M20 40C31.0457 40 40 31.0457 40 20C40 8.9543 31.0457 0 20 0C8.9543 0 0 8.9543 0 20C0 31.0457 8.9543 40 20 40Z" fill="#80D261"/>
</g>
</g>
</g>
</g>
</g>
</g>
</g>
</g>
</g>
</g>
</g>
</g>
</g>
</g>
</g>
</g>
</g>
</g>
</g>
<path id="Vector_2" d="M12.4726 38.5351C14.7961 39.4797 17.3372 40 20 40C31.0457 40 40 31.0457 40 20C40 19.3557 39.9695 18.7183 39.9099 18.0896L27.9865 6.16614L12.4615 17.9917L19.1339 24.6642L4.72498 30.7875L12.4726 38.5351Z" fill="#08B865"/>
<g id="Group_6">
<path id="Vector_3" d="M24.9704 4.75208H15.0296C12.8623 4.75208 11.1055 6.50895 11.1055 8.67622V15.0259C11.1055 17.1932 12.8623 18.95 15.0296 18.95H17.9745L20 22.1314L22.0254 18.95H24.9703C27.1376 18.95 28.8945 17.1931 28.8945 15.0258V8.67614C28.8945 6.50895 27.1376 4.75208 24.9704 4.75208Z" fill="#367BEA"/>
<path id="Vector_4" d="M22.0254 18.95H24.9703C27.1376 18.95 28.8945 17.1932 28.8945 15.0259V8.67622C28.8945 6.50903 27.1376 4.75208 24.9703 4.75208H20V22.1315L22.0254 18.95Z" fill="#1C5BC9"/>
<path id="Vector_5" d="M20.2014 11.9887L18.1856 8.78062H17.087V14.3541H18.2526V11.078L20.2684 14.3541H21.367V8.77234H20.2014V11.9887Z" fill="white"/>
<path id="Vector_6" d="M20.2684 14.3541H21.367V8.77234H20.2014V11.9887L20 11.6681V13.918L20.2684 14.3541Z" fill="#E0E0E0"/>
<path id="Vector_7" d="M24.1219 22.9323C22.2885 22.9323 20.7099 24.0233 20 25.5915C19.29 24.0233 17.7114 22.9323 15.878 22.9323H6.43933V28.3251H17.8308L20 30.0073L22.1692 28.3251H33.5607V22.9323H24.1219Z" fill="white"/>
<g id="Group_7">
<path id="Vector_8" d="M24.122 22.9323C22.2885 22.9323 20.7099 24.0233 20 25.5915V30.0073L22.1691 28.3251H33.5606V22.9323H24.122Z" fill="#E0E0E0"/>
</g>
<path id="Vector_9" d="M35.275 27.8309H23.0157C22.2958 27.8309 21.6075 28.1269 21.1122 28.6493L20 29.8224L18.8878 28.6493C18.3925 28.1269 17.7042 27.8309 16.9843 27.8309H4.72498V30.7873H16.3308C16.9997 30.7873 17.5804 31.2486 17.7318 31.9002L18.0311 33.1894H21.9688L22.2682 31.9002C22.4195 31.2486 23.0002 30.7873 23.6692 30.7873H35.275V27.8309Z" fill="#52525B"/>
<path id="Vector_10" d="M24.6435 10.9805V12.146H25.8919C25.7462 12.7034 25.3684 13.1885 24.6412 13.1885C23.745 13.1885 23.0159 12.4594 23.0159 11.5632C23.0159 10.667 23.745 9.93789 24.6412 9.93789C24.967 9.93789 25.281 10.0337 25.5495 10.2151L26.0324 10.5413L26.6849 9.57554L26.202 9.24929C25.7401 8.93726 25.2004 8.77234 24.6412 8.77234C23.1023 8.77234 21.8503 10.0244 21.8503 11.5632C21.8503 13.102 23.1023 14.3541 24.6412 14.3541C26.1067 14.3541 27.1301 13.2064 27.1301 11.5632V10.9804H24.6435V10.9805Z" fill="#E0E0E0"/>
<g id="Group_8">
<path id="Vector_11" d="M23.0158 27.8309C22.2959 27.8309 21.6076 28.1269 21.1123 28.6493L20 29.8224V33.1894H21.9688L22.2682 31.9002C22.4195 31.2486 23.0002 30.7873 23.6692 30.7873H35.275V27.8309H23.0158Z" fill="#2C2C33"/>
</g>
<g id="Group_9">
<path id="Vector_12" d="M13.5485 14.3541H16.5797V13.1801H14.7225V12.1502H16.4428V10.9762H14.7225V9.9464H16.5797V8.77234H13.5485V14.3541Z" fill="white"/>
</g>
</g>
</g>
</svg>
