<svg width="40" height="40" viewBox="0 0 40 40" fill="none" xmlns="http://www.w3.org/2000/svg">
<g id="Group">
<path id="Vector" d="M20 40C31.0457 40 40 31.0457 40 20C40 8.9543 31.0457 0 20 0C8.9543 0 0 8.9543 0 20C0 31.0457 8.9543 40 20 40Z" fill="#B7C958"/>
<path id="Vector_2" d="M28.4 8.8L19.9513 14.5571L10.7058 23.1372L15.7372 28.1686L13.0244 30.8814L12.8 31.2L20.6198 39.9894C31.3786 39.6618 40 30.8382 40 20C40 18.546 39.8435 17.1287 39.5488 15.7629L32 8L28.4 8.8Z" fill="#89AA3B"/>
<g id="Group_2">
<path id="Vector_3" d="M30.1778 7.59998H20.1712L17.8441 19.6726L20.1712 29.7852H30.1778C32.7442 29.7852 34.8321 27.6973 34.8321 25.1309V12.2542C34.8321 9.68787 32.7442 7.59998 30.1778 7.59998Z" fill="#FF4340"/>
<path id="Vector_4" d="M9.85419 7.59998C7.28784 7.59998 5.19995 9.68787 5.19995 12.2542V25.1309C5.19995 27.6973 7.28784 29.7852 9.85419 29.7852H11.4832V33.9363L18.7477 29.7852H20.1711V7.59998H9.85419Z" fill="#FD6717"/>
</g>
<g id="Group_3">
<path id="Vector_5" d="M11.6 24.6601H17.6868V22.3068H13.9533V20.2299H17.4115V17.8765H13.9533V15.7996H17.6868V13.4463H11.6V24.6601Z" fill="#FFF7F7"/>
<path id="Vector_6" d="M25.0885 18.0197C24.0002 17.6183 22.9863 17.1812 22.6646 17.0405C22.4506 16.8636 22.4582 16.6198 22.4728 16.5176C22.4939 16.371 22.6013 16.0123 23.1428 15.8492C24.3833 15.4755 25.5386 16.3986 25.5501 16.4079L25.5429 16.402L27.0572 14.6006C26.9719 14.5288 24.9372 12.8508 22.464 13.5958C21.2073 13.9744 20.3181 14.9658 20.1433 16.1831C19.9792 17.3268 20.475 18.4269 21.4373 19.0543L21.5154 19.1053L21.6005 19.1432C21.6524 19.1663 22.8855 19.7152 24.2742 20.2275C24.5692 20.3363 25.5229 20.741 25.409 21.3793C25.324 21.8552 24.7382 22.3475 23.9049 22.3475C23.0324 22.3475 22.1935 21.9964 21.6606 21.4085L19.9169 22.9888C20.9029 24.0769 22.3565 24.7009 23.9049 24.7009C25.818 24.7009 27.4249 23.4779 27.7257 21.793C27.9524 20.5228 27.3787 18.8645 25.0885 18.0197Z" fill="#F3E8E5"/>
</g>
</g>
</svg>
