<svg width="40" height="40" viewBox="0 0 40 40" fill="none" xmlns="http://www.w3.org/2000/svg">
<g clip-path="url(#clip0_6644_5193)">
<path d="M20 40C31.0457 40 40 31.0457 40 20C40 8.9543 31.0457 0 20 0C8.9543 0 0 8.9543 0 20C0 31.0457 8.9543 40 20 40Z" fill="#FF6C52"/>
<path d="M40 20C40 17.7522 39.6291 15.591 38.9453 13.5742L30.7024 5.3313L4.12756 26.1192L11.4675 33.4591L9.29756 34.6688L13.5741 38.9454C15.5909 39.6292 17.7522 40 20 40C31.0457 40 40 31.0458 40 20Z" fill="#F92814"/>
<path d="M30.7024 5.3313H9.29761V34.6688H25.6775L30.7024 29.6438V5.3313Z" fill="white"/>
<path d="M20.0094 5.3313V34.6688H25.6775L30.7024 29.6438V5.3313H20.0094Z" fill="#E9EDF5"/>
<path d="M14.8457 16.872V16.3648C14.5286 16.7452 13.9158 16.9988 13.2607 16.9988C12.4787 16.9988 11.5066 16.4705 11.5066 15.3187C11.5066 14.0824 12.4787 13.6809 13.2607 13.6809C13.9369 13.6809 14.5392 13.8923 14.8457 14.2727V13.6598C14.8457 13.2159 14.4653 12.9201 13.8101 12.9201C13.3029 12.9201 12.7746 13.1102 12.3625 13.459L11.7813 12.434C12.4364 11.8739 13.3135 11.6415 14.0954 11.6415C15.3211 11.6415 16.4729 12.0959 16.4729 13.6809V16.872H14.8457ZM14.8457 15.5617V15.1073C14.6766 14.8748 14.2962 14.748 13.9369 14.748C13.5037 14.748 13.1232 14.9383 13.1232 15.3398C13.1232 15.7413 13.5036 15.9315 13.9369 15.9315C14.2962 15.9316 14.6766 15.8048 14.8457 15.5617Z" fill="#555A66"/>
<path d="M17.5299 12.4234V11.5569C19.453 10.2149 19.7383 9.94018 19.7383 9.58096C19.7383 9.26393 19.4847 9.08432 19.1149 9.08432C18.6394 9.08432 18.185 9.36963 17.9842 9.60205L17.3713 8.84127C17.8469 8.32353 18.5654 8.1333 19.1466 8.1333C20.2138 8.1333 20.9429 8.62994 20.9429 9.4858C20.9429 10.0987 20.4885 10.6164 19.2734 11.4724H20.9746V12.4234H17.5299Z" fill="#555A66"/>
<path d="M20.0094 11.4724H20.9746V12.4234H20.0094V11.4724Z" fill="#333940"/>
<path d="M20.9432 9.48584C20.9432 8.88818 20.5877 8.46568 20.0098 8.26514V10.9181C20.6777 10.3673 20.9432 9.95436 20.9432 9.48584Z" fill="#333940"/>
<path d="M21.6193 14.0961V13.124H26.3637V14.0961H21.6193ZM21.6193 16.0615V15.0894H26.3637V16.0615H21.6193Z" fill="#333940"/>
<path d="M25.6775 34.6688L30.7024 29.6438H25.6775V34.6688Z" fill="#CDD2E1"/>
<path d="M24.0132 20.9183L28.8666 23.5187L24.0132 26.1191L23.2339 23.5187L24.0132 20.9183Z" fill="#FFE89C"/>
<path d="M23.2351 23.5145L23.2339 23.5187L24.0132 26.1191L28.8666 23.5187L28.8587 23.5145H23.2351Z" fill="#FAD17F"/>
<path d="M26.3334 22.1615V24.876L28.8666 23.5188L26.3334 22.1615Z" fill="#555A66"/>
<path d="M26.3334 23.5145V24.8759L28.8666 23.5187L26.3334 23.5145Z" fill="#333940"/>
<path d="M4.12756 20.9183H24.0132V26.1191H4.12756V20.9183Z" fill="#FFCE00"/>
<path d="M4.12756 23.5145H24.0132V26.1191H4.12756V23.5145Z" fill="#FDBA12"/>
<path d="M4.12756 22.3579H24.0132V24.6795H4.12756V22.3579Z" fill="#FDBA12"/>
<path d="M4.12756 23.5145H24.0132V24.6795H4.12756V23.5145Z" fill="#FFA300"/>
</g>
<defs>
<clipPath id="clip0_6644_5193">
<rect width="40" height="40" fill="white"/>
</clipPath>
</defs>
</svg>
