<svg width="40" height="40" viewBox="0 0 40 40" fill="none" xmlns="http://www.w3.org/2000/svg">
<g id="Group">
<path id="Vector" d="M20 40C31.0457 40 40 31.0457 40 20C40 8.9543 31.0457 0 20 0C8.9543 0 0 8.9543 0 20C0 31.0457 8.9543 40 20 40Z" fill="#FF9441"/>
<path id="Vector_2" d="M7.39197 32.6081L13.8041 39.0202C15.7551 39.6553 17.8371 40 20 40C31.0457 40 40 31.0457 40 20C40 17.8371 39.6553 15.755 39.0202 13.8041L32.6081 7.39197L7.39197 32.6081Z" fill="#FF7149"/>
<g id="Group_2">
<path id="Vector_3" d="M32.6081 7.39197H21.4775L16.3063 23.6445H32.6081V7.39197Z" fill="#54A5FF"/>
<path id="Vector_4" d="M10.3469 7.39197H21.4775V23.6445H10.3469V7.39197Z" fill="#89C1FF"/>
<path id="Vector_5" d="M29.6531 10.3469H18.5225L15.5675 18.4733L18.5225 26.5995H29.6531V10.3469Z" fill="#C0C8D2"/>
<path id="Vector_6" d="M7.39197 10.3469V32.608L13.4005 26.5995H18.5225V10.3469H7.39197Z" fill="#DAE0E7"/>
<path id="Vector_7" d="M21.2476 13.302L19.7701 18.4733L21.2476 23.6446H26.698V13.302H21.2476Z" fill="#F72553"/>
<path id="Vector_8" d="M21.2477 13.302H18.5225L17.045 18.4733L18.5225 23.6446H21.2477V13.302Z" fill="#EDEFF3"/>
<path id="Vector_9" d="M15.7973 13.302L14.3198 18.4733L15.7973 23.6446H18.5225V13.302H15.7973Z" fill="white"/>
<path id="Vector_10" d="M10.3469 13.302H15.7973V23.6446H10.3469V13.302Z" fill="#1E8AFF"/>
</g>
</g>
</svg>
