<svg width="40" height="40" viewBox="0 0 40 40" fill="none" xmlns="http://www.w3.org/2000/svg">
<g id="Group">
<g id="Group_2">
<g id="Group_3">
<g id="Group_4">
<g id="Group_5">
<g id="Group_6">
<g id="Group_7">
<g id="Group_8">
<path id="Vector" d="M20 40C31.0457 40 40 31.0457 40 20C40 8.9543 31.0457 0 20 0C8.9543 0 0 8.9543 0 20C0 31.0457 8.9543 40 20 40Z" fill="#FFCE00"/>
</g>
</g>
</g>
</g>
</g>
</g>
</g>
<path id="Vector_2" d="M27.3553 11.3479L25.447 12.7188L15.9903 3.26208L7.3844 13.1486L11.0777 27.01L18.5021 34.4344L15.9276 36.2697L19.655 39.9971C19.7698 39.999 19.8848 40.0001 20 40.0001C29.4906 40.0001 37.4371 33.3897 39.4867 24.522L27.3553 11.3479Z" fill="#FFA300"/>
<g id="Group_9">
<g id="Group_10">
<path id="Vector_3" d="M28.9445 17.7818C28.3553 22.1959 24.5753 25.6007 20 25.6007C18.0695 25.6007 16.2805 24.9945 14.8131 23.962L13.8013 10.0179C15.418 8.48939 17.5996 7.55212 20 7.55212C22.532 7.55212 24.8204 8.59486 26.4592 10.2744L28.9445 17.7818Z" fill="#7584F2"/>
</g>
<g id="Group_11">
<path id="Vector_4" d="M20 7.55212C22.532 7.55212 24.8204 8.59486 26.4592 10.2744L28.9445 17.7818C28.3552 22.1959 24.5752 25.6007 20 25.6007V7.55212Z" fill="#606AEA"/>
</g>
<g id="Group_12">
<path id="Vector_5" d="M26.4588 10.2739H24.0391C22.4655 10.2739 21.1897 11.5496 21.1897 13.1234C21.1897 14.6971 22.4654 15.9728 24.0391 15.9728H25.1126C25.528 17.0323 26.5595 17.7825 27.7663 17.7825H28.9445C28.9971 17.388 29.0243 16.9855 29.0243 16.5766C29.0243 14.1242 28.0462 11.9004 26.4588 10.2739Z" fill="#13AAAA"/>
</g>
<g id="Group_13">
<path id="Vector_6" d="M10.9757 16.5764C10.9757 19.6298 12.4922 22.3291 14.8131 23.962H15.1134C16.687 23.962 17.9628 22.6863 17.9628 21.1126C17.9628 19.7586 17.0184 18.6252 15.7525 18.3351C16.028 17.8966 16.1873 17.3777 16.1873 16.8216C16.1873 15.7091 15.5495 14.7454 14.6198 14.2762C15.0104 13.7886 15.244 13.1698 15.244 12.4963C15.244 11.4343 14.6629 10.508 13.8013 10.0179C12.0614 11.663 10.9757 13.9929 10.9757 16.5764Z" fill="#64E1DC"/>
</g>
</g>
<path id="Vector_7" d="M32.308 24.1334L30.3335 22.8707C28.1687 26.2559 24.4809 28.2768 20.4687 28.2768C14.0171 28.2768 8.76831 23.028 8.76831 16.5764C8.76831 11.5441 11.9708 7.08624 16.7372 5.48359L15.9902 3.26202C10.2687 5.18585 6.42456 10.5365 6.42456 16.5764C6.42456 23.7655 11.8542 29.7101 18.8281 30.5251V35.3125H21.1718V30.6032C25.7126 30.3795 29.8372 27.9969 32.308 24.1334Z" fill="#707789"/>
<path id="Vector_8" d="M32.3081 24.1335L30.3336 22.8707C28.1688 26.2559 24.481 28.2768 20.4688 28.2768C20.3149 28.2768 20.1619 28.2729 20.0094 28.267V35.3125H21.1719V30.6032C25.7127 30.3796 29.8373 27.997 32.3081 24.1335Z" fill="#555A66"/>
<g id="Group_14">
<path id="Vector_9" d="M15.9276 32.2019H24.0724V36.2697H15.9276V32.2019Z" fill="#555A66"/>
</g>
<g id="Group_15">
<path id="Vector_10" d="M20.0094 32.2019H24.0724V36.2697H20.0094V32.2019Z" fill="#333940"/>
</g>
</g>
</svg>
