<svg width="40" height="40" viewBox="0 0 40 40" fill="none" xmlns="http://www.w3.org/2000/svg">
<g id="Group">
<path id="Vector" d="M20 40C31.0457 40 40 31.0457 40 20C40 8.9543 31.0457 0 20 0C8.9543 0 0 8.9543 0 20C0 31.0457 8.9543 40 20 40Z" fill="#F97DB0"/>
<path id="Vector_2" d="M40 20C40 19.9484 39.9998 19.897 39.9994 19.8455L28.0082 7.85437L20 35.3052L24.2437 39.5488C33.2509 37.6027 40 29.5895 40 20Z" fill="#E25A91"/>
<path id="Vector_3" d="M31.2152 15.705C31.2152 25.813 19.9999 35.3051 19.9999 35.3051C19.9999 35.3051 8.78479 26.2712 8.78479 15.705C8.78479 9.511 13.806 4.48975 19.9999 4.48975C26.1939 4.48975 31.2152 9.511 31.2152 15.705Z" fill="white"/>
<path id="Vector_4" d="M20 4.48975C26.194 4.48975 31.2152 9.511 31.2152 15.705C31.2152 25.813 20 35.3051 20 35.3051V4.48975Z" fill="#E9EDF5"/>
<path id="Vector_5" d="M25.0122 20.7215C27.7825 17.9512 27.7825 13.4597 25.0122 10.6894C22.2419 7.91912 17.7504 7.91912 14.9801 10.6894C12.2099 13.4597 12.2099 17.9512 14.9801 20.7215C17.7504 23.4918 22.2419 23.4918 25.0122 20.7215Z" fill="#555A66"/>
<path id="Vector_6" d="M20 7.69678C16.7074 7.69678 13.8789 9.68389 12.6483 12.5244L20.0093 13.4941L27.3516 12.5244C26.1211 9.68389 23.2925 7.69678 20 7.69678Z" fill="#555A66"/>
<path id="Vector_7" d="M20 13.494L27.3516 12.5243C26.1211 9.68389 23.2926 7.69678 20 7.69678V13.494Z" fill="#333940"/>
<path id="Vector_8" d="M20 23.7131C23.2925 23.7131 26.1211 21.726 27.3516 18.8855L20.0093 18.3469L12.6483 18.8855C13.8789 21.726 16.7074 23.7131 20 23.7131Z" fill="#FFCE00"/>
<path id="Vector_9" d="M20 23.7131C23.2926 23.7131 26.1211 21.726 27.3516 18.8856L20 18.347V23.7131Z" fill="#FDBA12"/>
<path id="Vector_10" d="M27.3517 12.5243H12.6484C12.226 13.4993 11.9918 14.5748 11.9918 15.7049C11.9918 16.8351 12.226 17.9105 12.6484 18.8855H27.3517C27.7741 17.9105 28.0082 16.8351 28.0082 15.7049C28.0082 14.5748 27.7741 13.4993 27.3517 12.5243Z" fill="#FF6C52"/>
<path id="Vector_11" d="M20 12.5243V18.8855H27.3516C27.7741 17.9105 28.0082 16.8351 28.0082 15.7049C28.0082 14.5748 27.7741 13.4992 27.3516 12.5243H20Z" fill="#FF432E"/>
</g>
</svg>
