<svg width="40" height="40" viewBox="0 0 40 40" fill="none" xmlns="http://www.w3.org/2000/svg">
<g clip-path="url(#clip0_6644_5197)">
<path d="M19.9997 39.9994C31.0452 39.9994 39.9994 31.0452 39.9994 19.9997C39.9994 8.95416 31.0452 0 19.9997 0C8.95416 0 0 8.95416 0 19.9997C0 31.0452 8.95416 39.9994 19.9997 39.9994Z" fill="#FFC44F"/>
<path d="M39.633 19.6356C39.633 18.0811 39.4829 16.5685 39.1996 15.1169L24.7706 4.03674L19.633 7.30869V27.1222L17.2477 36.2109L22.9974 39.4828C21.6944 39.4828 24.214 39.8209 22.9974 39.4828C32.185 39.4828 39.633 30.5969 39.633 19.6356Z" fill="#FFAE0D"/>
<path d="M19.0625 23.6875H20.9375V27.4375H19.0625V23.6875Z" fill="#D5E8FE"/>
<path d="M20 23.6875H20.9375V27.4375H20V23.6875Z" fill="#B5DBFF"/>
<path d="M20 4C14.3187 4 9.6875 8.63119 9.6875 14.3125C9.6875 19.9938 14.3187 24.625 20 24.625C25.6813 24.625 30.3125 19.9938 30.3125 14.3125C30.3125 8.63119 25.6813 4 20 4Z" fill="#47568C"/>
<path d="M30.3125 14.3125C30.3125 19.9938 25.6813 24.625 20 24.625V4C25.6813 4 30.3125 8.63119 30.3125 14.3125Z" fill="#3A4673"/>
<path d="M20 22.75C24.6599 22.75 28.4375 18.9724 28.4375 14.3125C28.4375 9.6526 24.6599 5.875 20 5.875C15.3401 5.875 11.5625 9.6526 11.5625 14.3125C11.5625 18.9724 15.3401 22.75 20 22.75Z" fill="#EDF5FF"/>
<path d="M28.4375 14.3125C28.4375 18.9452 24.6876 22.75 20 22.75V5.875C24.6327 5.875 28.4375 9.62488 28.4375 14.3125Z" fill="#D5E8FE"/>
<path d="M17.1875 26.5V36H22.8125V26.5H17.1875Z" fill="#FF6E83"/>
<path d="M20 26.5H22.8125V36H20V26.5Z" fill="#FF3B7F"/>
<path d="M26.5625 14.3125L23.6914 12.4375L20 14.3125L20.1758 17.5938L23.4676 19.8606C25.3191 18.699 26.5625 16.6546 26.5625 14.3125Z" fill="#FF3B7F"/>
<path d="M20 7.75L18.125 11.0312L20 14.3125H26.5625C26.5625 10.6943 23.6182 7.75 20 7.75Z" fill="#65D6A9"/>
<path d="M20 14.3125V7.75C16.3818 7.75 13.4375 10.6943 13.4375 14.3125C13.4375 17.9307 16.3818 20.875 20 20.875C21.2761 20.875 22.4586 20.4936 23.4676 19.8606L20 14.3125Z" fill="#B3E4FF"/>
<path d="M20 14.3125V20.875C21.2761 20.875 22.4586 20.4936 23.4676 19.8606L20 14.3125Z" fill="#5DACFF"/>
</g>
<defs>
<clipPath id="clip0_6644_5197">
<rect width="40" height="40" fill="white"/>
</clipPath>
</defs>
</svg>
