<svg width="40" height="40" viewBox="0 0 40 40" fill="none" xmlns="http://www.w3.org/2000/svg">
<g id="Group">
<path id="Vector" d="M20 40C31.0457 40 40 31.0457 40 20C40 8.9543 31.0457 0 20 0C8.9543 0 0 8.9543 0 20C0 31.0457 8.9543 40 20 40Z" fill="#B180FF"/>
<path id="Vector_2" d="M15.1459 20.0105L19.0521 23.9166L9.99988 30L19.9999 40.0001C31.0456 40.0001 40 31.0458 40 20.0001L29.0073 9.00745L15.1459 20.0105Z" fill="#9A4AF9"/>
<g id="g15">
<g id="g17">
<g id="Clip path group">
<mask id="mask0_8913_1358" style="mask-type:luminance" maskUnits="userSpaceOnUse" x="6" y="6" width="28" height="28">
<g id="clipPath23">
<path id="path21" d="M6 6H34V34H6V6Z" fill="white"/>
</g>
</mask>
<g mask="url(#mask0_8913_1358)">
<g id="g19">
<g id="g25">
<path id="path27" d="M20 6L16.7188 20L20 34C27.732 34 34 27.732 34 20C34 12.268 27.732 6 20 6Z" fill="#D0CDCD"/>
</g>
<g id="g29">
<path id="path31" d="M6 20C6 23.2572 7.11245 26.2546 8.97806 28.6331L8.10366 31.8963L11.367 31.0219C13.7454 32.8875 16.7428 34 20 34V6C12.268 6 6 12.268 6 20Z" fill="#EBEAEA"/>
</g>
<g id="g33">
<path id="path35" d="M30.5158 19.9999C30.5158 15.4219 27.5897 11.528 23.5061 10.0845L21.8655 19.9999L23.5061 29.9153C27.5897 28.4718 30.5158 24.5778 30.5158 19.9999Z" fill="#ED3946"/>
</g>
<g id="g37">
<path id="path39" d="M20 9.48516L18.3594 19.9997L20 30.5142C21.2291 30.5142 22.4085 30.3026 23.5048 29.9151V10.0843C22.4085 9.69674 21.2291 9.48516 20 9.48516Z" fill="#EBEAEA"/>
</g>
<g id="g41">
<path id="path43" d="M16.4939 10.0842L14.8533 19.9996L16.4939 29.915C17.5902 30.3026 18.7697 30.5142 19.9987 30.5142V9.48506C18.7697 9.48506 17.5902 9.6967 16.4939 10.0842Z" fill="white"/>
</g>
<g id="g45">
<path id="path47" d="M9.4856 19.9999C9.4856 24.5778 12.4116 28.4718 16.4953 29.9153V10.0845C12.4116 11.528 9.4856 15.4219 9.4856 19.9999Z" fill="#73D093"/>
</g>
</g>
</g>
</g>
</g>
</g>
</g>
</svg>
