<svg width="40" height="40" viewBox="0 0 40 40" fill="none" xmlns="http://www.w3.org/2000/svg">
<g id="Group">
<path id="Vector" d="M20 40C31.0457 40 40 31.0457 40 20C40 8.9543 31.0457 0 20 0C8.9543 0 0 8.9543 0 20C0 31.0457 8.9543 40 20 40Z" fill="#CC9693"/>
<path id="Vector_2" d="M25.7382 10.113L20.0002 4.375L19.7238 7.03164L21.1135 8.42133L18.9479 10.5869L19.7724 11.4113L18.6198 12.5639L13.8253 7.76937L14.3673 11.2445L20.2832 17.1603L13.5177 23.9258L12.076 22.4841L10.6918 23.8682L8.86394 22.0403L5.42065 21.5301L10.6963 26.8057L6.48909 31.0129L14.7889 39.3127C16.4506 39.76 18.1971 40 20 40C30.5979 40 39.2691 31.7566 39.9548 21.3322L26.2839 7.66125L25.7382 10.113Z" fill="#B8716C"/>
<path id="Vector_3" d="M19.9948 26.2402C17.2784 23.578 13.262 23.011 10.313 24.7063C6.9396 26.6456 6.5214 30.6474 6.48914 31.013C7.83781 29.9158 10.2839 28.22 13.764 27.2866C16.2535 26.6188 18.4363 26.5653 19.9948 26.6598L20.1137 26.4403L19.9948 26.2402Z" fill="#C4DE3A"/>
<path id="Vector_4" d="M19.9949 26.2402C22.7113 23.578 26.7277 23.011 29.6767 24.7063C33.0501 26.6456 33.4683 30.6474 33.5006 31.013C32.1519 29.9158 29.7058 28.22 26.2257 27.2866C23.7362 26.6188 21.5534 26.5653 19.9949 26.6598V26.2402Z" fill="#83AB23"/>
<path id="Vector_5" d="M20 23.9887C18.6973 23.3568 17.08 22.7136 15.1469 22.2004C14.2885 21.9725 9.62334 20.7768 5.42053 21.53C8.69616 24.269 13.34 25.545 14.1983 25.7729C16.4545 26.372 18.4254 26.6043 20 26.6648L20.3287 25.2686L20 23.9887Z" fill="#83AB23"/>
<path id="Vector_6" d="M20 23.9887C21.3027 23.3568 22.92 22.7136 24.8531 22.2004C25.7115 21.9725 30.3766 20.7768 34.5795 21.53C31.3038 24.269 26.66 25.545 25.8017 25.7729C23.5455 26.372 21.5746 26.6043 20 26.6648V23.9887Z" fill="#6A9F1F"/>
<path id="Vector_7" d="M20 24.3581C19.3003 22.8936 18.2478 21.0832 16.6818 19.1469C16.1233 18.4564 13.0627 14.7381 9.22522 12.866C10.2533 17.0102 13.2493 20.7808 13.8077 21.4713C16.2076 24.4388 18.5714 26.1676 20.0001 27.0489L20.3288 25.6217L20 24.3581Z" fill="#C4DE3A"/>
<path id="Vector_8" d="M20 24.3581C20.6996 22.8936 21.7521 21.0832 23.3182 19.1469C23.8766 18.4564 26.9372 14.7381 30.7747 12.866C29.7466 17.0102 26.7507 20.7808 26.1922 21.4713C23.7923 24.4388 21.4285 26.1676 19.9999 27.0489V24.3581H20Z" fill="#83AB23"/>
<path id="Vector_9" d="M20.0001 21.3489C19.8274 19.9899 19.5149 18.4473 18.9817 16.7701C18.6929 15.8616 17.0783 10.9503 13.7162 7.66125C12.8703 12.288 14.3879 17.23 14.6766 18.1385C16.4619 23.7547 19.3945 26.7117 19.9422 27.2474C19.9566 27.1685 19.9771 27.0524 20.0001 26.9022L20.4023 23.798L20.0001 21.3489Z" fill="#83AB23"/>
<path id="Vector_10" d="M20 21.3489C20.1727 19.9899 20.4852 18.4473 21.0184 16.7701C21.3072 15.8616 22.9217 10.9503 26.2838 7.66125C27.1298 12.288 25.6122 17.23 25.3234 18.1385C23.5382 23.7547 20.6055 26.7117 20.0579 27.2474C20.0434 27.1685 20.023 27.0524 20 26.9022V21.3489Z" fill="#6A9F1F"/>
<path id="Vector_11" d="M17.9114 15.9293C17.9114 20.4497 18.7286 23.8254 19.3536 25.7562V33.7843H20L20.5922 19.0796L20 4.375C17.9584 9.04469 17.9114 14.8574 17.9114 15.9293Z" fill="#C4DE3A"/>
<path id="Vector_12" d="M22.0886 15.9293C22.0886 20.4497 21.2714 23.8254 20.6464 25.7562V33.7843H20V4.375C22.0416 9.04469 22.0886 14.8574 22.0886 15.9293Z" fill="#83AB23"/>
</g>
</svg>
