<svg width="40" height="40" viewBox="0 0 40 40" fill="none" xmlns="http://www.w3.org/2000/svg">
<g id="Group">
<path id="Vector" d="M20 40C31.0457 40 40 31.0457 40 20C40 8.9543 31.0457 0 20 0C8.9543 0 0 8.9543 0 20C0 31.0457 8.9543 40 20 40Z" fill="#B7C3F5"/>
<path id="Vector_2" d="M32.2897 10.8729L30.4887 12.674L23.2409 5.42614L21.8205 6.84645L22.6882 7.71411L22.2105 8.19184L18.3938 4.37512L15.8973 6.87153L18.0955 9.06973L4.375 22.7902L12.3737 30.7889L10.8416 32.321L10.9244 33.0215L17.7796 39.8767C18.5169 39.9586 19.2582 39.9997 20 40C31.0457 40 40 31.0457 40 20C40 19.2494 39.9573 18.5089 39.8767 17.7798L33.0214 10.9245L32.2897 10.8729Z" fill="#96A3EF"/>
<path id="Vector_3" d="M12.9688 20C12.9688 16.1167 16.1167 12.9687 20 12.9687L21.5675 10.8296L20 8.04683H17.2098C15.9053 8.35119 14.6598 8.86823 13.5232 9.57722L10.9244 6.97839L6.97844 10.9243L9.57727 13.5232C8.86829 14.6597 8.35125 15.9052 8.04688 17.2097H4.375V22.7901H8.04688C8.35123 24.0946 8.86828 25.3401 9.57727 26.4767L6.97844 29.0755L10.9244 33.0214L13.5232 30.4226C14.6598 31.1316 15.9053 31.6486 17.2098 31.953V35.6249H20L21.0888 30.56L20 25.7131L18.3937 26.8467C15.2761 26.1262 12.9688 23.3365 12.9688 20Z" fill="#FFDC38"/>
<path id="Vector_4" d="M22.7902 31.9531C24.0947 31.6488 25.3402 31.1318 26.4767 30.4228L29.0755 33.0216L33.0214 29.0756L30.4227 26.4769C31.1317 25.3403 31.6487 24.0948 31.953 22.7902H35.6249V17.2098H31.953C31.6487 15.9053 31.1316 14.6598 30.4227 13.5232L33.0214 10.9245L29.0755 6.97852L26.4767 9.57727C25.3402 8.86828 24.0947 8.35123 22.7902 8.04688H20V12.9688C23.8833 12.9688 27.0312 16.1167 27.0312 20C27.0312 23.3347 24.7213 26.1243 21.6063 26.8467L20 25.7131V35.625H22.7902V31.9531Z" fill="#EFC500"/>
<path id="Vector_5" d="M18.3937 7.8607V4.375C16.6686 5.01977 15.4359 6.6725 15.4117 8.6168C15.4115 8.63625 15.4105 8.65547 15.4105 8.67492C15.4105 10.6445 16.6514 12.3236 18.3937 12.9748V26.8467C18.9203 26.9696 19.4593 27.0315 20.0001 27.0312L21.0888 17.0761L20.0001 7.8607H18.3937Z" fill="white"/>
<path id="Vector_6" d="M24.5884 8.6168C24.5641 6.6725 23.3314 5.01977 21.6063 4.375V7.8607H20V27.0312C20.5407 27.0315 21.0797 26.9696 21.6063 26.8467V12.9748C23.3487 12.3236 24.5895 10.6444 24.5895 8.67492C24.5895 8.65539 24.5886 8.63617 24.5884 8.6168Z" fill="#E9EDF5"/>
</g>
</svg>
