<svg width="40" height="40" viewBox="0 0 40 40" fill="none" xmlns="http://www.w3.org/2000/svg">
<g id="Group">
<path id="Vector" d="M20 40C31.0457 40 40 31.0457 40 20C40 8.9543 31.0457 0 20 0C8.9543 0 0 8.9543 0 20C0 31.0457 8.9543 40 20 40Z" fill="#FFDD33"/>
<path id="Vector_2" d="M22.5193 39.8425C32.3757 38.6037 40 30.1923 40 20C40 18.106 39.7366 16.2736 39.2447 14.5372L32.5 7.79248L21.2286 19.0638L15.7598 13.5951L7.5 21.8549L20.7029 35.0578L19.2188 36.5419L22.5193 39.8425Z" fill="#F3BD44"/>
<path id="Vector_3" d="M13.3202 24.7179C13.5135 28.3678 16.5042 30.4619 20 29.3952C19.8068 25.7453 16.8161 23.6513 13.3202 24.7179Z" fill="#50AF71"/>
<path id="Vector_4" d="M26.6798 27.3347C26.4866 30.9846 23.4959 33.0787 20 32.012C20.1933 28.3622 23.184 26.2681 26.6798 27.3347Z" fill="#479C60"/>
<path id="Vector_5" d="M20 36.542H19.2188V20.917H20L20.3906 28.7295L20 36.542Z" fill="#66D58A"/>
<path id="Vector_6" d="M20 20.917H20.7812V36.542H20V20.917Z" fill="#50AF71"/>
<g id="Group_2">
<path id="Vector_7" d="M7.5 7.79248V21.855H20L21.1459 14.8237L20 7.79248H7.5Z" fill="#50AF71"/>
<path id="Vector_8" d="M20 7.79248H32.5V21.855H20V7.79248Z" fill="#479C60"/>
<path id="Vector_9" d="M10.4412 9.35498C10.4412 10.1101 9.87053 10.7222 9.16663 10.7222V18.9253C9.87053 18.9253 10.4412 19.5374 10.4412 20.2925H20L20.8209 14.8237L20 9.35498H10.4412Z" fill="#66D58A"/>
<g id="Group_3">
<path id="Vector_10" d="M30.8334 18.9253V10.7222C30.1295 10.7222 29.5588 10.1101 29.5588 9.35498H20V20.2925H29.5588C29.5588 19.5374 30.1295 18.9253 30.8334 18.9253Z" fill="#50AF71"/>
<path id="Vector_11" d="M13.75 16.5815C14.7208 16.5815 15.5078 15.7945 15.5078 14.8237C15.5078 13.8529 14.7208 13.0659 13.75 13.0659C12.7792 13.0659 11.9922 13.8529 11.9922 14.8237C11.9922 15.7945 12.7792 16.5815 13.75 16.5815Z" fill="#50AF71"/>
<path id="Vector_12" d="M20 10.9175C18.7055 10.9175 17.6562 12.6664 17.6562 14.8237C17.6562 16.9811 18.7055 18.73 20 18.73L20.5784 14.8237L20 10.9175Z" fill="#50AF71"/>
</g>
<path id="Vector_13" d="M22.3438 14.8237C22.3438 12.6664 21.2945 10.9175 20 10.9175V18.73C21.2945 18.73 22.3438 16.9811 22.3438 14.8237Z" fill="#479C60"/>
<path id="Vector_14" d="M26.25 16.5815C27.2208 16.5815 28.0078 15.7945 28.0078 14.8237C28.0078 13.8529 27.2208 13.0659 26.25 13.0659C25.2792 13.0659 24.4922 13.8529 24.4922 14.8237C24.4922 15.7945 25.2792 16.5815 26.25 16.5815Z" fill="#479C60"/>
</g>
</g>
</svg>
