<svg width="40" height="40" viewBox="0 0 40 40" fill="none" xmlns="http://www.w3.org/2000/svg">
<g id="Group">
<g id="Group_2">
<g id="Group_3">
<g id="Group_4">
<g id="Group_5">
<g id="Group_6">
<g id="Group_7">
<g id="Group_8">
<path id="Vector" d="M20 40C31.0457 40 40 31.0457 40 20C40 8.9543 31.0457 0 20 0C8.9543 0 0 8.9543 0 20C0 31.0457 8.9543 40 20 40Z" fill="#00C8C8"/>
</g>
</g>
</g>
</g>
</g>
</g>
</g>
<path id="Vector_2" d="M40 20C40 18.8636 39.9051 17.7492 39.723 16.6645L28.954 5.89551L26.457 11.4241L8.63379 29.2402L19.3843 39.9907C19.5888 39.9969 19.794 40 20 40C31.0457 40 40 31.0457 40 20Z" fill="#13AAAA"/>
<g id="Group_9">
<path id="Vector_3" d="M27.6799 24.9079H28.8475C30.275 24.9079 31.477 23.8405 31.6464 22.4231C31.7161 21.8397 31.7474 21.2445 31.7377 20.6401C31.623 13.4715 25.8264 7.77185 18.6568 7.77185C11.4265 7.77185 5.56607 13.6374 5.57435 20.8697C5.58255 28.0126 11.3876 33.8687 18.5302 33.9364C18.5706 33.9368 18.611 33.9369 18.6513 33.937C20.2077 33.9376 21.4693 32.6748 21.4693 31.1184C21.4694 27.6884 24.2499 24.9079 27.6799 24.9079Z" fill="white"/>
</g>
<g id="Group_10">
<path id="Vector_4" d="M20.0565 7.8457V33.5614C20.9007 33.0745 21.4694 32.1629 21.4694 31.1184C21.4694 27.6884 24.25 24.9078 27.68 24.9078H28.8475C30.275 24.9078 31.4771 23.8405 31.6464 22.423C31.7161 21.8397 31.7475 21.2445 31.7378 20.6402C31.6307 13.9445 26.5664 8.53086 20.0565 7.8457Z" fill="#E9EDF5"/>
</g>
<g id="Group_11">
<path id="Vector_5" d="M13.4239 16.33C14.7787 16.33 15.8769 15.2318 15.8769 13.877C15.8769 12.5223 14.7787 11.4241 13.4239 11.4241C12.0692 11.4241 10.9709 12.5223 10.9709 13.877C10.9709 15.2318 12.0692 16.33 13.4239 16.33Z" fill="#7584F2"/>
</g>
<g id="Group_12">
<path id="Vector_6" d="M15.5252 30.9896C16.88 30.9896 17.9782 29.8913 17.9782 28.5366C17.9782 27.1819 16.88 26.0836 15.5252 26.0836C14.1705 26.0836 13.0723 27.1819 13.0723 28.5366C13.0723 29.8913 14.1705 30.9896 15.5252 30.9896Z" fill="#707789"/>
</g>
<g id="Group_13">
<path id="Vector_7" d="M10.1533 24.4755C11.508 24.4755 12.6063 23.3773 12.6063 22.0225C12.6063 20.6678 11.508 19.5696 10.1533 19.5696C8.79855 19.5696 7.70032 20.6678 7.70032 22.0225C7.70032 23.3773 8.79855 24.4755 10.1533 24.4755Z" fill="#A3D4FF"/>
</g>
<g id="Group_14">
<path id="Vector_8" d="M21.6214 15.0217C22.9762 15.0217 24.0744 13.9234 24.0744 12.5687C24.0744 11.214 22.9762 10.1157 21.6214 10.1157C20.2667 10.1157 19.1685 11.214 19.1685 12.5687C19.1685 13.9234 20.2667 15.0217 21.6214 15.0217Z" fill="#FFCE00"/>
</g>
<g id="Group_15">
<path id="Vector_9" d="M28.1859 34.1768C27.569 34.1768 27.0586 33.7281 27.0206 33.1522L25.7913 14.5662C25.7295 13.6303 26.5243 12.8395 27.5269 12.8395H28.8449C29.8475 12.8395 30.6424 13.6303 30.5805 14.5662L29.3513 33.1522C29.3131 33.7281 28.8027 34.1768 28.1859 34.1768Z" fill="#FE6A16"/>
</g>
<g id="Group_16">
<path id="Vector_10" d="M28.845 12.8396H28.1514V34.1753C28.1629 34.1756 28.1743 34.1769 28.1859 34.1769C28.8028 34.1769 29.3132 33.7281 29.3513 33.1523L30.5805 14.5663C30.6424 13.6304 29.8475 12.8396 28.845 12.8396Z" fill="#F24500"/>
</g>
<g id="Group_17">
<path id="Vector_11" d="M30.7613 10.9449C30.7613 12.3673 29.6082 13.5203 28.1859 13.5203C26.7635 13.5203 25.6105 12.3673 25.6105 10.9449C25.6105 9.52258 26.7635 5.51367 28.1859 5.51367C29.6082 5.51367 30.7613 9.52266 30.7613 10.9449Z" fill="#555A66"/>
</g>
<g id="Group_18">
<path id="Vector_12" d="M28.1859 5.51379C28.1743 5.51379 28.1629 5.51481 28.1514 5.51536V13.5196C28.1629 13.5197 28.1743 13.5204 28.1859 13.5204C29.6082 13.5204 30.7613 12.3674 30.7613 10.945C30.7613 9.5227 29.6082 5.51379 28.1859 5.51379Z" fill="#333940"/>
</g>
</g>
</svg>
