<svg width="40" height="40" viewBox="0 0 40 40" fill="none" xmlns="http://www.w3.org/2000/svg">
<g id="Group">
<path id="Vector" d="M4.51016 32.6516C1.69141 29.2047 0 24.8 0 20C0 8.95469 8.95469 0 20 0C31.0453 0 40 8.95469 40 20C40 24.8 38.3086 29.2047 35.4898 32.6516H4.51016Z" fill="#5B4A49"/>
<path id="Vector_2" d="M39.8896 17.8859L26.4307 4.42695L24.5436 4.21867L23.1851 2.86023L12.1123 10.9377L14.4343 13.2598L12.212 15.9181L23.2948 27.0009L28.7143 32.6516H35.4899C38.3086 29.2047 40 24.8 40 20C40 19.2859 39.9626 18.5806 39.8896 17.8859Z" fill="#353030"/>
<g id="Group_2">
<path id="Vector_3" d="M15.3116 27.4736V19.7303H20.0003L21.2902 24.3298L20.0001 28.9293L15.3116 27.4736Z" fill="#EFB09A"/>
<g id="Group_3">
<path id="Vector_4" d="M24.6884 19.7303H20.0002V25.6071L22.3444 26.5101L24.6884 25.6071V19.7303Z" fill="#E29881"/>
</g>
<path id="Vector_5" d="M20 4.42688C16.8403 4.42688 13.106 6.13297 12.802 10.7495C11.9849 10.9075 11.4044 11.9792 11.4958 12.8458L11.6359 14.8177C11.7317 15.7277 12.5316 16.392 13.4131 16.2931L13.5651 16.2766C14.1822 17.9318 14.9185 19.0815 15.6921 19.8881C17.184 21.4443 18.816 21.7274 20 21.9147C21.1841 21.7273 23.1598 4.42688 20 4.42688Z" fill="#FFDCC0"/>
<g id="Group_4">
<path id="Vector_6" d="M24.3079 19.8881C25.0816 19.0815 25.8179 17.9318 26.435 16.2766L26.587 16.2931C27.4686 16.392 28.2684 15.7277 28.3643 14.8177L28.5044 12.8458C28.5958 11.9793 28.0153 10.9075 27.1982 10.7495C26.8941 6.13313 23.1601 4.42704 20.0004 4.42688V21.9146C21.1844 21.7274 22.8161 21.4443 24.3079 19.8881Z" fill="#EFB09A"/>
</g>
<path id="Vector_7" d="M22.6937 18.4866L20.0003 14.9855H15.284V11.1874C15.54 11.3014 15.8235 11.3647 16.1218 11.3647C17.0663 11.3647 17.8625 10.7299 18.1069 9.86356C18.6308 10.0334 19.2566 10.1261 20.0003 10.1261L22.6937 5.57903L20.0003 1.64185C18.4612 1.64185 17.1093 2.25224 16.3393 3.46067C16.0993 3.41224 15.8485 3.39356 15.5909 3.40888C14.1237 3.49599 12.9439 4.70169 12.8867 6.17036C12.8764 6.43536 12.9018 6.69278 12.9586 6.93817C11.9964 7.22255 11.2942 8.11302 11.2942 9.16747C11.2942 10.4293 12.2997 11.4562 13.5531 11.4908V17.0052C13.5531 19.8524 15.8612 22.1605 18.7084 22.1605H20L22.6937 18.4866Z" fill="#FFF4EB"/>
<g id="Group_5">
<path id="Vector_8" d="M20.0002 10.1261C20.7439 10.1261 21.3697 10.0335 21.8936 9.86356C22.138 10.7298 22.9342 11.3647 23.8788 11.3647C24.177 11.3647 24.4605 11.3014 24.7166 11.1874V14.9855H20V22.1605H21.2921C24.1393 22.1605 26.4474 19.8524 26.4474 17.0052V11.4908C27.7007 11.456 28.7059 10.4291 28.7059 9.16747C28.7059 8.11302 28.0038 7.22255 27.0414 6.93817C27.0982 6.69302 27.1237 6.43583 27.1134 6.17106C27.0566 4.70239 25.877 3.49645 24.4099 3.40895C24.1522 3.39356 23.9013 3.41224 23.6611 3.46067C22.8911 2.25224 21.5393 1.64185 20.0002 1.64185H20V10.1261H20.0002Z" fill="#EDD4C0"/>
</g>
</g>
<path id="Vector_9" d="M25.0328 28.0136L28.7059 30.9579L28.0601 34.052L20 38.2698C16.0967 38.2698 9.6638 36.4302 9.6638 36.4302L9.15388 36.8053C7.41412 35.674 5.81943 34.2528 4.51013 32.6514V30.1889C4.51013 27.446 7.0831 25.2225 9.15388 25.2225L11.0407 26.8701L12.6394 25.2225H20L25.0328 28.0136Z" fill="#FFDCC0"/>
<g id="Group_6">
<path id="Vector_10" d="M30.5234 25.2227H20V38.2698C23.67 38.2698 30.0659 37.2856 30.0659 37.2856C32.1406 36.0748 33.9777 34.501 35.4898 32.6516V30.1891C35.4898 27.4461 33.2664 25.2227 30.5234 25.2227Z" fill="#EFB09A"/>
</g>
<path id="Vector_11" d="M24.257 37.5837C24.257 37.5837 22.2207 37.8287 18.5512 37.8287C14.5535 37.8287 12.2781 36.7508 9.15393 34.7297V25.2227H12.6395C12.6395 25.2227 16.1247 33.6816 24.257 37.5837Z" fill="#FFB140"/>
<path id="Vector_12" d="M28.5137 34.8589L25.9039 37.082L20 40C16.0024 40 12.2781 38.8265 9.15393 36.8054V34.7296C13.4208 34.2739 17.1116 32.696 20 30.9608L26.3627 32.9181L28.5137 34.8589Z" fill="#FFF4EB"/>
<path id="Vector_13" d="M27.0219 25.2227C27.0219 25.2227 24.4442 28.2874 20 30.9609V40C23.6695 40 27.1094 39.0117 30.0656 37.2852V25.2227H27.0219Z" fill="#EDD4C0"/>
</g>
</svg>
