<svg width="40" height="40" viewBox="0 0 40 40" fill="none" xmlns="http://www.w3.org/2000/svg">
<g clip-path="url(#clip0_6644_5204)">
<path d="M39.8438 17.4062C38.5625 7.59375 30.1562 0 20 0C8.96875 0 0 8.9375 0 20C0 29.8438 7.09375 38 16.4688 39.6875C17.625 39.9062 18.8125 40 20 40C31.0312 40 40 31.0312 40 20C40 19.125 39.9375 18.25 39.8438 17.4062Z" fill="#FF4975"/>
<path opacity="0.2" d="M39.8438 17.4062L34.4375 12L34.2813 12.125L30.0625 7.875L25.7188 9.15625L23.0313 18.75L7.84375 31.125L16.4688 39.6875C17.625 39.9062 18.8125 40 20 40C31.0313 40 40 31.0312 40 20C40 19.125 39.9375 18.25 39.8438 17.4062Z" fill="#1B0408"/>
<path d="M28.1875 6.9375H11.1562C12.8125 7.46875 13.2812 9.5625 12.5 10.9375C12.375 11.125 12.5 11.4062 12.7188 11.4062H29.3125C29.7812 11.4062 30.2188 11.125 30.4062 10.6562C30.4688 10.5312 30.5 10.375 30.5625 10.2188C30.9688 8.5625 29.75 6.9375 28.1875 6.9375Z" fill="#F5C359"/>
<path d="M27.4374 8.0625C28.1874 6.65625 29.3437 7.25 29.3749 7.28125C29.0624 7.0625 28.5624 6.78125 27.9999 6.75H11.7812C10.3437 6.75 9.0937 7.8125 8.74995 9.375C7.1562 16.8438 13.2499 24.2812 9.6562 31.75H25.8749C27.3124 31.75 28.5624 30.6875 28.9062 29.125C30.3749 22.0625 25.0624 15.0625 27.4374 8.0625Z" fill="#FCD463"/>
<path d="M23.9062 12.9062C19.75 12.9062 15.5938 12.9062 11.4688 12.9062C11.4375 12.4687 11.4375 12.0312 11.4375 11.625H23.875C23.875 12.0312 23.875 12.4687 23.9062 12.9062Z" fill="#F5C359"/>
<path d="M24.6563 17.3125C20.5 17.3125 16.3437 17.3125 12.2187 17.3125C12.125 16.875 12.0313 16.4375 11.9375 16.0312H24.375C24.4375 16.4688 24.5313 16.875 24.6563 17.3125Z" fill="#F5C359"/>
<path d="M25.7188 21.7187C21.5625 21.7187 17.4063 21.7187 13.2813 21.7187C13.1875 21.2812 13.0938 20.8438 13 20.4375H25.4375C25.5313 20.875 25.625 21.3125 25.7188 21.7187Z" fill="#F5C359"/>
<path d="M26.1875 26.1562C22.0312 26.1562 17.875 26.1562 13.75 26.1562C13.75 25.7187 13.75 25.2812 13.7188 24.875H26.1562C26.1875 25.2812 26.2188 25.7187 26.1875 26.1562Z" fill="#F5C359"/>
<path d="M32.625 13.5938C33.1875 13.1563 33.75 12.7188 34.375 12.3126C34.5313 12.2188 34.5313 12.0001 34.3438 11.9376C32.8125 11.3438 30.8125 11.5313 29.25 12.5001C28.7188 12.8126 28.1563 13.2188 27.5938 13.1876C27.5938 13.0938 27.5938 13.0313 27.5938 12.9376C27.5938 12.7813 27.4063 12.6876 27.25 12.7813C26 13.4376 24.7813 14.1876 23.5938 15.0001C23.5938 14.9063 23.5625 14.8126 23.5625 14.6876C23.5313 14.5001 23.3125 14.4688 23.1563 14.5938C22.4063 15.2813 21.7813 16.0626 21.2813 16.9376C21.1563 17.1876 21 17.4376 20.75 17.5626C20.625 17.6251 20.5 17.6251 20.4063 17.5626C20.2813 17.5001 20.125 17.5938 20.0625 17.7188C18.9688 19.7501 18.2813 22.0313 18.9375 23.8126C19.1875 25.3751 18.2188 27.3126 18.625 28.9063C18.6563 29.0001 18.75 28.9688 18.75 28.8751C18.8125 25.2813 21.5 21.9063 24.625 20.6251C24.8125 20.5626 25 20.4688 25.0625 20.3126C25.1563 20.1563 25.0313 19.9063 24.8438 19.9376C25.7813 19.5313 26.7188 19.1251 27.6563 18.7813C27.7813 18.7501 27.9375 18.6563 27.9375 18.5313C27.9688 18.3438 27.6563 18.1876 27.7188 18.0001C27.75 17.9376 27.7813 17.9063 27.8438 17.8438C28.2813 17.5313 28.8438 17.4376 29.3125 17.1876C29.7813 16.9376 30.2188 16.4063 30 15.9376C30.625 15.5938 31.2813 15.2813 31.9375 15.0001C32.125 14.9063 32.3125 14.8126 32.4688 14.6876C33.0938 14.1876 32.375 14.0626 32.4688 13.7501C32.5 13.7188 32.5625 13.6563 32.625 13.5938Z" fill="#ECF0F3"/>
<path d="M18.2188 28.8125C18.2188 29.0938 18.4062 29.3125 18.6875 29.2813C18.9375 29.25 19.125 29 19.0937 28.75C18.9062 23.7813 21.7812 19.5 24.4375 17.1875C27.1562 14.75 29.6562 14.2188 29.5937 14.1562C25.5625 14.9688 22.1563 18.2188 20.4063 21.4063C18.5313 24.5938 18.3125 27.7188 18.2188 28.8125Z" fill="#647A8A"/>
<path d="M22.8438 29.875C23.5168 29.875 24.0625 29.3293 24.0625 28.6562C24.0625 27.9832 23.5168 27.4375 22.8438 27.4375C22.1707 27.4375 21.625 27.9832 21.625 28.6562C21.625 29.3293 22.1707 29.875 22.8438 29.875Z" fill="#F5C359"/>
<path d="M24.2499 28.8125C24.3749 28.0937 23.8124 27.4375 23.1562 27.4375H8.28119C8.18744 27.4375 8.12494 27.4687 8.03119 27.4687C7.49994 27.5937 7.09369 28.0625 7.09369 28.6562C7.09369 28.8437 6.99994 31.2187 8.84369 31.6875H25.8437C24.6249 31.3125 24.0624 30 24.2499 28.8125Z" fill="#F5C359"/>
</g>
<defs>
<clipPath id="clip0_6644_5204">
<rect width="40" height="40" fill="white"/>
</clipPath>
</defs>
</svg>
