<svg width="24" height="25" viewBox="0 0 24 25" fill="none" xmlns="http://www.w3.org/2000/svg">
<path d="M12 10C12.7956 10 13.5587 10.3161 14.1213 10.8787C14.6839 11.4413 15 12.2044 15 13C15 13.7956 14.6839 14.5587 14.1213 15.1213C13.5587 15.6839 12.7956 16 12 16C11.2044 16 10.4413 15.6839 9.87868 15.1213C9.31607 14.5587 9 13.7956 9 13C9 12.2044 9.31607 11.4413 9.87868 10.8787C10.4413 10.3161 11.2044 10 12 10ZM12 5.5C17 5.5 21.27 8.61 23 13C21.27 17.39 17 20.5 12 20.5C7 20.5 2.73 17.39 1 13C2.73 8.61 7 5.5 12 5.5ZM3.18 13C3.98825 14.6503 5.24331 16.0407 6.80248 17.0133C8.36165 17.9858 10.1624 18.5013 12 18.5013C13.8376 18.5013 15.6383 17.9858 17.1975 17.0133C18.7567 16.0407 20.0117 14.6503 20.82 13C20.0117 11.3497 18.7567 9.95925 17.1975 8.98675C15.6383 8.01424 13.8376 7.49868 12 7.49868C10.1624 7.49868 8.36165 8.01424 6.80248 8.98675C5.24331 9.95925 3.98825 11.3497 3.18 13Z" fill="#1B8392"/>
</svg>
