<svg width="19" height="19" viewBox="0 0 19 19" fill="none" xmlns="http://www.w3.org/2000/svg">
<g clip-path="url(#clip0_478_6896)">
<path d="M8.79315 11.4373C8.83912 11.5311 8.90321 11.6149 8.98173 11.6839C9.06024 11.7528 9.15163 11.8055 9.25061 11.839C9.3496 11.8724 9.45422 11.8859 9.55846 11.8788C9.66269 11.8716 9.76448 11.8438 9.85794 11.7971C9.9514 11.7504 10.0347 11.6857 10.103 11.6066C10.1713 11.5276 10.2233 11.4358 10.256 11.3365C10.2887 11.2373 10.3014 11.1326 10.2934 11.0284C10.2854 10.9242 10.2569 10.8227 10.2094 10.7296L5.85527 2.02123C5.78953 1.8897 5.68846 1.77908 5.56339 1.70176C5.43831 1.62445 5.29417 1.5835 5.14713 1.5835C5.00008 1.5835 4.85594 1.62445 4.73087 1.70176C4.60579 1.77908 4.50472 1.8897 4.43898 2.02123L0.0848143 10.7296C0.0373822 10.8227 0.00884734 10.9242 0.000854872 11.0284C-0.00713759 11.1326 0.00557046 11.2373 0.0382463 11.3365C0.0709222 11.4358 0.12292 11.5276 0.19124 11.6066C0.259561 11.6857 0.342854 11.7504 0.436316 11.7971C0.529778 11.8438 0.631561 11.8716 0.735797 11.8788C0.840032 11.8859 0.944658 11.8724 1.04364 11.839C1.14263 11.8055 1.23401 11.7528 1.31252 11.6839C1.39104 11.6149 1.45513 11.5311 1.50111 11.4373L2.86515 8.70844H7.42831L8.79315 11.4373ZM3.65681 7.12511L5.14594 4.14528L6.63665 7.12511H3.65681Z" fill="#1B8392"/>
<path d="M18.7678 8.9398C18.6194 8.79138 18.4181 8.70801 18.2081 8.70801C17.9982 8.70801 17.7969 8.79138 17.6484 8.9398L10.2915 16.2967L6.89284 12.8981C6.81981 12.8225 6.73246 12.7622 6.63587 12.7207C6.53928 12.6792 6.4354 12.6574 6.33028 12.6565C6.22517 12.6556 6.12092 12.6756 6.02363 12.7154C5.92633 12.7552 5.83794 12.814 5.76361 12.8883C5.68928 12.9626 5.6305 13.051 5.59069 13.1483C5.55089 13.2456 5.53085 13.3499 5.53177 13.455C5.53268 13.5601 5.55452 13.664 5.59601 13.7606C5.6375 13.8572 5.69781 13.9445 5.77342 14.0175L9.73176 17.9759C9.88022 18.1243 10.0815 18.2077 10.2915 18.2077C10.5014 18.2077 10.7027 18.1243 10.8512 17.9759L18.7678 10.0592C18.9163 9.91075 18.9996 9.70943 18.9996 9.4995C18.9996 9.28958 18.9163 9.08826 18.7678 8.9398Z" fill="#1B8392"/>
</g>
<defs>
<clipPath id="clip0_478_6896">
<rect width="19" height="19" fill="white"/>
</clipPath>
</defs>
</svg>
