<svg width="21" height="27" viewBox="0 0 21 27" fill="none" xmlns="http://www.w3.org/2000/svg">
<path d="M18.125 10.1543V4.5C18.125 3.30653 17.6509 2.16193 16.807 1.31802C15.9631 0.474106 14.8185 0 13.625 0L6.875 0C5.68153 0 4.53693 0.474106 3.69302 1.31802C2.84911 2.16193 2.375 3.30653 2.375 4.5V10.1543C1.67886 10.6738 1.11316 11.3483 0.722653 12.1242C0.332143 12.9002 0.127531 13.7563 0.125 14.625V16.875C0.125 19.5603 1.19174 22.1356 3.09054 24.0345C4.98935 25.9333 7.56468 27 10.25 27C12.9353 27 15.5107 25.9333 17.4095 24.0345C19.3083 22.1356 20.375 19.5603 20.375 16.875V14.625C20.3725 13.7563 20.1679 12.9002 19.7773 12.1242C19.3868 11.3483 18.8211 10.6738 18.125 10.1543ZM4.625 9V4.5C4.625 3.90326 4.86205 3.33097 5.28401 2.90901C5.70597 2.48705 6.27826 2.25 6.875 2.25H13.625C14.2217 2.25 14.794 2.48705 15.216 2.90901C15.6379 3.33097 15.875 3.90326 15.875 4.5V9H4.625ZM18.125 16.875C18.125 18.9636 17.2953 20.9666 15.8185 22.4435C14.3416 23.9203 12.3386 24.75 10.25 24.75C8.16142 24.75 6.15838 23.9203 4.68153 22.4435C3.20469 20.9666 2.375 18.9636 2.375 16.875V14.625C2.375 13.7299 2.73058 12.8714 3.36352 12.2385C3.99645 11.6056 4.85489 11.25 5.75 11.25H14.75C15.6451 11.25 16.5036 11.6056 17.1365 12.2385C17.7694 12.8714 18.125 13.7299 18.125 14.625V16.875Z" fill="#F69D16"/>
<path d="M7.99908 6.74926C8.6204 6.74926 9.12408 6.24558 9.12408 5.62427C9.12408 5.00295 8.6204 4.49927 7.99908 4.49927C7.37776 4.49927 6.87408 5.00295 6.87408 5.62427C6.87408 6.24558 7.37776 6.74926 7.99908 6.74926Z" fill="#F69D16"/>
<path d="M12.5009 6.74926C13.1222 6.74926 13.6259 6.24558 13.6259 5.62427C13.6259 5.00295 13.1222 4.49927 12.5009 4.49927C11.8796 4.49927 11.3759 5.00295 11.3759 5.62427C11.3759 6.24558 11.8796 6.74926 12.5009 6.74926Z" fill="#F69D16"/>
</svg>
