<svg width="28" height="27" viewBox="0 0 28 27" fill="none" xmlns="http://www.w3.org/2000/svg">
<g clip-path="url(#clip0_453_8360)">
<path d="M14 11.25C13.1049 11.25 12.2464 10.8944 11.6135 10.2615C10.9806 9.62855 10.625 8.7701 10.625 7.875C10.625 6.97989 10.9806 6.12145 11.6135 5.48851C12.2464 4.85558 13.1049 4.5 14 4.5C14.8951 4.5 15.7536 4.85558 16.3865 5.48851C17.0194 6.12145 17.375 6.97989 17.375 7.875C17.375 8.7701 17.0194 9.62855 16.3865 10.2615C15.7536 10.8944 14.8951 11.25 14 11.25ZM10.589 17.1551C10.8203 16.4324 11.2753 15.8018 11.8883 15.3544C12.5013 14.9069 13.2405 14.6658 13.9994 14.6658C14.7583 14.6658 15.4976 14.9069 16.1106 15.3544C16.7236 15.8018 17.1785 16.4324 17.4099 17.1551C17.4845 17.4442 17.6709 17.6919 17.928 17.8436C18.1852 17.9953 18.4921 18.0386 18.7812 17.964C19.0704 17.8894 19.318 17.703 19.4697 17.4458C19.6214 17.1887 19.6647 16.8817 19.5901 16.5926C18.1152 11.0272 9.88138 11.0295 8.411 16.5926C8.37038 16.7368 8.35898 16.8877 8.37744 17.0363C8.39591 17.185 8.44388 17.3285 8.51854 17.4583C8.5932 17.5882 8.69305 17.7019 8.81223 17.7926C8.9314 17.8834 9.0675 17.9494 9.21255 17.9869C9.35759 18.0244 9.50865 18.0325 9.65687 18.0108C9.8051 17.9891 9.94749 17.938 10.0757 17.8605C10.2039 17.783 10.3154 17.6807 10.4035 17.5596C10.4916 17.4385 10.5547 17.3009 10.589 17.1551ZM14.0101 26.6231C13.4551 26.6234 12.9193 26.4196 12.5049 26.0505L8.28837 22.5H5C3.80653 22.5 2.66193 22.0259 1.81802 21.182C0.974106 20.3381 0.5 19.1935 0.5 18V4.5C0.5 3.30653 0.974106 2.16193 1.81802 1.31802C2.66193 0.474106 3.80653 0 5 0L23 0C24.1935 0 25.3381 0.474106 26.182 1.31802C27.0259 2.16193 27.5 3.30653 27.5 4.5V18C27.5 19.1935 27.0259 20.3381 26.182 21.182C25.3381 22.0259 24.1935 22.5 23 22.5H19.7904L15.4625 26.0775C15.0615 26.4311 14.5447 26.6253 14.0101 26.6231ZM5 2.25C4.40326 2.25 3.83097 2.48705 3.40901 2.90901C2.98705 3.33097 2.75 3.90326 2.75 4.5V18C2.75 18.5967 2.98705 19.169 3.40901 19.591C3.83097 20.0129 4.40326 20.25 5 20.25H8.70012C8.96523 20.25 9.22182 20.3436 9.42463 20.5144L13.9764 24.3506L18.6699 20.5076C18.8715 20.3411 19.1249 20.25 19.3865 20.25H23C23.5967 20.25 24.169 20.0129 24.591 19.591C25.0129 19.169 25.25 18.5967 25.25 18V4.5C25.25 3.90326 25.0129 3.33097 24.591 2.90901C24.169 2.48705 23.5967 2.25 23 2.25H5Z" fill="#F04438"/>
</g>
<defs>
<clipPath id="clip0_453_8360">
<rect width="27" height="27" fill="white" transform="translate(0.5)"/>
</clipPath>
</defs>
</svg>
