<svg width="28" height="27" viewBox="0 0 28 27" fill="none" xmlns="http://www.w3.org/2000/svg">
<path d="M25.0641 5.21335L16.7685 0.906526C14.9425 -0.282125 12.6697 -0.303216 10.8253 0.851357L2.43644 5.21335C2.40496 5.23053 2.37231 5.24892 2.34194 5.26851C0.351164 6.509 -0.339956 9.27334 0.79834 11.4428C1.18419 12.1783 1.75175 12.7809 2.43644 13.1821L4.75052 14.3836V20.3908C4.75189 23.077 6.35577 25.4502 8.7093 26.2485C10.3471 26.7649 12.0454 27.0177 13.7503 26.9988C15.455 27.0196 17.1532 26.7689 18.7913 26.2547C21.1448 25.4564 22.7487 23.0832 22.7501 20.397V14.3811L25.0001 13.2091V23.3208C25.0001 23.9979 25.5037 24.5468 26.125 24.5468C26.7463 24.5468 27.25 23.9979 27.25 23.3208V8.60925C27.2574 7.16964 26.2144 5.83974 25.0641 5.21335ZM20.5001 20.397C20.5007 22.0037 19.5441 23.4249 18.1376 23.9069C16.7114 24.351 15.2335 24.5666 13.7503 24.5469C12.267 24.5666 10.7891 24.351 9.36287 23.9069C7.95643 23.4249 6.99985 22.0037 7.00043 20.397V15.552L10.732 17.489C11.6527 18.0848 12.7042 18.3979 13.775 18.395C14.7943 18.4029 15.7964 18.1088 16.6741 17.5442L20.5001 15.5519V20.397ZM24.1 10.9693L15.6155 15.3827C14.4325 16.1334 12.9661 16.1122 11.8018 15.3276L3.50064 11.0244C2.57534 10.4807 2.22972 9.22243 2.72868 8.21411C2.89743 7.8731 3.15044 7.59042 3.45904 7.39802L11.8907 3.00908C13.0741 2.26005 14.5396 2.28126 15.7043 3.06425L23.9999 7.37107C24.6099 7.74023 24.9916 8.43737 25 9.19777C25.0011 9.91807 24.6607 10.5879 24.1 10.9693Z" fill="#1B8392"/>
</svg>
