<svg width="27" height="27" viewBox="0 0 27 27" fill="none" xmlns="http://www.w3.org/2000/svg">
<g clip-path="url(#clip0_453_8373)">
<path d="M19.1252 15.75C19.1252 16.0484 19.0067 16.3345 18.7957 16.5455C18.5847 16.7565 18.2986 16.875 18.0002 16.875H9.00018C8.70181 16.875 8.41567 16.7565 8.20469 16.5455C7.99371 16.3345 7.87518 16.0484 7.87518 15.75C7.87518 15.4517 7.99371 15.1655 8.20469 14.9545C8.41567 14.7436 8.70181 14.625 9.00018 14.625H18.0002C18.2986 14.625 18.5847 14.7436 18.7957 14.9545C19.0067 15.1655 19.1252 15.4517 19.1252 15.75ZM14.6252 19.125H9.00018C8.70181 19.125 8.41567 19.2436 8.20469 19.4545C7.99371 19.6655 7.87518 19.9517 7.87518 20.25C7.87518 20.5484 7.99371 20.8345 8.20469 21.0455C8.41567 21.2565 8.70181 21.375 9.00018 21.375H14.6252C14.9236 21.375 15.2097 21.2565 15.4207 21.0455C15.6317 20.8345 15.7502 20.5484 15.7502 20.25C15.7502 19.9517 15.6317 19.6655 15.4207 19.4545C15.2097 19.2436 14.9236 19.125 14.6252 19.125ZM24.7502 11.7957V21.375C24.7484 22.8663 24.1552 24.296 23.1007 25.3505C22.0462 26.405 20.6165 26.9982 19.1252 27H7.87518C6.38389 26.9982 4.95419 26.405 3.89968 25.3505C2.84518 24.296 2.25197 22.8663 2.25018 21.375V5.62503C2.25197 4.13373 2.84518 2.70403 3.89968 1.64952C4.95419 0.595018 6.38389 0.00181227 7.87518 2.59298e-05H12.9546C13.9891 -0.00263686 15.014 0.199812 15.9698 0.595668C16.9257 0.991523 17.7935 1.57293 18.5233 2.30628L22.4428 6.22803C23.1766 6.9573 23.7583 7.82492 24.1544 8.78062C24.5505 9.73633 24.753 10.7611 24.7502 11.7957ZM16.9326 3.89703C16.5785 3.55408 16.181 3.25907 15.7502 3.01953V7.87503C15.7502 8.17339 15.8687 8.45954 16.0797 8.67052C16.2907 8.8815 16.5768 9.00003 16.8752 9.00003H21.7307C21.491 8.56936 21.1956 8.17219 20.8521 7.81878L16.9326 3.89703ZM22.5002 11.7957C22.5002 11.61 22.4642 11.4323 22.4473 11.25H16.8752C15.9801 11.25 15.1216 10.8944 14.4887 10.2615C13.8558 9.62858 13.5002 8.77013 13.5002 7.87503V2.3029C13.3179 2.28603 13.1391 2.25003 12.9546 2.25003H7.87518C6.98008 2.25003 6.12163 2.60561 5.4887 3.23854C4.85576 3.87148 4.50018 4.72992 4.50018 5.62503V21.375C4.50018 22.2701 4.85576 23.1286 5.4887 23.7615C6.12163 24.3944 6.98008 24.75 7.87518 24.75H19.1252C20.0203 24.75 20.8787 24.3944 21.5117 23.7615C22.1446 23.1286 22.5002 22.2701 22.5002 21.375V11.7957Z" fill="#12B76A"/>
</g>
<defs>
<clipPath id="clip0_453_8373">
<rect width="27" height="27" fill="white"/>
</clipPath>
</defs>
</svg>
