<svg width="28" height="28" viewBox="0 0 28 28" fill="none" xmlns="http://www.w3.org/2000/svg">
<g clip-path="url(#clip0_2128_14799)">
<path d="M22.9437 6.72849L19.0219 2.80674C18.2924 2.07332 17.4248 1.49186 16.4691 1.096C15.5134 0.700131 14.4887 0.497723 13.4543 0.500486H8.37491C6.88361 0.502272 5.45391 1.09548 4.39941 2.14998C3.3449 3.20449 2.75169 4.63419 2.74991 6.12549V21.8755C2.75169 23.3668 3.3449 24.7965 4.39941 25.851C5.45391 26.9055 6.88361 27.4987 8.37491 27.5005H19.6249C21.1162 27.4987 22.5459 26.9055 23.6004 25.851C24.6549 24.7965 25.2481 23.3668 25.2499 21.8755V12.2961C25.2527 11.2617 25.0503 10.237 24.6544 9.28132C24.2585 8.32564 23.6771 7.45796 22.9437 6.72849ZM21.3529 8.31924C21.6961 8.67295 21.9915 9.07007 22.2315 9.50049H17.3749C17.0765 9.50049 16.7904 9.38196 16.5794 9.17098C16.3684 8.96 16.2499 8.67385 16.2499 8.37549V3.51886C16.6803 3.75892 17.0774 4.0543 17.4312 4.39749L21.3529 8.31924ZM22.9999 21.8755C22.9999 22.7706 22.6443 23.629 22.0114 24.262C21.3785 24.8949 20.52 25.2505 19.6249 25.2505H8.37491C7.4798 25.2505 6.62136 24.8949 5.98842 24.262C5.35549 23.629 4.99991 22.7706 4.99991 21.8755V6.12549C4.99991 5.23038 5.35549 4.37194 5.98842 3.739C6.62136 3.10607 7.4798 2.75049 8.37491 2.75049H13.4543C13.6399 2.75049 13.8177 2.78649 13.9999 2.80336V8.37549C13.9999 9.27059 14.3555 10.129 14.9884 10.762C15.6214 11.3949 16.4798 11.7505 17.3749 11.7505H22.947C22.9639 11.9327 22.9999 12.1105 22.9999 12.2961V21.8755ZM19.3144 15.4754C19.5198 15.6915 19.6311 15.9803 19.6237 16.2783C19.6163 16.5764 19.4909 16.8593 19.275 17.065L15.2374 20.9057C14.6027 21.5304 13.7469 21.879 12.8563 21.8754C11.9658 21.8718 11.1128 21.5164 10.4832 20.8866L8.75066 19.3409C8.52778 19.1421 8.39296 18.863 8.37587 18.5649C8.36741 18.4173 8.38811 18.2695 8.43678 18.1299C8.48545 17.9903 8.56114 17.8616 8.65953 17.7512C8.75793 17.6409 8.87709 17.551 9.01023 17.4867C9.14336 17.4224 9.28786 17.3849 9.43547 17.3765C9.73359 17.3594 10.0263 17.4614 10.2492 17.6601L12.0323 19.2509C12.1344 19.3655 12.2588 19.458 12.398 19.5228C12.5372 19.5875 12.6881 19.6231 12.8416 19.6273C12.995 19.6315 13.1477 19.6043 13.2902 19.5473C13.4327 19.4903 13.5621 19.4047 13.6703 19.2959L17.7203 15.436C17.8274 15.3336 17.9536 15.2534 18.0918 15.1999C18.23 15.1464 18.3774 15.1208 18.5255 15.1245C18.6736 15.1281 18.8196 15.161 18.955 15.2212C19.0904 15.2814 19.2125 15.3678 19.3144 15.4754Z" fill="#1B8392"/>
</g>
<defs>
<clipPath id="clip0_2128_14799">
<rect width="27" height="27" fill="white" transform="translate(0.5 0.5)"/>
</clipPath>
</defs>
</svg>
