<svg width="28" height="27" viewBox="0 0 28 27" fill="none" xmlns="http://www.w3.org/2000/svg">
<g clip-path="url(#clip0_453_9110)">
<path d="M19.6252 15.75C19.6252 16.0484 19.5066 16.3345 19.2957 16.5455C19.0847 16.7565 18.7985 16.875 18.5002 16.875H9.50017C9.2018 16.875 8.91565 16.7565 8.70467 16.5455C8.49369 16.3345 8.37517 16.0484 8.37517 15.75C8.37517 15.4517 8.49369 15.1655 8.70467 14.9545C8.91565 14.7436 9.2018 14.625 9.50017 14.625H18.5002C18.7985 14.625 19.0847 14.7436 19.2957 14.9545C19.5066 15.1655 19.6252 15.4517 19.6252 15.75ZM15.1252 19.125H9.50017C9.2018 19.125 8.91565 19.2436 8.70467 19.4545C8.49369 19.6655 8.37517 19.9517 8.37517 20.25C8.37517 20.5484 8.49369 20.8345 8.70467 21.0455C8.91565 21.2565 9.2018 21.375 9.50017 21.375H15.1252C15.4235 21.375 15.7097 21.2565 15.9207 21.0455C16.1316 20.8345 16.2502 20.5484 16.2502 20.25C16.2502 19.9517 16.1316 19.6655 15.9207 19.4545C15.7097 19.2436 15.4235 19.125 15.1252 19.125ZM25.2502 11.7957V21.375C25.2484 22.8663 24.6552 24.296 23.6007 25.3505C22.5462 26.405 21.1165 26.9982 19.6252 27H8.37517C6.88387 26.9982 5.45417 26.405 4.39967 25.3505C3.34516 24.296 2.75195 22.8663 2.75017 21.375V5.62503C2.75195 4.13373 3.34516 2.70403 4.39967 1.64952C5.45417 0.595018 6.88387 0.00181227 8.37517 2.59298e-05H13.4545C14.4891 -0.00263686 15.5139 0.199812 16.4698 0.595668C17.4256 0.991523 18.2935 1.57293 19.0233 2.30628L22.9428 6.22803C23.6766 6.9573 24.2583 7.82492 24.6544 8.78062C25.0505 9.73633 25.253 10.7611 25.2502 11.7957ZM17.4325 3.89703C17.0785 3.55408 16.681 3.25907 16.2502 3.01953V7.87503C16.2502 8.17339 16.3687 8.45954 16.5797 8.67052C16.7907 8.8815 17.0768 9.00003 17.3752 9.00003H22.2307C21.991 8.56936 21.6956 8.17219 21.352 7.81878L17.4325 3.89703ZM23.0002 11.7957C23.0002 11.61 22.9642 11.4323 22.9473 11.25H17.3752C16.4801 11.25 15.6216 10.8944 14.9887 10.2615C14.3557 9.62858 14.0002 8.77013 14.0002 7.87503V2.3029C13.8179 2.28603 13.639 2.25003 13.4545 2.25003H8.37517C7.48006 2.25003 6.62162 2.60561 5.98868 3.23854C5.35575 3.87148 5.00017 4.72992 5.00017 5.62503V21.375C5.00017 22.2701 5.35575 23.1286 5.98868 23.7615C6.62162 24.3944 7.48006 24.75 8.37517 24.75H19.6252C20.5203 24.75 21.3787 24.3944 22.0117 23.7615C22.6446 23.1286 23.0002 22.2701 23.0002 21.375V11.7957Z" fill="#F69D16"/>
</g>
<defs>
<clipPath id="clip0_453_9110">
<rect width="27" height="27" fill="white" transform="translate(0.5)"/>
</clipPath>
</defs>
</svg>
