<svg width="22" height="23" viewBox="0 0 22 23" fill="none" xmlns="http://www.w3.org/2000/svg">
<g clip-path="url(#clip0_453_8170)">
<path d="M21.0833 20.6667H2.75C2.50688 20.6667 2.27373 20.5701 2.10182 20.3982C1.92991 20.2263 1.83333 19.9931 1.83333 19.75V1.41667C1.83333 1.17355 1.73676 0.940394 1.56485 0.768485C1.39294 0.596577 1.15978 0.5 0.916667 0.5C0.673552 0.5 0.440394 0.596577 0.268485 0.768485C0.0965771 0.940394 0 1.17355 0 1.41667L0 19.75C0 20.4793 0.289731 21.1788 0.805456 21.6945C1.32118 22.2103 2.02065 22.5 2.75 22.5H21.0833C21.3264 22.5 21.5596 22.4034 21.7315 22.2315C21.9034 22.0596 22 21.8264 22 21.5833C22 21.3402 21.9034 21.1071 21.7315 20.9352C21.5596 20.7632 21.3264 20.6667 21.0833 20.6667Z" fill="#1B8392"/>
<path d="M13.7502 18.834C13.9933 18.834 14.2264 18.7374 14.3984 18.5655C14.5703 18.3936 14.6668 18.1604 14.6668 17.9173V11.5007C14.6668 11.2575 14.5703 11.0244 14.3984 10.8525C14.2264 10.6806 13.9933 10.584 13.7502 10.584C13.5071 10.584 13.2739 10.6806 13.102 10.8525C12.9301 11.0244 12.8335 11.2575 12.8335 11.5007V17.9173C12.8335 18.1604 12.9301 18.3936 13.102 18.5655C13.2739 18.7374 13.5071 18.834 13.7502 18.834Z" fill="#1B8392"/>
<path d="M6.41666 18.834C6.65978 18.834 6.89294 18.7374 7.06484 18.5655C7.23675 18.3936 7.33333 18.1604 7.33333 17.9173V11.5007C7.33333 11.2575 7.23675 11.0244 7.06484 10.8525C6.89294 10.6806 6.65978 10.584 6.41666 10.584C6.17355 10.584 5.94039 10.6806 5.76849 10.8525C5.59658 11.0244 5.5 11.2575 5.5 11.5007V17.9173C5.5 18.1604 5.59658 18.3936 5.76849 18.5655C5.94039 18.7374 6.17355 18.834 6.41666 18.834Z" fill="#1B8392"/>
<path d="M17.4167 18.8333C17.6598 18.8333 17.8929 18.7368 18.0649 18.5648C18.2368 18.3929 18.3333 18.1598 18.3333 17.9167V6.91667C18.3333 6.67355 18.2368 6.44039 18.0649 6.26849C17.8929 6.09658 17.6598 6 17.4167 6C17.1736 6 16.9404 6.09658 16.7685 6.26849C16.5966 6.44039 16.5 6.67355 16.5 6.91667V17.9167C16.5 18.1598 16.5966 18.3929 16.7685 18.5648C16.9404 18.7368 17.1736 18.8333 17.4167 18.8333Z" fill="#1B8392"/>
<path d="M10.0832 18.8333C10.3263 18.8333 10.5595 18.7368 10.7314 18.5648C10.9033 18.3929 10.9998 18.1598 10.9998 17.9167V6.91667C10.9998 6.67355 10.9033 6.44039 10.7314 6.26849C10.5595 6.09658 10.3263 6 10.0832 6C9.84006 6 9.6069 6.09658 9.43499 6.26849C9.26308 6.44039 9.1665 6.67355 9.1665 6.91667V17.9167C9.1665 18.1598 9.26308 18.3929 9.43499 18.5648C9.6069 18.7368 9.84006 18.8333 10.0832 18.8333Z" fill="#1B8392"/>
</g>
<defs>
<clipPath id="clip0_453_8170">
<rect width="22" height="22" fill="white" transform="translate(0 0.5)"/>
</clipPath>
</defs>
</svg>
