<svg width="404" height="342" viewBox="0 0 404 342" fill="none" xmlns="http://www.w3.org/2000/svg">
<g opacity="0.83">
<path d="M226.484 94.6728C224.909 98.0777 223.706 101.643 222.898 105.306C220.59 115.376 205.846 161.9 128.983 171.189C42.6729 181.628 -2.95745 230.016 16.9977 283.336C40.3654 345.782 206.214 366.378 304.603 301.188C402.993 235.999 362.92 90.6514 313.866 70.9125C261.616 49.8621 233.655 79.53 226.484 94.6728Z" fill="#D8ECF3"/>
</g>
<path d="M388.746 221.257H329.163C327.53 221.257 325.963 220.609 324.808 219.455C323.652 218.3 323.001 216.734 322.998 215.1V183.481C322.998 181.846 323.648 180.277 324.804 179.12C325.96 177.964 327.528 177.314 329.163 177.314H388.746C390.381 177.314 391.949 177.964 393.105 179.12C394.261 180.277 394.911 181.846 394.911 183.481V215.1C394.908 216.734 394.257 218.3 393.101 219.455C391.946 220.609 390.379 221.257 388.746 221.257ZM329.163 178.398C327.815 178.398 326.523 178.933 325.57 179.887C324.617 180.84 324.082 182.133 324.082 183.481V215.1C324.085 216.447 324.621 217.737 325.574 218.688C326.526 219.639 327.817 220.173 329.163 220.173H388.746C390.092 220.173 391.383 219.639 392.335 218.688C393.288 217.737 393.824 216.447 393.827 215.1V183.481C393.827 182.133 393.292 180.84 392.339 179.887C391.386 178.933 390.094 178.398 388.746 178.398H329.163Z" fill="#FBB800"/>
<path d="M394.336 190.646H323.562C323.418 190.646 323.28 190.589 323.179 190.487C323.077 190.386 323.02 190.248 323.02 190.104C323.02 189.96 323.077 189.823 323.179 189.721C323.28 189.619 323.418 189.562 323.562 189.562H394.336C394.48 189.562 394.618 189.619 394.719 189.721C394.821 189.823 394.878 189.96 394.878 190.104C394.878 190.248 394.821 190.386 394.719 190.487C394.618 190.589 394.48 190.646 394.336 190.646Z" fill="#FBB800"/>
<path d="M385.583 187.785C384.899 187.787 384.23 187.586 383.66 187.207C383.09 186.829 382.646 186.289 382.383 185.658C382.119 185.026 382.049 184.33 382.182 183.659C382.314 182.988 382.642 182.37 383.125 181.886C383.608 181.401 384.223 181.071 384.894 180.936C385.565 180.802 386.26 180.87 386.892 181.131C387.524 181.393 388.065 181.836 388.445 182.405C388.825 182.974 389.028 183.643 389.028 184.327C389.028 185.242 388.666 186.12 388.02 186.768C387.374 187.416 386.498 187.782 385.583 187.785ZM385.583 181.964C385.113 181.962 384.653 182.099 384.261 182.359C383.869 182.619 383.563 182.99 383.382 183.424C383.202 183.859 383.154 184.337 383.245 184.798C383.336 185.26 383.562 185.684 383.895 186.016C384.227 186.349 384.651 186.575 385.112 186.667C385.573 186.758 386.051 186.71 386.485 186.529C386.919 186.348 387.29 186.042 387.549 185.65C387.809 185.258 387.947 184.797 387.945 184.327C387.942 183.701 387.692 183.102 387.25 182.659C386.808 182.217 386.209 181.967 385.583 181.964Z" fill="#FBB800"/>
<path d="M152.751 49.7319V103.605C152.815 104.487 153.224 105.308 153.889 105.89C154.554 106.473 155.422 106.769 156.305 106.716H269.308C270.188 106.766 271.054 106.468 271.716 105.886C272.379 105.304 272.787 104.485 272.851 103.605V49.7319C272.789 48.8499 272.383 48.0276 271.72 47.4432C271.057 46.8588 270.19 46.5595 269.308 46.6101H156.272C155.394 46.5654 154.532 46.8674 153.874 47.4511C153.216 48.0349 152.813 48.8539 152.751 49.7319Z" fill="#1B8392"/>
<path d="M152.751 48.3011V52.7236H272.851V48.3011C272.926 47.2806 272.596 46.2716 271.933 45.4926C271.27 44.7135 270.327 44.2271 269.308 44.1387H156.272C155.257 44.2325 154.32 44.7212 153.661 45.4996C153.003 46.2781 152.676 47.284 152.751 48.3011Z" fill="#F3F6F7"/>
<path d="M251.097 48.4312C251.097 48.8342 251.217 49.2282 251.44 49.5633C251.664 49.8984 251.982 50.1596 252.354 50.3139C252.727 50.4681 253.136 50.5085 253.531 50.4298C253.926 50.3512 254.289 50.1571 254.574 49.8721C254.859 49.5871 255.053 49.224 255.131 48.8287C255.21 48.4334 255.17 48.0237 255.016 47.6513C254.861 47.2789 254.6 46.9607 254.265 46.7367C253.93 46.5128 253.537 46.3933 253.134 46.3933C252.594 46.3933 252.076 46.608 251.694 46.9902C251.312 47.3723 251.097 47.8907 251.097 48.4312Z" fill="#FBB800"/>
<path d="M257.629 48.4312C257.627 48.8373 257.746 49.2349 257.97 49.5734C258.194 49.912 258.514 50.1762 258.888 50.3326C259.263 50.489 259.676 50.5305 260.074 50.4518C260.472 50.3731 260.838 50.1778 261.125 49.8906C261.412 49.6035 261.607 49.2374 261.686 48.839C261.764 48.4406 261.723 48.0278 261.567 47.653C261.41 47.2782 261.146 46.9584 260.808 46.7341C260.469 46.5098 260.072 46.3912 259.666 46.3933C259.126 46.3933 258.608 46.608 258.226 46.9902C257.844 47.3724 257.629 47.8907 257.629 48.4312Z" fill="#EA366E"/>
<path d="M264.162 48.4312C264.16 48.8368 264.278 49.2339 264.502 49.5723C264.726 49.9106 265.045 50.1749 265.419 50.3316C265.793 50.4883 266.205 50.5304 266.602 50.4526C267 50.3748 267.366 50.1805 267.654 49.8945C267.941 49.6084 268.137 49.2434 268.217 48.8457C268.297 48.448 268.257 48.0355 268.102 47.6605C267.948 47.2855 267.685 46.9649 267.348 46.7393C267.011 46.5137 266.615 46.3933 266.21 46.3933C265.668 46.3933 265.149 46.6077 264.766 46.9895C264.382 47.3714 264.165 47.8897 264.162 48.4312Z" fill="#1B8392"/>
<path d="M196.984 68.2786L261.714 68.2786V64.4197L196.984 64.4197V68.2786Z" fill="white"/>
<path d="M196.984 78.5327L261.714 78.5327V74.6738L196.984 74.6738V78.5327Z" fill="white"/>
<path d="M196.984 88.7869L261.714 88.7869V84.928L196.984 84.928V88.7869Z" fill="white"/>
<path d="M162.729 88.7869H189.877V64.5929H162.729V88.7869Z" fill="#FBB800"/>
<path d="M1.39978e-05 98.6402V233.452C0.00287386 234.564 0.445504 235.629 1.23114 236.415C2.01677 237.201 3.0815 237.644 4.19255 237.647H194.742C195.855 237.647 196.922 237.205 197.71 236.419C198.498 235.632 198.942 234.565 198.945 233.452V98.6402C198.945 97.5237 198.502 96.4529 197.714 95.6624C196.926 94.872 195.857 94.4265 194.742 94.4236H4.19255C3.64055 94.425 3.09424 94.5352 2.58481 94.7479C2.07538 94.9605 1.6128 95.2715 1.22349 95.6631C0.834174 96.0546 0.525751 96.5191 0.315827 97.0299C0.105903 97.5407 -0.0014105 98.0879 1.39978e-05 98.6402Z" fill="#D0D5DD"/>
<path d="M175.003 199.372H59.3347V203.654H175.003V199.372Z" fill="white"/>
<path d="M1.39978e-05 98.6402V105.361H198.945V98.6402C198.945 97.5237 198.502 96.4529 197.714 95.6624C196.926 94.872 195.857 94.4265 194.742 94.4236H4.19255C3.64055 94.425 3.09424 94.5352 2.58481 94.7479C2.07538 94.9605 1.6128 95.2715 1.22349 95.6631C0.834174 96.0546 0.525751 96.5191 0.315827 97.0299C0.105903 97.5407 -0.0014105 98.0879 1.39978e-05 98.6402Z" fill="#F3F6F7"/>
<path d="M50.7653 129.327H22.0134V158.095H50.7653V129.327Z" fill="white"/>
<path d="M50.7653 164.328H22.0134V193.096H50.7653V164.328Z" fill="white"/>
<path d="M50.3537 199.318H21.6018V228.086H50.3537V199.318Z" fill="white"/>
<path d="M175.003 129.327H59.3347V133.609H175.003V129.327Z" fill="white"/>
<path d="M175.003 138.205H59.3347V142.486H175.003V138.205Z" fill="#EA366E"/>
<path d="M175.003 164.328H59.3347V168.61H175.003V164.328Z" fill="white"/>
<path d="M175.003 173.206H59.3347V177.487H175.003V173.206Z" fill="#EA366E"/>
<path d="M175.003 147.873H59.3347V152.155H175.003V147.873Z" fill="white"/>
<path d="M35.2087 153.575L23.9312 145.532L26.5203 141.901L34.5154 147.613L45.0563 135.614L48.393 138.551L35.2087 153.575Z" fill="#EA366E"/>
<path d="M35.9237 188.446L24.657 180.403L27.2353 176.783L35.2412 182.484L45.7713 170.485L49.1188 173.422L35.9237 188.446Z" fill="#EA366E"/>
<path d="M23.1074 99.9084C23.1075 100.468 23.2727 101.015 23.5823 101.48C23.8918 101.946 24.332 102.31 24.8474 102.527C25.3629 102.743 25.9308 102.802 26.4799 102.697C27.029 102.592 27.5347 102.327 27.9337 101.935C28.3328 101.543 28.6073 101.042 28.7228 100.495C28.8384 99.9476 28.7899 99.3784 28.5833 98.8586C28.3768 98.3388 28.0214 97.8916 27.5618 97.5731C27.1022 97.2546 26.5589 97.0791 25.9999 97.0684C25.6227 97.0612 25.2478 97.1293 24.8971 97.2688C24.5465 97.4083 24.2271 97.6163 23.9578 97.8808C23.6885 98.1452 23.4746 98.4607 23.3285 98.8089C23.1825 99.157 23.1074 99.5308 23.1074 99.9084Z" fill="#EA366E"/>
<path d="M14.8855 99.9082C14.8834 100.473 15.0489 101.026 15.3612 101.496C15.6734 101.967 16.1183 102.334 16.6394 102.551C17.1604 102.768 17.7342 102.825 18.2879 102.716C18.8416 102.606 19.3503 102.334 19.7494 101.935C20.1485 101.536 20.4201 101.027 20.5297 100.473C20.6392 99.9185 20.5819 99.3444 20.3649 98.8231C20.1479 98.3017 19.7811 97.8566 19.3109 97.5442C18.8407 97.2318 18.2883 97.0661 17.7239 97.0683C16.972 97.0711 16.2517 97.3712 15.72 97.9032C15.1883 98.4352 14.8884 99.1559 14.8855 99.9082Z" fill="#1B8392"/>
<path d="M9.5117 102.748C11.0793 102.748 12.3501 101.477 12.3501 99.9082C12.3501 98.3397 11.0793 97.0682 9.5117 97.0682C7.94412 97.0682 6.67334 98.3397 6.67334 99.9082C6.67334 101.477 7.94412 102.748 9.5117 102.748Z" fill="#FBB800"/>
<path d="M134.638 34.0363H76.7981C76.0367 34.0363 75.3065 33.7336 74.7681 33.1949C74.2297 32.6562 73.9272 31.9256 73.9272 31.1638V2.88333C73.9272 2.12049 74.2294 1.38875 74.7674 0.848329C75.3055 0.307911 76.0357 0.00286779 76.7981 0L134.638 0C135.402 0 136.135 0.303778 136.675 0.844507C137.216 1.38524 137.519 2.11862 137.519 2.88333V31.1638C137.517 31.9266 137.212 32.6572 136.672 33.1956C136.131 33.734 135.4 34.0363 134.638 34.0363ZM76.7981 1.08396C76.5625 1.08395 76.3291 1.13057 76.1115 1.22113C75.894 1.31169 75.6964 1.4444 75.5303 1.61163C75.3642 1.77886 75.2327 1.97731 75.1435 2.19556C75.0543 2.4138 75.0092 2.64754 75.0106 2.88333V31.1638C75.0106 31.6381 75.1989 32.093 75.5341 32.4284C75.8694 32.7639 76.324 32.9523 76.7981 32.9523H134.638C134.873 32.9537 135.107 32.9085 135.325 32.8193C135.543 32.73 135.742 32.5985 135.909 32.4323C136.076 32.2661 136.208 32.0684 136.299 31.8507C136.39 31.633 136.436 31.3996 136.436 31.1638V2.88333C136.436 2.4061 136.247 1.94843 135.909 1.61098C135.572 1.27353 135.115 1.08396 134.638 1.08396H76.7981Z" fill="#EA366E"/>
<path d="M136.978 6.68796H74.4689C74.3253 6.68796 74.1875 6.63086 74.0859 6.52922C73.9843 6.42758 73.9272 6.28972 73.9272 6.14598C73.9272 6.00224 73.9843 5.86439 74.0859 5.76275C74.1875 5.66111 74.3253 5.604 74.4689 5.604H136.978C137.121 5.604 137.259 5.66111 137.361 5.76275C137.462 5.86439 137.519 6.00224 137.519 6.14598C137.519 6.28972 137.462 6.42758 137.361 6.52922C137.259 6.63086 137.121 6.68796 136.978 6.68796Z" fill="#EA366E"/>
<path d="M80.8065 4.86691C80.7073 4.86903 80.6096 4.8427 80.5249 4.79104L77.199 2.81823C77.0781 2.74364 76.9913 2.62451 76.9574 2.48652C76.9234 2.34853 76.945 2.20271 77.0174 2.08047C77.0899 1.95823 77.2074 1.86936 77.3447 1.83299C77.482 1.79662 77.6281 1.81567 77.7515 1.88603L81.0774 3.85883C81.2003 3.93123 81.2898 4.04925 81.3263 4.18727C81.3628 4.32528 81.3434 4.47213 81.2724 4.59592C81.2243 4.67712 81.1562 4.74466 81.0747 4.79209C80.9932 4.83953 80.9008 4.86529 80.8065 4.86691Z" fill="#EA366E"/>
<path d="M77.4803 4.86703C77.3612 4.86819 77.245 4.83002 77.1497 4.75843C77.0545 4.68684 76.9854 4.58581 76.9534 4.471C76.9213 4.35619 76.9279 4.234 76.9723 4.12335C77.0166 4.0127 77.0962 3.91977 77.1987 3.85895L80.5245 1.88614C80.6499 1.81449 80.7983 1.79479 80.938 1.83126C81.0777 1.86772 81.1976 1.95746 81.272 2.08126C81.3087 2.14218 81.3327 2.20985 81.3427 2.28025C81.3528 2.35065 81.3486 2.42234 81.3304 2.49108C81.3122 2.55983 81.2804 2.62421 81.2369 2.68043C81.1933 2.73665 81.139 2.78355 81.077 2.81835L77.7512 4.79115C77.6698 4.84138 77.5759 4.86768 77.4803 4.86703Z" fill="#EA366E"/>
<path d="M402.917 296.18H6.67343C6.38611 296.18 6.11056 296.066 5.90739 295.863C5.70423 295.66 5.59009 295.384 5.59009 295.097C5.59009 294.809 5.70423 294.533 5.90739 294.33C6.11056 294.127 6.38611 294.013 6.67343 294.013H402.917C403.204 294.013 403.48 294.127 403.683 294.33C403.886 294.533 404 294.809 404 295.097C404 295.384 403.886 295.66 403.683 295.863C403.48 296.066 403.204 296.18 402.917 296.18Z" fill="#D9D9D9"/>
<path d="M231.987 242.264C231.987 242.264 224.826 248.205 222.605 247.218C220.384 246.232 200.353 229.159 200.353 229.159L183.377 244.823C183.377 244.823 203.322 285.785 217.405 291.227C231.489 296.668 246.33 294.479 254.726 285.298C263.122 276.116 257.196 251.175 257.196 251.175L231.987 242.264Z" fill="#FF8773"/>
<path d="M360.753 263.532C360.753 263.532 348.923 209.876 321.753 199.73C294.582 189.584 275.917 194.115 265.646 197.02C248.096 201.963 224.371 239.294 224.371 239.294L253.784 263.521L252.549 296.17H320.799L321.547 264.269L360.753 263.532Z" fill="#FBB800"/>
<path d="M292.242 159.472C292.242 159.472 278.159 160.144 277.368 146.638C276.523 132.264 289.816 130.888 295.46 136.698C301.104 142.508 300.086 148.415 300.086 148.415C300.086 148.415 304.018 144.871 308.308 149.228C311.461 152.48 309.836 157.661 309.836 157.661C309.836 157.661 317.094 157.38 316.412 163.721C316.22 165.581 315.661 167.384 314.767 169.025C313.872 170.666 312.66 172.113 311.201 173.281L292.242 159.472Z" fill="#102528"/>
<path d="M305.102 184.327L303.639 199.286C303.639 199.286 300.53 203.329 291.723 203.177C285.147 203.069 283.056 201.378 283.056 201.378L284.703 193.888L286.317 186.582L302.448 184.652L305.102 184.327Z" fill="#F57B54"/>
<path d="M302.393 184.652C302.281 185.15 302.087 185.626 301.819 186.061C297.746 193.205 288.44 193.92 284.648 193.887L286.262 186.582L302.393 184.652Z" fill="#102528"/>
<path d="M286.262 152.155C286.262 152.155 276.577 170.149 278.679 180.869C280.781 191.589 290.433 190.733 296.316 189.172C299.635 188.383 302.679 186.709 305.123 184.327C306.71 184.943 308.452 185.04 310.098 184.606C311.744 184.172 313.211 183.228 314.288 181.91C318.264 177.238 316.542 171.363 313.595 169.802C310.648 168.241 306.857 170.149 306.857 170.149L310.107 164.957C310.107 164.957 300.443 136.416 286.262 152.155Z" fill="#FF9573"/>
<path d="M306.662 178.376C306.54 178.375 306.42 178.343 306.313 178.282C306.207 178.221 306.118 178.134 306.055 178.029C305.967 177.87 305.944 177.683 305.99 177.508C306.037 177.332 306.149 177.181 306.304 177.086L313.52 172.902C313.598 172.856 313.684 172.825 313.774 172.813C313.864 172.8 313.955 172.805 314.043 172.829C314.131 172.852 314.213 172.892 314.285 172.948C314.357 173.003 314.417 173.072 314.462 173.151C314.553 173.31 314.578 173.498 314.531 173.674C314.484 173.851 314.37 174.002 314.213 174.094L306.998 178.278C306.897 178.341 306.781 178.374 306.662 178.376Z" fill="#102528"/>
<path d="M312.804 178.853C312.725 178.863 312.645 178.863 312.566 178.853L308.232 177.27C308.147 177.24 308.069 177.193 308.003 177.133C307.936 177.072 307.882 176.999 307.844 176.917C307.805 176.836 307.784 176.747 307.78 176.657C307.776 176.567 307.79 176.477 307.821 176.392C307.884 176.22 308.013 176.08 308.18 176.003C308.346 175.925 308.537 175.917 308.709 175.98L313.042 177.552C313.215 177.616 313.355 177.745 313.432 177.911C313.509 178.078 313.517 178.268 313.454 178.441C313.396 178.564 313.304 178.669 313.189 178.742C313.074 178.815 312.94 178.853 312.804 178.853Z" fill="#102528"/>
<path d="M298.071 161.217C297.963 161.22 297.857 161.19 297.767 161.13C296.37 160.153 294.75 159.542 293.055 159.353C292.983 159.35 292.913 159.333 292.848 159.302C292.783 159.272 292.725 159.228 292.678 159.174C292.63 159.121 292.594 159.058 292.571 158.99C292.548 158.922 292.54 158.85 292.546 158.778C292.55 158.707 292.568 158.637 292.599 158.573C292.63 158.509 292.674 158.452 292.727 158.404C292.78 158.357 292.843 158.321 292.91 158.297C292.977 158.274 293.049 158.264 293.12 158.269C295.011 158.472 296.821 159.147 298.385 160.231C298.501 160.315 298.579 160.442 298.604 160.584C298.628 160.725 298.596 160.871 298.515 160.989C298.466 161.062 298.4 161.12 298.322 161.16C298.244 161.2 298.158 161.219 298.071 161.217Z" fill="#102528"/>
<path d="M283.641 159.103C283.534 159.103 283.429 159.07 283.341 159.011C283.252 158.951 283.183 158.866 283.142 158.767C283.088 158.633 283.088 158.484 283.143 158.35C283.197 158.216 283.302 158.109 283.435 158.052C284.558 157.644 285.789 157.644 286.912 158.052C287.042 158.109 287.145 158.214 287.199 158.345C287.254 158.477 287.256 158.624 287.205 158.756C287.178 158.823 287.139 158.883 287.09 158.934C287.04 158.985 286.981 159.026 286.916 159.054C286.85 159.082 286.78 159.097 286.709 159.098C286.637 159.099 286.567 159.086 286.501 159.06C285.643 158.748 284.704 158.748 283.846 159.06C283.78 159.085 283.711 159.099 283.641 159.103Z" fill="#102528"/>
<path d="M285.645 176.132C285.551 176.131 285.459 176.105 285.377 176.057C285.295 176.01 285.227 175.942 285.179 175.861C282.352 171.081 287.346 165.629 287.606 165.401C287.651 165.338 287.709 165.285 287.776 165.246C287.843 165.207 287.917 165.183 287.995 165.176C288.072 165.168 288.149 165.177 288.223 165.202C288.296 165.227 288.363 165.268 288.42 165.321C288.476 165.374 288.52 165.439 288.549 165.511C288.578 165.582 288.592 165.66 288.589 165.737C288.586 165.815 288.566 165.89 288.531 165.96C288.496 166.029 288.447 166.09 288.386 166.138C288.386 166.138 283.706 171.233 286.111 175.308C286.184 175.433 286.205 175.58 286.171 175.72C286.136 175.859 286.049 175.98 285.927 176.056C285.842 176.108 285.744 176.134 285.645 176.132Z" fill="#102528"/>
<path d="M283.002 166.29C282.941 166.301 282.878 166.301 282.817 166.29C282.684 166.239 282.577 166.137 282.518 166.008C282.459 165.878 282.454 165.73 282.503 165.596L283.771 162.258C283.822 162.124 283.923 162.017 284.053 161.958C284.183 161.899 284.33 161.894 284.464 161.943C284.531 161.967 284.592 162.005 284.644 162.053C284.696 162.101 284.738 162.159 284.768 162.224C284.797 162.288 284.813 162.358 284.815 162.429C284.817 162.5 284.804 162.571 284.778 162.637L283.511 165.976C283.465 166.071 283.393 166.152 283.302 166.208C283.212 166.263 283.108 166.292 283.002 166.29Z" fill="#102528"/>
<path d="M292.502 167.406C292.438 167.417 292.372 167.417 292.307 167.406C292.24 167.381 292.179 167.343 292.126 167.294C292.074 167.244 292.032 167.185 292.003 167.12C291.974 167.054 291.958 166.984 291.956 166.912C291.955 166.84 291.967 166.769 291.993 166.702L293.272 163.363C293.296 163.296 293.333 163.235 293.381 163.183C293.429 163.131 293.487 163.089 293.552 163.06C293.616 163.03 293.686 163.014 293.757 163.012C293.828 163.011 293.899 163.023 293.965 163.049C294.032 163.074 294.094 163.112 294.146 163.162C294.198 163.211 294.24 163.27 294.269 163.335C294.298 163.401 294.314 163.472 294.316 163.543C294.318 163.615 294.305 163.687 294.279 163.754L293.012 167.092C292.966 167.188 292.893 167.268 292.803 167.324C292.713 167.38 292.608 167.408 292.502 167.406Z" fill="#102528"/>
<path d="M284.28 156.231C284.928 155.365 285.787 154.68 286.775 154.242C287.763 153.803 288.848 153.626 289.924 153.727C291.035 153.837 292.11 154.176 293.084 154.722C294.057 155.269 294.907 156.011 295.579 156.903C295.579 156.903 293.326 163.027 298.071 166.864C302.816 170.702 306.835 170.116 306.835 170.116L310.637 169.162L313.887 164.046L304.365 151.537L291.3 142.866L283.662 148.556L284.28 156.231Z" fill="#102528"/>
<path d="M289.101 181.942C287.291 181.942 286.013 179.774 285.959 179.677C285.925 179.6 285.907 179.517 285.907 179.433C285.907 179.349 285.925 179.266 285.959 179.189C285.995 179.112 286.047 179.043 286.113 178.989C286.179 178.935 286.256 178.896 286.338 178.875L291.82 177.671C291.916 177.647 292.017 177.65 292.112 177.68C292.206 177.71 292.29 177.766 292.355 177.842C292.419 177.918 292.461 178.01 292.475 178.108C292.49 178.206 292.477 178.307 292.437 178.398C292.275 178.766 290.942 181.942 289.101 181.942ZM287.346 179.774C287.55 180.064 287.81 180.31 288.112 180.496C288.414 180.682 288.75 180.806 289.101 180.858C289.696 180.858 290.422 179.926 290.953 178.972L287.346 179.774Z" fill="#102528"/>
<path d="M354.827 263.651C354.827 263.651 362.876 286.739 347.309 294.164C331.741 301.589 280.022 297.08 280.022 297.08L283.001 277.872L317.993 263.651H354.827Z" fill="#FF9573"/>
<path d="M200.354 229.69C200.354 229.69 198.328 220.043 194.785 216.791C191.243 213.539 181.103 206.906 177.809 208.423C174.516 209.941 181.601 216.542 181.601 216.542C181.601 216.542 155.503 215.024 152.968 217.301C150.433 219.577 154.496 221.864 154.496 221.864C154.496 221.864 147.909 222.623 149.426 225.116C150.942 227.609 155.763 228.672 155.763 228.672C155.763 228.672 148.917 228.921 152.719 232.465C156.522 236.01 171.298 240.974 179.575 241.137C187.852 241.3 193.258 241.137 193.258 241.137L200.354 229.69Z" fill="#FF8773"/>
<path d="M189.725 231.967C189.672 231.977 189.617 231.977 189.563 231.967C181.265 229.257 182.825 218.613 182.846 218.515C182.857 218.444 182.881 218.377 182.918 218.316C182.955 218.255 183.003 218.201 183.061 218.159C183.118 218.117 183.183 218.086 183.252 218.069C183.321 218.052 183.393 218.049 183.464 218.06C183.605 218.084 183.731 218.162 183.816 218.277C183.901 218.392 183.938 218.536 183.919 218.678C183.854 219.079 182.478 228.52 189.899 230.937C190.042 230.96 190.171 231.039 190.256 231.157C190.342 231.275 190.377 231.422 190.354 231.566C190.331 231.71 190.252 231.838 190.134 231.924C190.016 232.009 189.869 232.044 189.725 232.021V231.967Z" fill="#102528"/>
<path d="M167.983 230.688H167.918L155.698 229.214C155.556 229.197 155.426 229.125 155.337 229.014C155.247 228.902 155.206 228.76 155.221 228.617C155.229 228.546 155.251 228.477 155.286 228.414C155.321 228.352 155.368 228.296 155.425 228.252C155.481 228.208 155.546 228.175 155.615 228.156C155.684 228.137 155.757 228.131 155.828 228.141L167.69 229.571L174.31 218.255C174.344 218.193 174.391 218.138 174.447 218.095C174.504 218.051 174.568 218.02 174.637 218.001C174.705 217.983 174.777 217.979 174.847 217.989C174.918 217.999 174.985 218.023 175.046 218.06C175.17 218.134 175.26 218.254 175.296 218.394C175.333 218.534 175.313 218.682 175.241 218.808L168.449 230.428C168.399 230.507 168.331 230.572 168.249 230.618C168.168 230.663 168.076 230.687 167.983 230.688Z" fill="#102528"/>
<path d="M172.057 223.729L154.452 222.374C154.309 222.362 154.175 222.294 154.082 222.184C153.988 222.075 153.942 221.932 153.954 221.788C153.965 221.645 154.033 221.511 154.143 221.418C154.253 221.324 154.395 221.278 154.539 221.29L172.089 222.656C172.233 222.656 172.37 222.713 172.472 222.814C172.574 222.916 172.631 223.054 172.631 223.198C172.631 223.341 172.574 223.479 172.472 223.581C172.37 223.682 172.233 223.74 172.089 223.74L172.057 223.729Z" fill="#102528"/>
<path d="M279.502 268.193C279.502 268.193 273.565 264.334 271.55 263.196C269.535 262.057 265.451 256.085 262.667 256.692C259.883 257.299 266.35 266.979 266.35 266.979C266.35 266.979 243.708 262.643 241.943 265.006C240.177 267.369 252.494 272.594 252.494 272.594C252.494 272.594 235.876 269.775 235.508 272.865C235.139 275.954 250.371 279.758 250.371 279.758C250.371 279.758 238.898 279.162 239.018 282.132C239.137 285.102 261.768 291.66 261.768 291.66C261.768 291.66 280.271 302.5 287.27 293.514C294.268 284.528 279.502 268.193 279.502 268.193Z" fill="#FF9573"/>
<path d="M270.911 271.152C270.789 271.15 270.671 271.108 270.576 271.033L266.015 267.434C265.901 267.344 265.827 267.213 265.808 267.069C265.79 266.925 265.829 266.78 265.917 266.664C266.01 266.554 266.141 266.484 266.285 266.468C266.428 266.452 266.571 266.491 266.686 266.578L271.247 270.176C271.357 270.269 271.427 270.401 271.444 270.544C271.46 270.687 271.42 270.831 271.334 270.946C271.282 271.009 271.218 271.059 271.145 271.095C271.072 271.131 270.992 271.15 270.911 271.152Z" fill="#102528"/>
<path d="M253.599 280.962H253.502L250.252 280.344C250.113 280.313 249.991 280.228 249.912 280.109C249.833 279.99 249.804 279.845 249.829 279.704C249.842 279.635 249.869 279.569 249.908 279.51C249.946 279.451 249.997 279.4 250.055 279.361C250.114 279.322 250.179 279.294 250.248 279.281C250.318 279.267 250.389 279.267 250.458 279.282L253.708 279.899C253.851 279.912 253.984 279.982 254.077 280.093C254.169 280.203 254.214 280.346 254.201 280.49C254.188 280.634 254.118 280.767 254.008 280.859C253.897 280.952 253.754 280.996 253.61 280.983L253.599 280.962Z" fill="#102528"/>
<path d="M255.745 273.667H255.669L252.419 273.179C252.348 273.168 252.281 273.144 252.22 273.107C252.159 273.07 252.105 273.022 252.063 272.964C252.021 272.907 251.99 272.842 251.973 272.773C251.956 272.703 251.953 272.631 251.964 272.561C251.988 272.42 252.065 272.294 252.181 272.209C252.296 272.124 252.439 272.087 252.581 272.106L255.831 272.604C255.971 272.626 256.098 272.701 256.183 272.815C256.268 272.928 256.305 273.071 256.286 273.211C256.263 273.339 256.197 273.454 256.098 273.537C255.999 273.62 255.874 273.666 255.745 273.667Z" fill="#102528"/>
<path d="M253.589 296.17H128.593V286.414H248.941C250.18 286.414 251.367 286.906 252.243 287.782C253.119 288.658 253.611 289.847 253.611 291.086V296.148L253.589 296.17Z" fill="#50447E"/>
<path d="M221.305 296.17H128.603V236.465C128.603 235.117 129.139 233.824 130.092 232.87C131.044 231.917 132.337 231.381 133.684 231.381H216.224C217.572 231.381 218.864 231.917 219.817 232.87C220.77 233.824 221.305 235.117 221.305 236.465V296.17Z" fill="#1B8392"/>
<path d="M296.684 210.656C293.293 210.656 290.921 207.144 290.087 205.692C288.375 207.123 283.294 210.938 280.954 208.553C278.213 205.757 282.417 201.193 282.601 200.966C282.683 200.876 282.793 200.817 282.912 200.797C283.032 200.777 283.155 200.799 283.262 200.857C293.77 206.613 303.195 198.906 303.293 198.83C303.375 198.76 303.478 198.716 303.586 198.704C303.694 198.693 303.803 198.714 303.899 198.765C303.992 198.817 304.069 198.895 304.119 198.989C304.169 199.083 304.19 199.19 304.181 199.296C304.181 199.687 303.217 208.846 298.233 210.374C297.734 210.545 297.212 210.64 296.684 210.656ZM290.249 204.304H290.357C290.439 204.321 290.515 204.356 290.581 204.406C290.647 204.457 290.7 204.522 290.737 204.597C290.737 204.651 293.727 210.656 297.908 209.377C301.223 208.358 302.513 202.928 302.924 200.456C300.108 202.331 292.015 206.667 283.121 202.05C282.308 203.025 280.044 206.06 281.723 207.784C283.402 209.507 288.299 205.833 289.892 204.423C289.993 204.342 290.12 204.3 290.249 204.304Z" fill="white"/>
<path d="M316.433 264.193C316.29 264.19 316.154 264.132 316.053 264.031C315.952 263.93 315.894 263.794 315.892 263.651V252.486C315.894 252.343 315.952 252.207 316.053 252.106C316.154 252.005 316.29 251.947 316.433 251.944C316.577 251.944 316.715 252.001 316.816 252.103C316.918 252.204 316.975 252.342 316.975 252.486V263.651C316.975 263.795 316.918 263.932 316.816 264.034C316.715 264.136 316.577 264.193 316.433 264.193Z" fill="white"/>
<path d="M253.741 264.074C253.669 264.074 253.597 264.059 253.531 264.031C253.464 264.003 253.404 263.963 253.354 263.911C253.303 263.86 253.264 263.799 253.237 263.732C253.211 263.665 253.198 263.593 253.199 263.521L253.578 241.148C253.584 241.005 253.645 240.87 253.748 240.771C253.851 240.672 253.988 240.617 254.131 240.617C254.273 240.62 254.408 240.678 254.507 240.779C254.606 240.881 254.662 241.017 254.662 241.159L254.282 263.543C254.277 263.683 254.218 263.817 254.117 263.916C254.016 264.015 253.882 264.071 253.741 264.074Z" fill="white"/>
<path d="M172.045 267.629C176.629 267.629 180.344 263.912 180.344 259.326C180.344 254.74 176.629 251.023 172.045 251.023C167.462 251.023 163.747 254.74 163.747 259.326C163.747 263.912 167.462 267.629 172.045 267.629Z" fill="#EFEFF4"/>
<path d="M165.264 238.113H136.295C136.151 238.113 136.014 238.056 135.912 237.954C135.81 237.853 135.753 237.715 135.753 237.571C135.753 237.427 135.81 237.289 135.912 237.188C136.014 237.086 136.151 237.029 136.295 237.029H165.264C165.407 237.029 165.545 237.086 165.647 237.188C165.748 237.289 165.805 237.427 165.805 237.571C165.805 237.715 165.748 237.853 165.647 237.954C165.545 238.056 165.407 238.113 165.264 238.113Z" fill="#CAE9F9"/>
<path d="M253.881 255.489C253.757 255.488 253.638 255.441 253.545 255.359L227.74 234.135C227.632 234.04 227.563 233.908 227.549 233.765C227.535 233.622 227.576 233.479 227.664 233.365C227.758 233.256 227.892 233.188 228.035 233.176C228.179 233.164 228.322 233.208 228.433 233.3L254.228 254.524C254.316 254.595 254.38 254.691 254.41 254.8C254.441 254.908 254.437 255.024 254.399 255.13C254.36 255.236 254.29 255.328 254.197 255.392C254.104 255.457 253.994 255.49 253.881 255.489Z" fill="white"/>
<path d="M358.965 257.201H316.596C316.452 257.201 316.314 257.144 316.213 257.043C316.111 256.941 316.054 256.803 316.054 256.659C316.054 256.516 316.111 256.378 316.213 256.276C316.314 256.174 316.452 256.117 316.596 256.117H358.965C359.109 256.117 359.247 256.174 359.348 256.276C359.45 256.378 359.507 256.516 359.507 256.659C359.507 256.803 359.45 256.941 359.348 257.043C359.247 257.144 359.109 257.201 358.965 257.201Z" fill="white"/>
<path d="M359.944 278.281C359.944 270.493 364.847 264.148 370.891 264.148C376.935 264.148 381.838 270.493 381.838 278.281C381.838 286.068 376.922 292.414 370.891 292.414C364.86 292.414 359.944 286.081 359.944 278.281ZM362.566 278.281C362.566 284.652 366.302 289.831 370.917 289.831C375.532 289.831 379.268 284.652 379.268 278.281C379.268 271.909 375.519 266.731 370.917 266.731C366.316 266.731 362.566 271.909 362.566 278.281Z" fill="#EA366E"/>
<path d="M369.799 293.416H393.99V261.765H369.799V293.416Z" fill="#EA366E"/>
<path d="M369.798 261.765C369.798 262.534 375.215 263.152 381.888 263.152C388.562 263.152 393.989 262.534 393.989 261.765C393.989 260.995 388.573 260.377 381.888 260.377C375.204 260.377 369.798 260.995 369.798 261.765Z" fill="white"/>
<path d="M94.9439 293.427H32.565C32.284 293.427 32.0058 293.371 31.747 293.261C31.4883 293.151 31.2543 292.99 31.0591 292.788C30.864 292.586 30.7116 292.346 30.6111 292.083C30.5106 291.821 30.464 291.54 30.4742 291.259V282.859C30.4742 282.304 30.6945 281.772 31.0866 281.379C31.4787 280.987 32.0105 280.767 32.565 280.767H94.9439C95.7136 280.767 96.4757 280.918 97.1868 281.213C97.8978 281.508 98.5439 281.94 99.0882 282.484C99.6324 283.029 100.064 283.675 100.359 284.387C100.653 285.098 100.805 285.861 100.805 286.631V287.476C100.816 288.254 100.673 289.026 100.384 289.747C100.094 290.469 99.6645 291.125 99.1191 291.679C98.5737 292.233 97.9237 292.673 97.207 292.973C96.4902 293.273 95.7209 293.427 94.9439 293.427Z" fill="#EA366E"/>
<path d="M85.4431 293.514H23.0642C22.7896 293.514 22.5178 293.46 22.2641 293.355C22.0104 293.25 21.7799 293.095 21.5858 292.901C21.3916 292.707 21.2376 292.476 21.1325 292.222C21.0275 291.969 20.9734 291.697 20.9734 291.422V283.021C20.9734 282.746 21.0275 282.474 21.1325 282.221C21.2376 281.967 21.3916 281.736 21.5858 281.542C21.7799 281.348 22.0104 281.194 22.2641 281.088C22.5178 280.983 22.7896 280.929 23.0642 280.929H85.4431C86.9975 280.929 88.4882 281.547 89.5873 282.647C90.6865 283.747 91.3039 285.238 91.3039 286.793V287.639C91.3054 288.41 91.1548 289.174 90.8609 289.886C90.567 290.599 90.1355 291.247 89.5912 291.793C89.0468 292.338 88.4002 292.771 87.6884 293.067C86.9766 293.362 86.2136 293.514 85.4431 293.514Z" fill="#DB2A65"/>
<path d="M20.9734 291.075H84.5006C85.5579 291.075 86.5719 290.655 87.3196 289.907C88.0672 289.159 88.4873 288.144 88.4873 287.086C88.4873 286.028 88.0672 285.014 87.3196 284.265C86.5719 283.517 85.5579 283.097 84.5006 283.097H20.9734V291.075Z" fill="white"/>
<path d="M103.784 281.027H33.5837C31.9172 281.027 30.319 280.364 29.1407 279.185C27.9623 278.006 27.3003 276.407 27.3003 274.74C27.3003 273.072 27.9623 271.473 29.1407 270.294C30.319 269.115 31.9172 268.453 33.5837 268.453H103.784C103.806 268.453 103.827 268.457 103.846 268.465C103.866 268.473 103.884 268.485 103.899 268.5C103.914 268.516 103.926 268.534 103.934 268.553C103.943 268.573 103.947 268.594 103.947 268.615V280.864C103.947 280.886 103.943 280.907 103.934 280.926C103.926 280.946 103.914 280.964 103.899 280.979C103.884 280.994 103.866 281.006 103.846 281.014C103.827 281.023 103.806 281.027 103.784 281.027Z" fill="#80BAFF"/>
<path d="M105.442 281.027H51.1879C49.5215 281.027 47.9233 280.364 46.7449 279.185C45.5665 278.006 44.9045 276.407 44.9045 274.74C44.9045 273.072 45.5665 271.473 46.7449 270.294C47.9233 269.115 49.5215 268.453 51.1879 268.453H105.442C105.963 268.453 106.463 268.659 106.832 269.027C107.202 269.394 107.411 269.894 107.413 270.415V279.086C107.405 279.604 107.193 280.098 106.825 280.46C106.456 280.823 105.959 281.027 105.442 281.027Z" fill="#73A1EA"/>
<path d="M107.413 278.577H51.437C50.4141 278.524 49.4508 278.08 48.7457 277.336C48.0406 276.593 47.6475 275.607 47.6475 274.583C47.6475 273.558 48.0406 272.572 48.7457 271.829C49.4508 271.086 50.4141 270.642 51.437 270.588H107.413V278.577Z" fill="white"/>
<path d="M98.0428 268.55H41.644C40.0213 268.483 38.4874 267.791 37.363 266.618C36.2386 265.445 35.6108 263.883 35.6108 262.258C35.6108 260.633 36.2386 259.071 37.363 257.898C38.4874 256.726 40.0213 256.033 41.644 255.966H98.0428C98.2334 255.969 98.4152 256.046 98.549 256.182C98.6828 256.318 98.7578 256.501 98.7578 256.692V267.835C98.755 268.024 98.6788 268.204 98.5453 268.338C98.4118 268.471 98.2315 268.548 98.0428 268.55Z" fill="#99C6D3"/>
<path d="M99.8298 268.55H56.1928C54.5701 268.483 53.0362 267.791 51.9118 266.618C50.7875 265.445 50.1597 263.883 50.1597 262.258C50.1597 260.633 50.7875 259.071 51.9118 257.898C53.0362 256.726 54.5701 256.033 56.1928 255.966H99.8298C100.065 255.966 100.299 256.012 100.516 256.103C100.734 256.193 100.932 256.326 101.098 256.493C101.264 256.661 101.395 256.859 101.484 257.077C101.574 257.296 101.619 257.529 101.617 257.765V266.762C101.617 266.997 101.571 267.229 101.481 267.446C101.391 267.663 101.26 267.861 101.094 268.027C100.928 268.193 100.731 268.324 100.514 268.414C100.297 268.504 100.065 268.55 99.8298 268.55Z" fill="#1B8392"/>
<path d="M101.618 266.122H55.998C54.9752 266.069 54.0118 265.625 53.3067 264.882C52.6016 264.138 52.2085 263.153 52.2085 262.128C52.2085 261.103 52.6016 260.117 53.3067 259.374C54.0118 258.631 54.9752 258.187 55.998 258.134H101.618V266.122Z" fill="white"/>
</svg>
