<svg  viewBox="0 0 402 110" fill="none" xmlns="http://www.w3.org/2000/svg">
<path d="M0 14.8296V82.0383C0 97.2731 12.334 109.624 27.5485 109.624H109.478V97.4652C45.6744 97.4652 16.1325 59.7589 0 14.8296Z" fill="#2F707F"/>
<path d="M45.6744 0H0V14.8301C16.1325 59.7594 37.1115 94.2657 109.475 85.9658V67.1813C79.9945 54.6354 56.7411 30.2604 45.6744 0Z" fill="#0095AD"/>
<path d="M109.475 67.1813V20.5406C109.475 9.19507 100.292 0 88.9614 0H45.6709C56.741 30.2604 79.9909 54.6354 109.475 67.1813Z" fill="#9DD600"/>
<path d="M0 80.5023V82.0354C0 97.2702 12.334 109.621 27.5485 109.621H29.0796L30.5147 79.7889L0 80.5023Z" fill="#004E60"/>
<path d="M42.8553 79.3228L30.4837 81.2606C29.7096 81.3807 28.9424 80.6124 29.0622 79.8373L30.9975 67.4492C31.268 65.724 32.0284 64.1909 33.1998 63.018L71.356 24.8109C71.7465 24.4199 72.4384 24.4782 72.8974 24.9378L85.3101 37.3671C85.7725 37.8301 85.8273 38.5195 85.4369 38.9105L47.2806 77.1175C46.1092 78.2905 44.5782 79.0553 42.8553 79.3228Z" fill="white"/>
<path d="M89.5302 30.6823C95.0292 30.6823 99.4871 26.2185 99.4871 20.7121C99.4871 15.2057 95.0292 10.7419 89.5302 10.7419C84.0311 10.7419 79.5732 15.2057 79.5732 20.7121C79.5732 26.2185 84.0311 30.6823 89.5302 30.6823Z" fill="white"/>
<path d="M142.046 83.6013L136.867 90.7077C136.545 91.1535 135.781 91.1535 135.459 90.7077L130.28 83.6013C129.561 82.6135 129.177 81.4714 129.177 80.3088V42.407C129.177 42.0194 129.547 41.7039 130.006 41.7039H142.32C142.779 41.7039 143.148 42.0194 143.148 42.407V80.3088C143.148 81.4714 142.768 82.6135 142.046 83.6013Z" fill="#004E60"/>
<path d="M136.271 37.1527C140.188 37.1527 143.364 33.9726 143.364 30.0497C143.364 26.1269 140.188 22.9468 136.271 22.9468C132.353 22.9468 129.177 26.1269 129.177 30.0497C129.177 33.9726 132.353 37.1527 136.271 37.1527Z" fill="#9DD600"/>
<path d="M191.59 41.7039L174.474 66.3258L191.915 90.9443H176.968L166.894 75.7609L155.954 90.9443H141.117C141.911 90.0046 143.069 88.5572 144.583 86.6057L146.316 84.4381C152.235 76.9202 156.968 70.9902 160.503 66.6516C158.623 63.6883 155.41 58.6981 150.865 51.6843C147.83 47.0576 145.665 43.7308 144.364 41.7073H159.311L167.326 56.1327C168.696 54.1091 170.645 51.1459 173.173 47.2394C174.834 44.6328 176.026 42.7911 176.745 41.7073H191.586L191.59 41.7039Z" fill="#004E60"/>
<path d="M228.732 90.9408H217.792L216.706 86.2764C211.942 90.2549 207.102 92.2407 202.194 92.2407C191.288 92.2407 185.839 86.9246 185.839 76.2994C185.839 71.021 188.113 66.8985 192.665 63.9352C197.286 60.8999 204.109 59.3806 213.137 59.3806H215.412V59.1611C215.412 56.0538 214.757 53.9205 213.459 52.7612C212.158 51.6054 209.812 51.0258 206.421 51.0258C201.653 51.0258 197.286 52.5417 193.313 55.5805C192.014 53.1968 190.785 50.8474 189.631 48.5324C193.751 45.3496 197.341 43.1992 200.409 42.0777C203.475 40.9561 207.14 40.3971 211.404 40.3971C222.957 40.3971 228.736 47.6304 228.736 62.0866V90.9374L228.732 90.9408ZM214.973 67.7285H213.35C209.229 67.7285 205.91 68.4522 203.382 69.8961C200.855 71.3434 199.591 73.2606 199.591 75.6443C199.591 80.1304 201.543 82.37 205.438 82.37C207.818 82.37 209.918 81.684 211.719 80.3087C213.524 78.9368 214.607 77.2014 214.966 75.1024V67.7285H214.973Z" fill="#004E60"/>
<path d="M244.177 46.4746C248.222 42.4241 253.274 40.4005 259.34 40.4005C263.529 40.4005 267.232 41.2888 270.444 43.0586C273.657 44.8283 275.88 47.1982 277.106 50.1615C278.692 47.2702 281.169 44.9209 284.529 43.11C287.882 41.3025 291.55 40.3971 295.523 40.3971C307.076 40.3971 312.855 47.4109 312.855 61.4384V90.9374H299.096V65.1254C299.096 60.2826 298.394 56.8666 296.986 54.8774C295.578 52.8916 293.215 51.8969 289.889 51.8969C285.125 51.8969 281.261 53.7764 278.302 57.5354V90.9408H264.656V63.6094C264.656 59.3463 263.896 56.3247 262.382 54.5515C260.868 52.7818 258.268 51.8935 254.583 51.8935C252.414 51.8935 250.373 52.2193 248.465 52.871C246.551 53.5192 245.307 54.3183 244.728 55.2546V90.9374H231.083V41.7038H242.67L243.643 46.4746H244.184H244.177Z" fill="#004E60"/>
<path d="M358.097 70.7672H324.305C324.593 74.094 325.945 76.8618 328.367 79.0671C330.785 81.2724 333.655 82.3768 336.978 82.3768C341.67 82.3768 346.582 80.9295 351.709 78.0382L355.176 85.3058C349.976 89.9325 343.475 92.2475 335.676 92.2475C327.302 92.2475 320.767 89.8604 316.074 85.0897C311.594 80.6105 309.354 74.4267 309.354 66.5452C309.354 58.6637 311.882 52.4114 316.941 47.3491C321.486 42.7224 327.264 40.4073 334.272 40.4073C342.071 40.4073 348.137 43.0482 352.47 48.3266C356.22 52.8126 358.101 58.6294 358.101 65.7873V70.7741L358.097 70.7672ZM323.544 60.6838H344.452C344.089 53.598 340.66 50.0551 334.159 50.0551C327.658 50.0551 324.339 53.598 323.544 60.6838Z" fill="#004E60"/>
<path d="M401.771 70.7672H367.979C368.266 74.094 369.619 76.8618 372.041 79.0671C374.459 81.2724 377.329 82.3768 380.652 82.3768C385.344 82.3768 390.256 80.9295 395.383 78.0382L398.85 85.3058C393.65 89.9325 387.149 92.2475 379.35 92.2475C370.976 92.2475 364.44 89.8604 359.748 85.0897C355.268 80.6105 353.028 74.4267 353.028 66.5452C353.028 58.6637 355.556 52.4114 360.615 47.3491C365.16 42.7224 370.938 40.4073 377.946 40.4073C385.745 40.4073 391.811 43.0482 396.144 48.3266C399.894 52.8126 401.775 58.6294 401.775 65.7873V70.7741L401.771 70.7672ZM367.218 60.6838H388.125C387.762 53.598 384.334 50.0551 377.833 50.0551C371.332 50.0551 368.013 53.598 367.218 60.6838Z" fill="#004E60"/>
</svg>
