<svg width="22" height="23" viewBox="0 0 22 23" fill="none" xmlns="http://www.w3.org/2000/svg">
<g clip-path="url(#clip0_453_8453)">
<path d="M18.2874 5.47508L15.0919 2.27958C14.4975 1.68199 13.7905 1.2082 13.0118 0.885645C12.2331 0.563088 11.3982 0.398163 10.5553 0.400413H6.41659C5.20146 0.401869 4.03651 0.885222 3.17729 1.74445C2.31806 2.60367 1.83471 3.76862 1.83325 4.98375V17.8171C1.83471 19.0322 2.31806 20.1972 3.17729 21.0564C4.03651 21.9156 5.20146 22.399 6.41659 22.4004H15.5833C16.7984 22.399 17.9633 21.9156 18.8226 21.0564C19.6818 20.1972 20.1651 19.0322 20.1666 17.8171V10.0117C20.1688 9.16881 20.0039 8.33387 19.6814 7.55517C19.3588 6.77647 18.885 6.06947 18.2874 5.47508ZM16.9913 6.77125C17.2709 7.05945 17.5116 7.38304 17.7072 7.73375H13.7499C13.5068 7.73375 13.2736 7.63717 13.1017 7.46526C12.9298 7.29335 12.8333 7.0602 12.8333 6.81708V2.85983C13.184 3.05543 13.5075 3.29612 13.7958 3.57575L16.9913 6.77125ZM18.3333 17.8171C18.3333 18.5464 18.0435 19.2459 17.5278 19.7616C17.0121 20.2774 16.3126 20.5671 15.5833 20.5671H6.41659C5.68724 20.5671 4.98777 20.2774 4.47204 19.7616C3.95632 19.2459 3.66659 18.5464 3.66659 17.8171V4.98375C3.66659 4.2544 3.95632 3.55493 4.47204 3.0392C4.98777 2.52348 5.68724 2.23375 6.41659 2.23375H10.5553C10.7066 2.23375 10.8514 2.26308 10.9999 2.27683V6.81708C10.9999 7.54643 11.2896 8.2459 11.8054 8.76162C12.3211 9.27735 13.0206 9.56708 13.7499 9.56708H18.2902C18.3039 9.71558 18.3333 9.86041 18.3333 10.0117V17.8171ZM15.3303 12.6022C15.4976 12.7782 15.5883 13.0136 15.5823 13.2564C15.5762 13.4993 15.4741 13.7298 15.2982 13.8974L12.0083 17.0269C11.4911 17.5359 10.7937 17.8199 10.0681 17.817C9.34251 17.8141 8.64745 17.5245 8.13442 17.0113L6.72275 15.7518C6.54115 15.5899 6.4313 15.3625 6.41737 15.1196C6.41048 14.9993 6.42734 14.8789 6.467 14.7651C6.50665 14.6513 6.56833 14.5465 6.6485 14.4566C6.72867 14.3667 6.82577 14.2934 6.93425 14.241C7.04274 14.1886 7.16047 14.1581 7.28075 14.1512C7.52366 14.1373 7.76215 14.2204 7.94375 14.3823L9.39667 15.6785C9.47984 15.7719 9.58125 15.8473 9.69466 15.9C9.80806 15.9528 9.93106 15.9818 10.0561 15.9852C10.1811 15.9886 10.3055 15.9665 10.4216 15.92C10.5378 15.8736 10.6432 15.8039 10.7313 15.7152L14.0313 12.5701C14.1186 12.4866 14.2215 12.4213 14.3341 12.3777C14.4467 12.3342 14.5668 12.3133 14.6875 12.3162C14.8082 12.3192 14.9271 12.346 15.0374 12.3951C15.1477 12.4441 15.2472 12.5145 15.3303 12.6022Z" fill="#1B8392"/>
</g>
<defs>
<clipPath id="clip0_453_8453">
<rect width="22" height="22" fill="white" transform="translate(0 0.399902)"/>
</clipPath>
</defs>
</svg>
