<svg width="16" height="13" viewBox="0 0 16 13" fill="none" xmlns="http://www.w3.org/2000/svg">
<path d="M3.44324 11.6499C3.44324 11.926 3.66709 12.1499 3.94324 12.1499C4.21938 12.1499 4.44324 11.926 4.44324 11.6499L3.44324 11.6499ZM4.29679 0.796349C4.10153 0.601087 3.78495 0.601087 3.58968 0.796349L0.407704 3.97833C0.212442 4.17359 0.212442 4.49017 0.407704 4.68544C0.602966 4.8807 0.919548 4.8807 1.11481 4.68544L3.94324 1.85701L6.77166 4.68544C6.96693 4.8807 7.28351 4.8807 7.47877 4.68544C7.67403 4.49017 7.67403 4.17359 7.47877 3.97833L4.29679 0.796349ZM4.44324 11.6499L4.44324 1.1499L3.44324 1.1499L3.44324 11.6499L4.44324 11.6499Z" fill="#1B8392"/>
<path d="M12.5569 1.1499C12.5569 0.87376 12.333 0.649902 12.0569 0.649902C11.7807 0.649902 11.5569 0.87376 11.5569 1.1499L12.5569 1.1499ZM11.7033 12.0035C11.8986 12.1987 12.2152 12.1987 12.4104 12.0035L15.5924 8.82148C15.7877 8.62621 15.7877 8.30963 15.5924 8.11437C15.3972 7.91911 15.0806 7.91911 14.8853 8.11437L12.0569 10.9428L9.22846 8.11437C9.0332 7.91911 8.71661 7.91911 8.52135 8.11437C8.32609 8.30963 8.32609 8.62621 8.52135 8.82147L11.7033 12.0035ZM11.5569 1.1499L11.5569 11.6499L12.5569 11.6499L12.5569 1.1499L11.5569 1.1499Z" fill="#1B8392"/>
</svg>
