<svg width="18" height="18" viewBox="0 0 18 18" fill="none" xmlns="http://www.w3.org/2000/svg">
<circle cx="8.5625" cy="9.3999" r="8.0625" stroke="#1B8392"/>
<path d="M8.56249 9.40014C8.05282 9.40014 7.61959 9.22175 7.26282 8.86498C6.90604 8.5082 6.72766 8.07498 6.72766 7.5653C6.72766 7.05563 6.90604 6.6224 7.26282 6.26563C7.61959 5.90886 8.05282 5.73047 8.56249 5.73047C9.07217 5.73047 9.50539 5.90886 9.86217 6.26563C10.2189 6.6224 10.3973 7.05563 10.3973 7.5653C10.3973 8.07498 10.2189 8.5082 9.86217 8.86498C9.50539 9.22175 9.07217 9.40014 8.56249 9.40014ZM4.89282 13.0698V11.8466C4.89282 11.6513 4.94583 11.4666 5.05184 11.2925C5.15826 11.1184 5.30484 10.9718 5.49159 10.8527C5.95886 10.5808 6.45366 10.3726 6.97597 10.2283C7.4987 10.0839 8.02754 10.0117 8.56249 10.0117C9.09745 10.0117 9.62629 10.0839 10.149 10.2283C10.6713 10.3726 11.1661 10.5808 11.6334 10.8527C11.8201 10.9632 11.9667 11.1076 12.0731 11.2857C12.1792 11.4643 12.2322 11.6513 12.2322 11.8466V13.0698H4.89282Z" fill="#1B8392"/>
</svg>
